<?xml version="1.0" standalone="no"?>
<!DOCTYPE svg PUBLIC "-//W3C//DTD SVG 1.1//EN" "http://www.w3.org/Graphics/SVG/1.1/DTD/svg11.dtd" >
<svg xmlns="http://www.w3.org/2000/svg">
<metadata></metadata>
<defs>
<font id="bnkorolevmedium_italic" horiz-adv-x="1189" >
<font-face units-per-em="2048" ascent="1536" descent="-512" />
<missing-glyph horiz-adv-x="450" />
<glyph horiz-adv-x="0" />
<glyph horiz-adv-x="682" />
<glyph unicode=" "  horiz-adv-x="450" />
<glyph unicode="&#x09;" horiz-adv-x="450" />
<glyph unicode="&#xa0;" horiz-adv-x="450" />
<glyph unicode="!" horiz-adv-x="456" d="M-2 106q11 51 52.5 87t90.5 36q51 0 80 -36t19 -87q-10 -49 -54.5 -84.5t-95.5 -35.5q-49 0 -75 35t-17 85zM143 362l88 748q19 176 31 231q11 51 49 84t92 33q53 0 78.5 -33.5t14.5 -83.5q-8 -38 -68 -231l-231 -748h-54z" />
<glyph unicode="&#x22;" horiz-adv-x="743" d="M150 762l114 682h205l-170 -682h-149zM502 762l116 682h205l-172 -682h-149z" />
<glyph unicode="#" horiz-adv-x="1302" d="M-23 -104l263 559h-164l37 176h209l86 186h-256l38 176h304l264 561h186l-264 -561h194l265 561h186l-264 -561h166l-39 -176h-213l-86 -186h260l-37 -176h-307l-262 -559h-187l265 559h-197l-262 -559h-185zM508 631h194l86 186h-194z" />
<glyph unicode="$" horiz-adv-x="1148" d="M63 479h199q-55 -259 150 -307l104 487q-60 20 -101.5 38.5t-89 51.5t-73.5 73t-39.5 102t-3.5 139q23 180 151.5 290.5t327.5 114.5l31 148h84l-33 -152q200 -19 297 -144.5t51 -338.5h-198q30 140 -20 217t-169 86l-96 -461q146 -47 182 -63q145 -62 186 -169 q30 -80 9 -194q-34 -184 -176 -303t-363 -119h-18l-31 -141h-84l31 150q-180 29 -265 158t-43 337zM408 1063q-11 -80 28.5 -128t120.5 -83l90 428q-99 -12 -162.5 -68.5t-76.5 -148.5zM494 164q121 -2 204 55.5t111 173.5q6 24 6.5 45.5t-3.5 39t-13 33t-20 28t-28 24.5 t-32.5 20.5t-38 18t-41.5 16t-45 15.5z" />
<glyph unicode="%" horiz-adv-x="2330" d="M166 930l18 82q48 213 166 332.5t307 119.5q195 0 293.5 -124.5t53.5 -327.5l-19 -82q-49 -218 -169 -338.5t-308 -120.5q-198 0 -293.5 124.5t-48.5 334.5zM348 926q-30 -139 13 -210t153 -71q108 0 183.5 71.5t105.5 209.5l18 86q29 137 -16.5 207.5t-153.5 70.5 q-110 0 -182.5 -70t-101.5 -208zM707 -104l768 1658h186l-770 -1658h-184zM1366 440l18 84q46 213 166.5 333t309.5 120q194 0 292 -125t54 -328l-19 -84q-47 -217 -168 -336.5t-309 -119.5q-198 0 -293.5 123t-50.5 333zM1548 438q-30 -141 14.5 -210.5t153.5 -69.5 q108 0 183.5 69.5t105.5 210.5l18 86q29 135 -17 207t-153 72t-182 -72t-104 -207z" />
<glyph unicode="&#x26;" horiz-adv-x="1349" d="M47 422q10 66 41 121.5t73.5 94.5t90 65t98.5 40q-172 68 -141 324q21 167 166.5 285t349.5 118q104 0 190.5 -33t144.5 -95.5t81 -152t0 -202.5h-205q31 149 -27.5 223t-187.5 74q-124 0 -207.5 -54.5t-107.5 -160.5q-24 -111 29 -179.5t171 -68.5h139l-38 -176h-146 q-122 0 -205 -56t-106 -163q-28 -126 43.5 -192t204.5 -66q62 0 119.5 18t110 55t92 101t57.5 147l71 332h350l-38 -184h-152q-19 -91 -49 -197q-68 -237 -216 -352t-358 -115q-240 0 -356.5 117t-81.5 332z" />
<glyph unicode="'" horiz-adv-x="389" d="M147 762l117 682h205l-172 -682h-150z" />
<glyph unicode="(" horiz-adv-x="634" d="M57 369l152 710q23 106 47 176t63 130.5t94 94t134.5 52t189.5 18.5l-37 -174q-77 0 -127.5 -14t-83 -48.5t-50 -79t-33.5 -118.5l-166 -784q-21 -91 -17 -149t50.5 -84.5t150.5 -26.5l-37 -174q-222 0 -302 113t-28 358z" />
<glyph unicode=")" horiz-adv-x="634" d="M-61 -102l36 174q78 0 128 13.5t82.5 48.5t49.5 79t33 119l166 784q20 91 15.5 148.5t-51 84.5t-148.5 27l37 174q231 0 307.5 -111.5t23.5 -359.5l-151 -710q-19 -90 -37 -149.5t-46 -117.5t-64 -92.5t-89.5 -61.5t-124.5 -38.5t-167 -11.5z" />
<glyph unicode="*" horiz-adv-x="1073" d="M203 905l297 148l-236 143l88 109l236 -156l55 305h141l-67 -303l293 152l47 -119l-301 -144l239 -145l-88 -107l-235 154l-51 -299h-142l64 299l-293 -154z" />
<glyph unicode="+" horiz-adv-x="1036" d="M113 635l39 176h317l68 326h176l-68 -326h318l-39 -176h-318l-69 -328h-177l70 328h-317z" />
<glyph unicode="," horiz-adv-x="503" d="M-176 -258l350 661h209l-408 -661h-151z" />
<glyph unicode="-" horiz-adv-x="722" d="M66 504l32 153h539l-33 -153h-538z" />
<glyph unicode="." horiz-adv-x="425" d="M-16 106q11 52 52 87.5t91 35.5q51 0 79 -36t17 -87q-11 -50 -53.5 -85t-93.5 -35q-50 0 -76.5 35t-15.5 85z" />
<glyph unicode="/" horiz-adv-x="686" d="M-123 -104l778 1658h197l-782 -1658h-193z" />
<glyph unicode="0" d="M80 481l104 486q48 225 197.5 363t359.5 138q105 0 192 -37t142 -103t77 -158t-3 -203l-105 -486q-48 -225 -198 -362t-359 -137q-142 0 -245.5 62.5t-148 177.5t-13.5 259zM289 520q-38 -175 20.5 -259.5t188.5 -84.5q129 0 223 84t131 258l88 412q37 175 -21.5 259.5 t-187.5 84.5q-130 0 -223 -84.5t-131 -261.5z" />
<glyph unicode="1" horiz-adv-x="598" d="M111 0l243 1151q-58 -41 -180 -41l41 195q114 0 157 29.5t58 109.5h186l-305 -1444h-200z" />
<glyph unicode="2" horiz-adv-x="1153" d="M-41 0l33 152q20 93 62 169t96.5 127t119.5 92.5t133.5 72.5t136.5 59.5t130.5 60t114 68.5t88.5 90.5t51 120.5q26 123 -36.5 194.5t-185.5 71.5q-138 0 -223.5 -80t-113.5 -211h-197q46 220 192.5 351.5t350.5 131.5q104 0 190 -33.5t141.5 -93t77.5 -145t2 -184.5 q-23 -113 -82 -201t-136 -143.5t-165.5 -100t-176 -81t-162 -74.5t-128.5 -93.5t-71 -125.5h723l-41 -195h-924z" />
<glyph unicode="3" horiz-adv-x="1169" d="M56 264.5q-21 93.5 3 214.5h205q-34 -160 27 -237.5t194 -77.5q123 0 221.5 66.5t124.5 187.5q25 117 -34.5 172t-184.5 55h-194l39 176h188q104 0 190.5 63.5t106.5 159.5q26 122 -40 186t-189 64q-127 0 -215.5 -75t-122.5 -232h-195q48 229 188 356t357 127 q210 0 328 -113t92 -290q-18 -120 -93.5 -203.5t-185.5 -120.5q93 -29 141.5 -108t26.5 -207q-35 -211 -186.5 -331t-372.5 -120q-108 0 -195.5 33t-145 97t-78.5 157.5z" />
<glyph unicode="4" horiz-adv-x="1210" d="M12 348l39 187l864 909h189l-193 -909h187l-39 -187h-187l-73 -348h-195l74 348h-666zM254 535h463l133 626z" />
<glyph unicode="5" horiz-adv-x="1179" d="M70 477h198q-34 -157 24.5 -232t186.5 -75q58 0 112 17t102 51.5t84.5 93.5t53.5 135l15 63q29 126 -30.5 197.5t-184.5 71.5q-188 0 -307 -152l-183 43l293 754h725l-41 -195h-561l-149 -381q43 49 114.5 80t163.5 31q89 0 165 -30.5t128 -88t71.5 -141t-3.5 -189.5 l-15 -63q-50 -224 -198 -357t-359 -133q-142 0 -245 63t-147 178t-13 259z" />
<glyph unicode="6" horiz-adv-x="1144" d="M59 475l11 53q26 138 73.5 238t124.5 199l375 479h238l-357 -449q82 27 144 27q207 0 309 -129t59 -338l-16 -80q-46 -228 -194 -363t-363 -135q-222 0 -334.5 137.5t-69.5 360.5zM262 487q-69 -315 211 -315q130 0 221.5 76.5t126.5 238.5l17 74q31 145 -30 220t-190 75 t-218 -74.5t-121 -220.5z" />
<glyph unicode="7" horiz-adv-x="1009" d="M115 0l696 1249h-588l41 195h866l-800 -1444h-215z" />
<glyph unicode="8" horiz-adv-x="1169" d="M39 381q26 122 102.5 209t192.5 123q-183 83 -127 338q40 188 175 290.5t343 102.5q139 0 241.5 -45t152 -136t22.5 -214q-26 -126 -94 -211t-173 -123q103 -36 139.5 -123.5t10.5 -210.5q-41 -191 -187.5 -298.5t-361.5 -107.5q-147 0 -254 47.5t-157.5 140.5t-24.5 218 zM246 286.5q10 -45.5 45 -73.5t82 -40.5t110 -12.5q130 0 222.5 58.5t119.5 187.5q25 111 -22.5 172t-159.5 61h-102q-113 0 -190.5 -60.5t-102.5 -179.5q-12 -67 -2 -112.5zM395 1024q-28 -127 30.5 -177t192.5 -50q136 0 215.5 51.5t106.5 173.5q26 124 -35.5 181 t-187.5 57q-125 0 -210.5 -56.5t-111.5 -179.5z" />
<glyph unicode="9" horiz-adv-x="1144" d="M147 889l17 80q46 228 193 362.5t362 134.5q224 0 339.5 -138t65.5 -359l-14 -64q-26 -120 -74.5 -218t-128.5 -206l-356 -481h-250q344 433 356 449q-62 -27 -141 -27q-209 0 -310.5 129.5t-58.5 337.5zM346 883q-31 -145 28.5 -219t188.5 -74q131 0 221 73.5t121 219.5 l17 75q35 161 -23.5 237.5t-191.5 76.5q-130 0 -220 -76.5t-125 -237.5z" />
<glyph unicode=":" horiz-adv-x="475" d="M-16 106q11 52 52 87.5t91 35.5q51 0 79 -36t17 -87q-11 -50 -53.5 -85t-93.5 -35q-50 0 -76.5 35t-15.5 85zM178 1038q11 51 54 87t94 36t78 -36t16 -87q-11 -50 -53 -85t-93 -35t-79 35t-17 85z" />
<glyph unicode=";" horiz-adv-x="559" d="M-176 -258l350 661h209l-408 -661h-151zM260 1038q10 51 54 87t94 36q51 0 79 -36t17 -87q-11 -50 -54 -85t-94 -35q-50 0 -78 35.5t-18 84.5z" />
<glyph unicode="&#x3c;" horiz-adv-x="956" d="M84 500l39 176l807 356l-43 -196l-613 -256l504 -256l-37 -179z" />
<glyph unicode="=" horiz-adv-x="974" d="M78 465l37 176h749l-37 -176h-749zM150 807l38 176h750l-39 -176h-749z" />
<glyph unicode="&#x3e;" horiz-adv-x="956" d="M10 145l43 199l602 256l-493 256l37 176l655 -352l-37 -176q-498 -219 -807 -359z" />
<glyph unicode="?" horiz-adv-x="1064" d="M127 987q50 233 189 358t356 125q209 0 329.5 -114.5t85.5 -280.5q-20 -94 -62 -164t-94 -111.5t-111 -74.5t-117.5 -63t-109.5 -66t-90.5 -95t-56.5 -139h-57q0 76 12 132q14 66 45.5 118t70.5 85.5t84 62t90 55.5t83.5 57.5t68.5 76.5t42 104q22 102 -40 163.5 t-183 61.5q-275 0 -338 -291h-197zM244 106q11 51 53.5 87t93.5 36t79 -36t17 -87q-10 -49 -53 -83.5t-94 -34.5t-79 34t-17 84z" />
<glyph unicode="@" horiz-adv-x="1341" d="M113 530l80 379q56 264 217 410.5t401 146.5q120 0 216.5 -38t159.5 -109.5t86 -175t-5 -234.5l-82 -385q-9 -43 -23.5 -78.5t-30 -61t-40 -45.5t-43.5 -33t-50.5 -21.5t-51 -13t-56 -7t-54 -2.5h-55.5h-32l22 107q-18 -26 -32 -42t-38.5 -35.5t-57.5 -29.5t-75 -10 q-138 0 -187.5 88t-8.5 281l51 239q68 326 299 326q81 0 135 -37t62 -82l24 109h133l-178 -830q83 2 133 40t72 138l82 385q46 220 -59 347.5t-312 127.5q-205 0 -349.5 -126t-191.5 -349l-79 -379q-47 -224 60 -345.5t349 -121.5h373l-16 -81h-351q-283 0 -417.5 144 t-79.5 404zM504.5 423q23.5 -61 107.5 -61q82 0 128.5 57.5t72.5 174.5l53 250q49 229 -102 229q-86 0 -132 -58t-71 -171l-53 -250q-27 -110 -3.5 -171z" />
<glyph unicode="A" horiz-adv-x="1200" d="M-111 0l775 1444h225l155 -1444h-204l-31 326h-537l-168 -326h-215zM360 500h437l-62 723z" />
<glyph unicode="B" horiz-adv-x="1161" d="M20 0l306 1444h389q110 0 196 -22t147.5 -66.5t85.5 -118.5q13 -41 14 -90q0 -39 -9 -82l-4 -21q-26 -125 -100 -208.5t-175 -108.5q166 -63 165 -221q0 -45 -13 -98l-4 -17q-51 -202 -174.5 -296.5t-337.5 -94.5h-486zM260 193h238q131 0 214 49.5t111 169.5l6 26 q7 32 7 59q0 63 -42 99q-60 50 -178 51h-258zM391 807h275q107 0 178 52t94 157l6 28q8 30 8 54q0 16 -4 30q-8 36 -25 59t-51 37t-73 19.5t-90 5.5h-224z" />
<glyph unicode="C" horiz-adv-x="1169" d="M80 288q-9 43 -9 89q0 62 15 133l98 461q48 227 190 359t357 132q225 0 343 -148q83 -104 84 -248q0 -60 -15 -128h-201q10 45 10 87q0 20 -2 39q-6 60 -29 105t-74 72t-126 27q-116 0 -209 -72t-125 -219l-100 -473q-12 -59 -12 -107q0 -87 41 -141q64 -82 192 -82 q78 0 140 31t102 84.5t65 110.5t39 124h201q-54 -248 -196.5 -396t-362.5 -148q-107 0 -194.5 36t-144.5 105t-77 167z" />
<glyph unicode="D" horiz-adv-x="1212" d="M20 0l306 1444h432q108 0 193.5 -34t142.5 -102q56 -67 74 -167q7 -39 7 -84q0 -68 -16 -148l-80 -372q-57 -261 -203.5 -399t-361.5 -138h-494zM260 193h240q69 0 126 19.5t109.5 62.5t91.5 121t62 188l59 280q18 78 18 138v16q-3 66 -18.5 110t-49.5 71t-76 38.5 t-97 11.5h-240z" />
<glyph unicode="E" horiz-adv-x="1058" d="M20 0l306 1444h802l-41 -195h-602l-92 -434h438l-36 -178h-439l-94 -442h602l-41 -195h-803z" />
<glyph unicode="F" horiz-adv-x="1007" d="M20 0l306 1444h772l-41 -195h-572l-92 -434h406l-37 -178h-406l-135 -637h-201z" />
<glyph unicode="G" horiz-adv-x="1187" d="M80 286q-9 42 -9 90q0 62 15 134l98 459q49 229 189.5 365t353.5 136q104 0 192 -36.5t145.5 -100t81.5 -155.5q12 -50 12 -103q0 -46 -9 -94h-201q8 41 8 77q0 86 -47 140q-67 78 -192 78q-135 0 -219 -88t-125 -279l-86 -405q-11 -57 -11 -103q0 -25 3 -47 q9 -62 42.5 -102t80 -59t106.5 -19q123 0 214.5 77.5t119.5 221.5l10 53h-281l39 179h482l-50 -226q-48 -227 -192.5 -363t-353.5 -136q-107 0 -194 35.5t-144.5 103.5t-77.5 167z" />
<glyph unicode="H" horiz-adv-x="1239" d="M20 0l306 1444h200l-133 -631h531l133 631h200l-305 -1444h-200l135 637h-531l-135 -637h-201z" />
<glyph unicode="I" horiz-adv-x="507" d="M20 0l306 1444h200l-305 -1444h-201z" />
<glyph unicode="J" horiz-adv-x="1128" d="M33 275q-9 40 -9 83q0 57 15 119l14 64h201l-16 -70q-12 -54 -12 -97q0 -20 3 -38q8 -57 40 -93.5t76 -53.5t99 -17q133 0 212 87.5t120 283.5l191 901h200l-204 -967q-49 -229 -185.5 -364.5t-343.5 -135.5q-105 0 -190.5 37t-138 103t-72.5 158z" />
<glyph unicode="K" horiz-adv-x="1165" d="M20 0l306 1444h200l-131 -619h121l522 619h248l-608 -713l303 -731h-219l-256 641h-150l-135 -641h-201z" />
<glyph unicode="L" horiz-adv-x="960" d="M20 0l306 1444h200l-264 -1249h555l-41 -195h-756z" />
<glyph unicode="M" horiz-adv-x="1505" d="M20 0l306 1444h186l205 -932l600 932h207l-305 -1444h-201l213 1004l-490 -754h-143l-166 749l-211 -999h-201z" />
<glyph unicode="N" horiz-adv-x="1277" d="M20 0l306 1444h186l358 -1071l224 1071h202l-305 -1444h-188l-359 1079l-223 -1079h-201z" />
<glyph unicode="O" d="M80 286q-9 43 -9 91q0 62 15 133l98 457q48 227 193 364t354 137q107 0 194 -35t145 -102.5t78 -165.5q9 -43 9 -92q0 -62 -14 -133l-99 -459q-48 -226 -193 -362.5t-353 -136.5q-107 0 -194.5 35t-145.5 103t-78 166zM287 504q-12 -59 -13 -107q0 -87 42 -141 q64 -82 192 -82q115 0 208.5 75.5t125.5 223.5l100 475q12 58 12 105q0 88 -42 141q-64 82 -191 82q-115 0 -208.5 -75.5t-125.5 -223.5z" />
<glyph unicode="P" horiz-adv-x="1153" d="M20 0l306 1444h393q107 0 195 -33t147.5 -98t80.5 -159q9 -42 9 -91q0 -59 -14 -127l-13 -55q-53 -242 -203 -371t-366 -129h-254l-80 -381h-201zM342 573h213q136 0 236 77.5t135 232.5l12 53q12 62 13 110v5q-1 44 -15 77q-16 35 -37.5 58t-55 37t-68.5 20t-77 6h-213z " />
<glyph unicode="Q" d="M77 298q-5 34 -5 72q0 62 14 134l98 463q48 226 193.5 363.5t353.5 137.5q108 0 195 -35t145 -102.5t78 -165.5q9 -43 9 -91q0 -62 -15 -134l-99 -465q-41 -196 -145.5 -320t-273.5 -161l98 -268h-236l-77 264q-87 13 -155.5 51.5t-116 103t-61.5 153.5zM287 504 q-12 -59 -12 -107q0 -89 41 -141q64 -82 192 -82q115 0 208.5 75.5t125.5 223.5l100 475q12 58 12 105q0 88 -42 141q-64 82 -191 82q-115 0 -208.5 -75.5t-125.5 -223.5z" />
<glyph unicode="R" horiz-adv-x="1153" d="M20 0l306 1444h405q226 0 340 -134q80 -94 81 -239q0 -61 -15 -131l-9 -41q-36 -184 -133.5 -294t-273.5 -152l211 -453h-232l-178 416h-213l-88 -416h-201zM350 608h213q151 0 243 70.5t124 222.5l10 49q11 51 11 93q0 206 -253 206h-213z" />
<glyph unicode="S" horiz-adv-x="1159" d="M63 479h199q-12 -56 -12 -102q0 -83 38 -131q60 -76 195 -82h13q116 0 198 54q86 56 115 175q6 27 6 51t-7 46q-14 42 -49 68t-84 46t-105 37.5t-112 38t-106 51.5t-86 73t-52 108q-9 39 -9 85q0 31 4 66q25 187 162 298q132 107 333 107h15q109 -3 194 -35.5t139 -94.5 q55 -60 73 -150q8 -37 8 -80q0 -59 -15 -127h-198q12 54 12 98q0 77 -36 125q-56 76 -185 80h-8q-119 0 -198 -56q-82 -58 -97 -165q-2 -17 -2 -32q0 -37 13 -67q19 -42 56.5 -67.5t88.5 -47.5t107.5 -37t112 -38t103.5 -50t82 -72.5t46 -105.5q5 -27 5 -59q0 -40 -8 -90 q-34 -184 -176 -303t-363 -119q-228 -1 -343 133q-81 94 -81 240q0 61 14 131z" />
<glyph unicode="T" horiz-adv-x="1021" d="M193 1249l40 195h900l-41 -195h-351l-264 -1249h-201l265 1249h-348z" />
<glyph unicode="U" horiz-adv-x="1230" d="M99 278q-11 45 -11 95q0 52 12 108l205 963h201l-205 -969q-8 -45 -8 -82q1 -29 5 -54q12 -57 46.5 -93.5t81 -54t102.5 -17.5q121 0 213 78t123 223l205 969h201l-205 -963q-48 -226 -193.5 -362.5t-353.5 -136.5q-105 0 -193.5 36.5t-145.5 102t-80 157.5z" />
<glyph unicode="V" horiz-adv-x="1157" d="M203 1444h203l88 -1151l577 1151h221l-747 -1444h-207z" />
<glyph unicode="W" horiz-adv-x="1695" d="M203 1444h194l39 -1077l482 1077h182l26 -1077l500 1077h211l-672 -1444h-207l-26 1059l-475 -1059h-195z" />
<glyph unicode="X" horiz-adv-x="1134" d="M-113 0l590 748l-256 696h215l185 -539l395 539h239l-559 -725l267 -719h-213l-193 563l-430 -563h-240z" />
<glyph unicode="Y" horiz-adv-x="1163" d="M203 1444h205l182 -709l487 709h228q-108 -149 -324.5 -458.5t-323.5 -459.5l-110 -526h-201l111 526z" />
<glyph unicode="Z" horiz-adv-x="1032" d="M-82 0l846 1249h-535l41 195h852l-850 -1249h568l-41 -195h-881z" />
<glyph unicode="[" horiz-adv-x="675" d="M0 -102l348 1652h430l-37 -174h-239l-277 -1304h240l-37 -174h-428z" />
<glyph unicode="\" horiz-adv-x="686" d="M236 1554h186l78 -1658h-189z" />
<glyph unicode="]" horiz-adv-x="675" d="M-61 -102l36 174h238l276 1304h-239l37 174h430l-350 -1652h-428z" />
<glyph unicode="^" horiz-adv-x="1069" d="M113 723l503 721h179l202 -721h-180l-139 555l-371 -555h-194z" />
<glyph unicode="_" horiz-adv-x="1118" d="M-104 -307l32 153h932l-33 -153h-931z" />
<glyph unicode="`" horiz-adv-x="1056" d="M467 1518h184l80 -322h-131z" />
<glyph unicode="a" horiz-adv-x="1101" d="M59 432l62 287q47 220 159 334t279 114q120 0 199.5 -54.5t105.5 -121.5l35 160h180l-243 -1151h-181l33 158q-113 -176 -319 -176q-178 0 -266 119q-59 79 -59 200q0 60 15 131zM258 459q-15 -68 -15 -122q0 -69 25 -115q44 -80 164 -81q119 0 198 81.5t111 236.5 l52 243q13 60 13 109q0 73 -28 119q-47 78 -162 78q-118 0 -195.5 -80t-111.5 -234z" />
<glyph unicode="b" horiz-adv-x="1103" d="M0 0l326 1540h190l-113 -530q100 155 306 155q179 -1 267 -119q59 -79 59 -196q0 -60 -15 -131l-62 -287q-97 -450 -438 -450q-131 0 -207 48.5t-100 127.5l-33 -158h-180zM287 457q-13 -65 -13 -117q0 -72 26 -120q44 -82 161 -81q120 0 199.5 82t111.5 236l49 235 q13 63 13 114q0 72 -26 119q-44 81 -163 81q-115 0 -196 -78.5t-111 -225.5z" />
<glyph unicode="c" horiz-adv-x="1060" d="M59 432l60 275q47 219 169 338.5t322 119.5q212 1 316 -123q71 -85 72 -214q0 -58 -15 -126h-190q12 55 12 99q1 70 -29 114q-48 72 -172 72q-127 0 -197 -71.5t-104 -233.5l-53 -252q-9 -45 -10 -83q0 -71 33 -118q50 -73 171 -73q234 0 293 286h191q-95 -462 -492 -462 q-208 0 -314 124q-75 88 -76 216q0 52 13 112z" />
<glyph unicode="d" horiz-adv-x="1101" d="M57 432l62 287q46 218 156.5 332t281.5 114q120 0 194.5 -47t96.5 -108l113 530h200l-325 -1540h-181l33 158q-25 -35 -38.5 -52t-44 -45.5t-59 -42t-75 -25t-102.5 -11.5q-180 0 -269 118q-59 78 -59 198q0 61 16 134zM256 457q-13 -65 -14 -117q0 -72 26 -120 q44 -82 164 -81q117 0 197 81.5t112 236.5l52 245q12 59 12 107q1 72 -27 119q-46 78 -162 78q-120 0 -200 -81.5t-111 -232.5z" />
<glyph unicode="e" horiz-adv-x="1060" d="M59 432l60 279q46 217 169.5 336.5t323.5 119.5q210 0 314 -119q74 -84 73 -213q0 -53 -12 -114l-41 -199h-676l-28 -129q-9 -38 -9 -70q-1 -69 39 -116q58 -68 166 -68q106 0 182.5 59.5t98.5 155.5l4 19h190l-2 -8q-21 -81 -59.5 -149t-96 -121.5t-140 -84 t-181.5 -30.5q-208 0 -314 124q-74 87 -74 214q0 54 13 114zM299 662h485l17 71q11 51 11 92q0 70 -33 113q-53 68 -171 68q-112 0 -188.5 -66t-102.5 -190z" />
<glyph unicode="f" horiz-adv-x="698" d="M63 0l209 983h-125l35 166h125q47 209 147.5 303t270.5 94l94 -6l-35 -164q-28 4 -57 4q-114 0 -155 -42t-72 -189h235l-35 -166h-235l-209 -983h-193z" />
<glyph unicode="g" horiz-adv-x="1101" d="M-43 -178q-1 9 -1 18q0 33 9 68h185q-5 -22 -5 -43q0 -54 33 -95q46 -55 166 -55q125 0 193.5 58t95.5 178l45 207q-22 -34 -45.5 -61t-60.5 -55.5t-88.5 -44t-114.5 -15.5q-178 0 -266 119q-59 79 -59 200q0 60 15 131l62 287q45 213 151.5 327.5t266.5 114.5 q128 0 221 -50.5t104 -119.5l35 160h180l-248 -1161q-24 -111 -55 -184t-85.5 -131t-140 -84.5t-208.5 -26.5q-81 0 -146.5 13.5t-108 37t-73 55.5t-42.5 70.5t-15 81.5zM256 451q-15 -68 -15 -122q0 -70 25 -115q44 -81 164 -81q116 0 195 77.5t112 229.5l64 293 q11 49 11 89q0 71 -32 116q-51 70 -164 70q-118 0 -195.5 -80t-111.5 -234z" />
<glyph unicode="h" horiz-adv-x="1114" d="M0 0l326 1540h190l-117 -551q97 178 318 178q78 0 142 -25t111 -77t61 -133q6 -32 5 -70q0 -56 -12 -123l-156 -739h-192l147 702q15 72 15 127q0 62 -20 102q-38 75 -173 75q-137 0 -204.5 -74.5t-104.5 -245.5l-146 -686h-190z" />
<glyph unicode="i" horiz-adv-x="446" d="M-6 0l244 1151h190l-244 -1151h-190zM274 1440q10 51 52.5 86t93.5 35t79 -35q20 -25 20 -59q0 -13 -3 -27q-10 -51 -53 -86t-94 -35t-79 35q-20 25 -19 58q0 13 3 28z" />
<glyph unicode="j" horiz-adv-x="452" d="M-287 -428l37 174q113 0 167 56.5t85 203.5l244 1145h190l-235 -1108q-22 -104 -46.5 -174.5t-61.5 -130.5t-88 -94.5t-123 -53t-169 -18.5zM281 1440q11 51 52.5 86t92.5 35t79 -35q20 -25 20 -59q0 -13 -3 -27q-10 -51 -53 -86t-94 -35t-78 35q-19 25 -19 58q0 13 3 28 z" />
<glyph unicode="k" horiz-adv-x="1042" d="M0 0l326 1540h192l-186 -883h92l434 494h246l-524 -571l284 -580h-205l-233 496h-129l-104 -496h-193z" />
<glyph unicode="l" horiz-adv-x="458" d="M0 0l326 1540h192l-325 -1540h-193z" />
<glyph unicode="m" horiz-adv-x="1593" d="M0 0l244 1151h180l-29 -135q21 30 38 49.5t49 46t76.5 40t98.5 13.5q99 0 178 -47.5t101 -136.5q115 184 317 184q153 -1 224 -109q45 -69 45 -170q0 -59 -15 -128l-159 -758h-193l168 793q9 41 9 75q0 54 -22 88q-36 58 -131.5 58t-156 -55t-82.5 -158l-170 -801h-192 l167 793q9 42 9 76q0 56 -24 90q-38 55 -130 55q-94 0 -156 -54.5t-84 -158.5l-170 -801h-190z" />
<glyph unicode="n" horiz-adv-x="1114" d="M0 0l244 1151h180l-35 -162q113 176 320 176q179 -1 267 -119q59 -79 59 -196q0 -60 -15 -131l-152 -719h-192l147 696q14 68 14 121q1 66 -21 110q-40 79 -171 79q-132 0 -202.5 -76t-106.5 -244l-146 -686h-190z" />
<glyph unicode="o" horiz-adv-x="1071" d="M61 438l58 273q44 214 166.5 333t322.5 119q205 -1 312 -125q77 -89 77 -219q0 -51 -12 -108l-57 -273q-45 -218 -168.5 -338t-321.5 -120q-210 0 -316 124q-74 88 -74 218q0 54 13 116zM246 414q-9 -41 -9 -75q-1 -71 37 -117q56 -68 170 -68q108 0 184 67t103 193 l70 319q9 39 9 72q0 71 -39 117q-57 68 -169 67q-111 0 -185 -66t-102 -190z" />
<glyph unicode="p" horiz-adv-x="1114" d="M-82 -387l326 1538h180l-35 -164q115 178 320 178q189 0 269 -131q49 -80 49 -203q0 -82 -21 -182l-45 -215q-46 -219 -157.5 -333.5t-283.5 -114.5q-122 0 -204 51.5t-95 114.5l-115 -539h-188zM287 459q-14 -65 -14 -117q0 -70 26 -116q46 -81 164 -81q120 0 198.5 80 t110.5 234l49 229q13 65 13 117q0 72 -26 119q-44 82 -163 82q-115 0 -195 -79.5t-112 -230.5z" />
<glyph unicode="q" horiz-adv-x="1112" d="M72 434l57 279q44 219 155.5 334.5t282.5 115.5q120 0 202.5 -56t104.5 -122l35 166h181l-328 -1538h-191l115 537q-21 -33 -45 -58.5t-60 -51.5t-87.5 -40t-114.5 -14q-177 0 -263 118q-58 80 -58 200q0 60 14 130zM266 446q-15 -69 -15 -122q0 -191 189 -191 q118 0 198 80t112 233l53 250q13 61 13 110q0 73 -28 120q-47 78 -161 78q-120 0 -198 -80.5t-112 -237.5z" />
<glyph unicode="r" horiz-adv-x="720" d="M0 0l244 1151h180l-45 -209q36 90 131.5 156.5t214.5 66.5h35l-39 -190h-23q-143 0 -238.5 -78.5t-127.5 -230.5l-142 -666h-190z" />
<glyph unicode="s" horiz-adv-x="1030" d="M27 389h190q-8 -39 -8 -72q1 -71 37 -115q54 -66 172 -65q121 0 189.5 45.5t80.5 130.5q2 12 2 23q0 38 -22 66q-28 38 -77 60.5t-110 42t-122 45.5t-109 61t-74 97q-18 43 -17 96q0 23 3 48q20 153 135.5 237.5t288.5 84.5q96 0 174 -26t132 -76q53 -48 74 -126 q11 -40 11 -85q0 -42 -10 -89h-181q8 38 8 70q0 72 -40 111q-58 57 -172 57q-104 0 -164.5 -41.5t-71.5 -116.5q-2 -13 -1 -24q1 -40 21 -72q28 -40 78 -62.5t112 -41.5t123.5 -44t110.5 -59q48 -34 74 -95q18 -43 19 -96q0 -23 -4 -49q-21 -154 -142.5 -245t-322.5 -91 q-210 1 -318 113q-79 83 -79 207q0 45 10 96z" />
<glyph unicode="t" horiz-adv-x="692" d="M123 428l119 557h-115l29 145q99 0 156 56t87 194h119l-49 -231h252l-35 -164h-252l-112 -530q-10 -47 -15.5 -74.5t-10 -60.5t-5.5 -50t2.5 -37.5t10.5 -29.5t20.5 -20t30.5 -14t42.5 -6t54.5 -2t70 3l-39 -174q-59 -6 -108 -6q-273 0 -273 273q0 75 21 171z" />
<glyph unicode="u" horiz-adv-x="1093" d="M65 236q-10 39 -10 82q0 45 11 96l157 737h191l-162 -764q-6 -30 -7 -57q0 -71 45 -115q61 -61 165 -61q103 0 181 62.5t101 170.5l162 764h193l-158 -737q-42 -201 -167.5 -317.5t-317.5 -116.5q-100 0 -180.5 31t-132 88t-71.5 137z" />
<glyph unicode="v" horiz-adv-x="1044" d="M145 1151h207l86 -893l463 893h219l-631 -1151h-198z" />
<glyph unicode="w" horiz-adv-x="1519" d="M141 1151h197l43 -850l399 850h168l39 -852l412 852h200l-571 -1151h-186l-41 819l-391 -819h-187z" />
<glyph unicode="x" horiz-adv-x="1073" d="M-92 0l512 600l-244 551h213l162 -412l334 412h233l-483 -565l264 -586h-207l-188 449l-365 -449h-231z" />
<glyph unicode="y" horiz-adv-x="1054" d="M72 -385l223 391l-150 1145h201l92 -887l471 887h221l-856 -1536h-202z" />
<glyph unicode="z" horiz-adv-x="937" d="M-82 0l721 977h-483l37 174h784l-721 -977h489l-36 -174h-791z" />
<glyph unicode="{" horiz-adv-x="688" d="M74 639l35 164q67 0 97 33.5t48 113.5l29 129q23 104 48.5 175.5t64.5 131t92 94t127.5 52.5t175.5 18l-37 -174q-46 0 -81.5 -7.5t-61.5 -19t-46.5 -35.5t-34 -45.5t-26 -61.5t-19.5 -70.5t-18 -85.5q-26 -123 -75 -215t-111 -117q51 -32 60.5 -128.5t-15.5 -197.5 q-22 -104 -18 -176t45.5 -110.5t123.5 -38.5l-39 -174q-182 0 -271 118.5t-38 352.5l29 129q19 72 1.5 108.5t-85.5 36.5z" />
<glyph unicode="|" horiz-adv-x="458" d="M-20 -104l350 1658h192l-352 -1658h-190z" />
<glyph unicode="}" horiz-adv-x="688" d="M-63 -106l38 174q97 0 153 35t85 116q14 41 32.5 111t34 122t37.5 108.5t54 97.5t73 61q-50 25 -60 121.5t17 210.5q21 102 20.5 174.5t-42 111.5t-129.5 39l37 174q195 0 279 -116.5t32 -354.5l-29 -129q-21 -78 -4.5 -112.5t88.5 -34.5l-35 -164q-65 0 -97 -36 t-48 -109l-29 -129q-23 -106 -47 -176t-61.5 -130.5t-90 -94t-128 -52t-180.5 -18.5z" />
<glyph unicode="&#xa1;" horiz-adv-x="425" d="M-16 102q17 76 65 232l232 747h53l-88 -747q-19 -177 -31 -232q-11 -51 -49 -83.5t-92 -32.5q-53 0 -77 32.5t-13 83.5zM242 1337q11 50 53.5 85.5t93.5 35.5t78 -35.5t16 -85.5q-11 -51 -52.5 -87t-92.5 -36t-79 36t-17 87z" />
<glyph unicode="&#xa2;" horiz-adv-x="1060" d="M59 432l60 275q46 216 165.5 335.5t315.5 122.5l29 146h84l-31 -150q178 -22 260.5 -142.5t40.5 -316.5h-190q56 259 -146 283l-164 -827q200 21 254 284h191q-95 -456 -482 -462l-28 -146h-82l29 150q-175 22 -260.5 142.5t-45.5 305.5zM250 430q-25 -115 13.5 -187 t135.5 -85l164 827q-107 -10 -168 -81.5t-92 -221.5z" />
<glyph unicode="&#xa3;" horiz-adv-x="1167" d="M-20 0l40 195h418q22 160 -59 315h-293l18 82h240q-28 55 -59 139h-152l19 82h108q-27 120 -2 238q42 201 178 310t340 109q202 0 311 -134.5t64 -348.5h-195q30 142 -21.5 216.5t-168.5 74.5q-118 0 -199 -63t-108 -187q-22 -107 10 -215h371l-19 -82h-332 q10 -27 58 -139h246l-19 -82h-201q75 -157 50 -315h327l-41 -195h-929z" />
<glyph unicode="&#xa5;" horiz-adv-x="1163" d="M203 1444h205l182 -711l487 711h228l-643 -903h174l-19 -82h-174l-29 -140h170l-18 -81h-170l-49 -238h-201l49 238h-174l19 81h174l28 140h-174l19 82h174z" />
<glyph unicode="&#xa6;" horiz-adv-x="458" d="M-20 -104l151 722h193l-154 -722h-190zM178 840l152 714h192l-151 -714h-193z" />
<glyph unicode="&#xa8;" horiz-adv-x="1007" d="M375 1288q9 40 42.5 68t71.5 28q40 0 62 -28t14 -68q-7 -40 -41.5 -68t-74.5 -28q-38 0 -60 28t-14 68zM723 1288q9 40 43 68t72 28q39 0 61 -28t14 -68q-7 -40 -41.5 -68t-74.5 -28q-38 0 -60 28t-14 68z" />
<glyph unicode="&#xa9;" horiz-adv-x="1341" d="M110 297q-24 102 3 233l80 379q56 264 218 410.5t402 146.5q120 0 216 -38t158.5 -109.5t85.5 -175t-5 -234.5l-80 -379q-56 -264 -212 -406t-394 -142q-121 0 -219.5 36.5t-163.5 106.5t-89 172zM195 530q-46 -218 62 -342.5t318 -124.5q204 0 344 122t187 345l80 379 q46 220 -59 347.5t-312 127.5q-205 0 -349.5 -126t-191.5 -349zM352 551l70 330q69 329 356 329q153 0 224 -84.5t36 -236.5l-14 -62h-145l16 70q21 86 -16 132t-109 46q-90 0 -137.5 -54t-71.5 -169l-67 -315q-34 -162 127 -162q163 0 196 157l17 82h145l-14 -69 q-65 -316 -355 -316q-150 0 -219.5 87t-38.5 235z" />
<glyph unicode="&#xaa;" horiz-adv-x="1091" d="M176 930l19 84q46 213 152.5 327.5t264.5 114.5q230 0 306 -170l34 160h181l-203 -948h-180l34 157q-23 -36 -47 -63t-61 -55t-88.5 -43t-114.5 -15q-176 0 -259.5 119t-37.5 332zM305 106q10 51 53 87t93 36q51 0 79.5 -36t18.5 -87q-10 -49 -54.5 -83.5t-95.5 -34.5 q-50 0 -77 34.5t-17 83.5zM367 915q-28 -140 14.5 -208t157.5 -68q112 0 187.5 70t102.5 206l25 123q26 130 -19.5 197.5t-154.5 67.5q-115 0 -189 -69t-102 -206z" />
<glyph unicode="&#xab;" horiz-adv-x="983" d="M82 586l354 415h152l-301 -432l125 -397h-144zM461 586l356 415h152l-303 -432l127 -397h-144z" />
<glyph unicode="&#xad;" horiz-adv-x="722" d="M66 504l32 153h539l-33 -153h-538z" />
<glyph unicode="&#xae;" horiz-adv-x="1341" d="M110 297q-24 102 3 233l80 379q56 264 218 410.5t402 146.5q120 0 216 -38t158.5 -109.5t85.5 -175t-5 -234.5l-80 -379q-56 -264 -212 -406t-394 -142q-121 0 -219.5 36.5t-163.5 106.5t-89 172zM195 530q-46 -218 62 -342.5t318 -124.5q204 0 344 122t187 345l80 379 q46 220 -59 347.5t-312 127.5q-205 0 -349.5 -126t-191.5 -349zM317 262l195 918h207q352 0 295 -344l-2 -13q-22 -131 -87.5 -203t-191.5 -92l156 -266h-158l-129 242h-94l-51 -242h-140zM537 637h98q110 0 165.5 43.5t73.5 150.5l3 13q18 108 -16 154t-138 46h-100z" />
<glyph unicode="&#xaf;" horiz-adv-x="1173" d="M420 1200l31 141h575l-31 -141h-575z" />
<glyph unicode="&#xb0;" horiz-adv-x="858" d="M217 1122l2 11q31 155 128 243t245 88q150 0 220.5 -89.5t39.5 -241.5l-2 -11q-31 -157 -128 -245.5t-245 -88.5q-151 0 -221 89.5t-39 244.5zM356 1104q-20 -89 16.5 -136.5t116.5 -47.5q79 0 136 47.5t77 136.5l11 45q20 87 -18 135.5t-117 48.5t-135 -48t-76 -136z " />
<glyph unicode="&#xb4;" horiz-adv-x="1056" d="M567 1196l213 322h209l-270 -322h-152z" />
<glyph unicode="&#xb6;" horiz-adv-x="696" d="M205 1065l35 164q9 46 24.5 81t35 57.5t43 38.5t49.5 23t55 11.5t58.5 4t59.5 -0.5h35h135l-325 -1540h-181l199 940h-86q-93 0 -126 57.5t-11 163.5z" />
<glyph unicode="&#xb7;" horiz-adv-x="425" d="M82 580q11 51 52.5 86.5t92.5 35.5t79 -35.5t18 -86.5q-11 -50 -54 -85.5t-94 -35.5t-78 35.5t-16 85.5z" />
<glyph unicode="&#xb8;" horiz-adv-x="1085" d="M96 -326q56 75 163 216t124 163h121q-64 -122 -201 -379h-207z" />
<glyph unicode="&#xba;" horiz-adv-x="1050" d="M166 930l18 82q101 452 480 452q205 0 308 -124.5t58 -327.5l-18 -82q-102 -459 -482 -459q-209 0 -310 124.5t-54 334.5zM295 106q11 51 52.5 87t92.5 36t79.5 -36t17.5 -87q-11 -50 -54 -85t-94 -35t-78 35t-16 85zM350 903q-27 -124 24 -191t163 -67q106 0 178 66.5 t100 191.5l29 131q27 122 -25 189t-162 67t-180 -65.5t-98 -190.5z" />
<glyph unicode="&#xbb;" horiz-adv-x="983" d="M-6 172l301 432l-125 397h143l187 -413l-355 -416h-151zM373 172l301 432l-125 397h143l187 -413l-355 -416h-151z" />
<glyph unicode="&#xbf;" horiz-adv-x="1064" d="M18 377q18 83 52.5 147.5t77 103.5t93.5 73t101 56.5t100.5 53.5t92 64.5t74.5 88.5t48 126h58q-3 -75 -15 -134q-14 -66 -45 -117.5t-70.5 -85t-84 -62t-89 -55.5t-82.5 -57.5t-68 -76t-42 -103.5q-22 -102 40 -164.5t181 -62.5q128 0 219 76.5t121 214.5h199 q-50 -232 -189.5 -356.5t-357.5 -124.5q-210 0 -329.5 114t-84.5 281zM618 1343q10 51 52.5 86t93.5 35q50 0 78 -35t18 -86q-10 -50 -53.5 -85t-93.5 -35q-51 0 -78.5 34.5t-16.5 85.5z" />
<glyph unicode="&#xc0;" horiz-adv-x="1200" d="M-111 0l775 1444h225l155 -1444h-204l-31 326h-537l-168 -326h-215zM360 500h437l-62 723zM594 1927h184l80 -321h-131z" />
<glyph unicode="&#xc1;" horiz-adv-x="1200" d="M-111 0l775 1444h225l155 -1444h-204l-31 326h-537l-168 -326h-215zM360 500h437l-62 723zM702 1606l213 321h209l-270 -321h-152z" />
<glyph unicode="&#xc2;" horiz-adv-x="1200" d="M-111 0l775 1444h225l155 -1444h-204l-31 326h-537l-168 -326h-215zM360 500h437l-62 723zM444 1567l312 313h188l180 -313h-151l-139 192l-224 -192h-166z" />
<glyph unicode="&#xc3;" horiz-adv-x="1200" d="M-111 0l775 1444h225l155 -1444h-204l-31 326h-537l-168 -326h-215zM360 500h437l-62 723zM453 1597l32 152q105 63 199 63q56 0 147 -32.5t140 -32.5q94 0 211 72l-33 -152q-108 -70 -199 -70q-55 0 -143 36t-139 36q-98 0 -215 -72z" />
<glyph unicode="&#xc4;" horiz-adv-x="1200" d="M-111 0l775 1444h225l155 -1444h-204l-31 326h-537l-168 -326h-215zM360 500h437l-62 723zM543 1698q9 40 42.5 68t71.5 28q40 0 62 -28t14 -68q-7 -39 -42 -67.5t-75 -28.5q-38 0 -59.5 28t-13.5 68zM891 1698q9 40 43 68t72 28q39 0 61 -28t14 -68q-7 -40 -41.5 -68 t-74.5 -28q-38 0 -60 28t-14 68z" />
<glyph unicode="&#xc5;" horiz-adv-x="1200" d="M-111 0l775 1444h225l155 -1444h-204l-31 326h-537l-168 -326h-215zM360 500h437l-62 723zM657 1745q0 77 57 130.5t130 53.5q64 0 107.5 -42.5t43.5 -104.5q0 -77 -56.5 -131t-129.5 -54q-64 0 -108 43t-44 105zM758 1755q0 -25 15 -41t40 -16q31 0 56.5 23t25.5 55 q0 25 -15 41t-40 16q-31 0 -56.5 -23t-25.5 -55z" />
<glyph unicode="&#xc6;" horiz-adv-x="1855" d="M-123 0l1190 1444h858l-41 -195h-602l-92 -434h438l-37 -178h-438l-94 -442h602l-41 -195h-803l68 326h-506l-266 -326h-236zM512 500h408l145 678z" />
<glyph unicode="&#xc7;" horiz-adv-x="1169" d="M80 479l104 490q48 225 197.5 363t359.5 138q230 0 341.5 -148t60.5 -384h-201q14 66 8 127t-27 108t-70.5 75t-121.5 28q-116 0 -214 -76t-130 -223l-106 -502q-31 -144 31 -222.5t186 -78.5q78 0 141.5 31t105.5 84t68.5 111.5t40.5 123.5h201q-51 -233 -176.5 -373.5 t-319.5 -164.5l-164 -312h-209l236 312q-186 21 -285 157t-57 336z" />
<glyph unicode="&#xc8;" horiz-adv-x="1058" d="M20 0l306 1444h802l-41 -195h-602l-92 -434h438l-36 -178h-439l-94 -442h602l-41 -195h-803zM569 1927h185l80 -321h-132z" />
<glyph unicode="&#xc9;" horiz-adv-x="1058" d="M20 0l306 1444h802l-41 -195h-602l-92 -434h438l-36 -178h-439l-94 -442h602l-41 -195h-803zM629 1606l213 321h209l-271 -321h-151z" />
<glyph unicode="&#xca;" horiz-adv-x="1058" d="M20 0l306 1444h802l-41 -195h-602l-92 -434h438l-36 -178h-439l-94 -442h602l-41 -195h-803zM416 1608l311 313h188l181 -313h-152l-139 192l-223 -192h-166z" />
<glyph unicode="&#xcb;" horiz-adv-x="1058" d="M20 0l306 1444h802l-41 -195h-602l-92 -434h438l-36 -178h-439l-94 -442h602l-41 -195h-803zM510 1698q9 40 43 68t72 28q39 0 61 -28t14 -68q-7 -40 -41.5 -68t-74.5 -28q-38 0 -60 28t-14 68zM858 1698q9 40 43 68t72 28q40 0 62 -28t14 -68q-7 -39 -42 -67.5 t-75 -28.5q-38 0 -60 28t-14 68z" />
<glyph unicode="&#xcc;" horiz-adv-x="507" d="M20 0l306 1444h200l-305 -1444h-201zM266 1927h185l79 -321h-131z" />
<glyph unicode="&#xcd;" horiz-adv-x="507" d="M20 0l306 1444h200l-305 -1444h-201zM369 1606l213 321h209l-271 -321h-151z" />
<glyph unicode="&#xce;" horiz-adv-x="507" d="M20 0l306 1444h200l-305 -1444h-201zM98 1608l312 313h188l180 -313h-151l-140 192l-223 -192h-166z" />
<glyph unicode="&#xcf;" horiz-adv-x="507" d="M20 0l306 1444h200l-305 -1444h-201zM207 1698q9 40 43 68t72 28q39 0 61 -28t14 -68q-7 -40 -41.5 -68t-74.5 -28q-38 0 -60 28t-14 68zM555 1698q9 40 43 68t72 28q39 0 61 -28t14 -68q-7 -40 -41.5 -68t-74.5 -28q-38 0 -60 28t-14 68z" />
<glyph unicode="&#xd0;" horiz-adv-x="1212" d="M10 684l19 82h153l144 678h432q108 0 193.5 -34t142.5 -101.5t74.5 -167.5t-9.5 -232l-80 -372q-57 -261 -203.5 -399t-361.5 -138h-494l144 684h-154zM260 193h240q69 0 126 19.5t109.5 62.5t91.5 121t62 188l59 280q21 89 18 154.5t-18.5 109.5t-49.5 71t-76 38.5 t-97 11.5h-240l-102 -483h240l-19 -82h-239z" />
<glyph unicode="&#xd1;" horiz-adv-x="1277" d="M20 0l306 1444h186l358 -1071l224 1071h202l-305 -1444h-188l-359 1079l-223 -1079h-201zM475 1597l33 152q105 63 199 63q56 0 146.5 -32.5t139.5 -32.5q94 0 211 72l-33 -152q-108 -70 -198 -70q-55 0 -143.5 36t-139.5 36q-98 0 -215 -72z" />
<glyph unicode="&#xd2;" d="M80 286q-20 98 6 224l98 457q48 227 193 364t354 137q107 0 194 -35t145 -102.5t78.5 -165.5t-5.5 -225l-99 -459q-48 -226 -193 -362.5t-353 -136.5q-107 0 -194.5 35t-145.5 103t-78 166zM287 504q-35 -167 29 -248.5t192 -81.5q115 0 208.5 75.5t125.5 223.5l100 475 q35 164 -29.5 246t-191.5 82q-115 0 -208.5 -75.5t-125.5 -223.5zM559 1927h184l80 -321h-131z" />
<glyph unicode="&#xd3;" d="M80 286q-20 98 6 224l98 457q48 227 193 364t354 137q107 0 194 -35t145 -102.5t78.5 -165.5t-5.5 -225l-99 -459q-48 -226 -193 -362.5t-353 -136.5q-107 0 -194.5 35t-145.5 103t-78 166zM287 504q-35 -167 29 -248.5t192 -81.5q115 0 208.5 75.5t125.5 223.5l100 475 q35 164 -29.5 246t-191.5 82q-115 0 -208.5 -75.5t-125.5 -223.5zM696 1606l213 321h209l-270 -321h-152z" />
<glyph unicode="&#xd4;" d="M80 286q-20 98 6 224l98 457q48 227 193 364t354 137q107 0 194 -35t145 -102.5t78.5 -165.5t-5.5 -225l-99 -459q-48 -226 -193 -362.5t-353 -136.5q-107 0 -194.5 35t-145.5 103t-78 166zM287 504q-35 -167 29 -248.5t192 -81.5q115 0 208.5 75.5t125.5 223.5l100 475 q35 164 -29.5 246t-191.5 82q-115 0 -208.5 -75.5t-125.5 -223.5zM434 1608l311 313h189l180 -313h-151l-140 192l-223 -192h-166z" />
<glyph unicode="&#xd5;" d="M80 286q-20 98 6 224l98 457q48 227 193 364t354 137q107 0 194 -35t145 -102.5t78.5 -165.5t-5.5 -225l-99 -459q-48 -226 -193 -362.5t-353 -136.5q-107 0 -194.5 35t-145.5 103t-78 166zM287 504q-35 -167 29 -248.5t192 -81.5q115 0 208.5 75.5t125.5 223.5l100 475 q35 164 -29.5 246t-191.5 82q-115 0 -208.5 -75.5t-125.5 -223.5zM446 1597l33 152q105 63 199 63q56 0 147 -32.5t140 -32.5q94 0 211 72l-33 -152q-108 -70 -199 -70q-55 0 -143 36t-139 36q-99 0 -216 -72z" />
<glyph unicode="&#xd6;" d="M80 286q-20 98 6 224l98 457q48 227 193 364t354 137q107 0 194 -35t145 -102.5t78.5 -165.5t-5.5 -225l-99 -459q-48 -226 -193 -362.5t-353 -136.5q-107 0 -194.5 35t-145.5 103t-78 166zM287 504q-35 -167 29 -248.5t192 -81.5q115 0 208.5 75.5t125.5 223.5l100 475 q35 164 -29.5 246t-191.5 82q-115 0 -208.5 -75.5t-125.5 -223.5zM524 1698q9 40 43 68t72 28q40 0 62 -28t14 -68q-7 -39 -42 -67.5t-75 -28.5q-38 0 -60 28t-14 68zM872 1698q9 40 43 68t72 28q40 0 62 -28t14 -68q-7 -39 -42 -67.5t-75 -28.5q-38 0 -60 28t-14 68z" />
<glyph unicode="&#xd7;" horiz-adv-x="985" d="M98 492l308 253l-201 254l131 107l203 -254l305 256l106 -127l-309 -256l203 -254l-133 -106l-203 253l-307 -253z" />
<glyph unicode="&#xd8;" d="M80 481l104 486q48 225 197.5 363t359.5 138q114 0 201 -41l102 189h89l-123 -230q92 -66 130 -175t9 -244l-105 -486q-48 -225 -198 -362t-359 -137q-114 0 -208 43l-101 -187h-86l121 225q-90 66 -126 175t-7 243zM281 475q-30 -145 32 -223l535 999q-52 25 -117 25 q-116 0 -214 -76t-130 -223zM373 201q53 -27 125 -27q116 0 214 76t130 223l106 502q32 143 -37 229z" />
<glyph unicode="&#xd9;" horiz-adv-x="1230" d="M99 278.5q-23 91.5 1 202.5l205 963h201l-205 -969q-15 -79 -3.5 -136t46.5 -93.5t81.5 -54t102.5 -17.5q121 0 213 78t123 223l205 969h201l-205 -963q-48 -226 -193.5 -362.5t-353.5 -136.5q-105 0 -193.5 36.5t-145.5 102.5t-80 157.5zM604 1927h184l80 -321h-131z " />
<glyph unicode="&#xda;" horiz-adv-x="1230" d="M99 278.5q-23 91.5 1 202.5l205 963h201l-205 -969q-15 -79 -3.5 -136t46.5 -93.5t81.5 -54t102.5 -17.5q121 0 213 78t123 223l205 969h201l-205 -963q-48 -226 -193.5 -362.5t-353.5 -136.5q-105 0 -193.5 36.5t-145.5 102.5t-80 157.5zM713 1606l213 321h209 l-271 -321h-151z" />
<glyph unicode="&#xdb;" horiz-adv-x="1230" d="M99 278.5q-23 91.5 1 202.5l205 963h201l-205 -969q-15 -79 -3.5 -136t46.5 -93.5t81.5 -54t102.5 -17.5q121 0 213 78t123 223l205 969h201l-205 -963q-48 -226 -193.5 -362.5t-353.5 -136.5q-105 0 -193.5 36.5t-145.5 102.5t-80 157.5zM473 1608l311 313h189l180 -313 h-152l-139 192l-223 -192h-166z" />
<glyph unicode="&#xdc;" horiz-adv-x="1230" d="M99 278.5q-23 91.5 1 202.5l205 963h201l-205 -969q-15 -79 -3.5 -136t46.5 -93.5t81.5 -54t102.5 -17.5q121 0 213 78t123 223l205 969h201l-205 -963q-48 -226 -193.5 -362.5t-353.5 -136.5q-105 0 -193.5 36.5t-145.5 102.5t-80 157.5zM563 1698q9 40 43 68t72 28 q40 0 62 -28t14 -68q-7 -39 -42 -67.5t-75 -28.5q-38 0 -60 28t-14 68zM911 1698q9 40 43 68t72 28q40 0 62 -28t14 -68q-7 -39 -42 -67.5t-75 -28.5q-38 0 -60 28t-14 68z" />
<glyph unicode="&#xdd;" horiz-adv-x="1163" d="M203 1444h205l182 -709l487 709h228q-108 -149 -324.5 -458.5t-323.5 -459.5l-110 -526h-201l111 526zM686 1606l213 321h209l-270 -321h-152z" />
<glyph unicode="&#xde;" horiz-adv-x="1153" d="M20 0l306 1444h200l-37 -176h207q219 0 332.5 -134t69.5 -374l-11 -55q-45 -243 -192 -371.5t-363 -128.5h-268l-43 -205h-201zM305 397h213q138 0 240 77t131 233l10 53q10 51 10.5 92.5t-9 72.5t-24.5 55t-40 40t-52 26.5t-63 16.5t-71 8t-79 2h-122z" />
<glyph unicode="&#xdf;" horiz-adv-x="1157" d="M63 0l209 983h-125l35 166h125q47 209 145 303t291 94h41q159 0 255.5 -66.5t72.5 -176.5l-8 -37q-15 -68 -61.5 -121.5t-124.5 -69.5q114 -37 149.5 -127t3.5 -241l-55 -263q-22 -107 -65.5 -192t-112 -148.5t-169 -93t-225.5 -18.5l37 176q88 -4 150 13.5t99.5 57.5 t58 87t34.5 116l51 240q34 165 -13.5 235t-205.5 70l35 162q202 0 221 106l4 25q7 44 -21.5 72t-105.5 28h-61q-101 0 -150.5 -51.5t-76.5 -179.5l-244 -1149h-193z" />
<glyph unicode="&#xe0;" horiz-adv-x="1101" d="M59 432l62 287q47 220 159 334t279 114q120 0 199.5 -54.5t105.5 -121.5l35 160h180l-243 -1151h-181l33 158q-113 -176 -319 -176q-178 0 -266 119t-44 331zM258 459q-34 -157 10 -237.5t164 -80.5q119 0 198 81.5t111 236.5l52 243q32 149 -15 227.5t-162 78.5 q-118 0 -195.5 -80t-111.5 -234zM449 1620h184l80 -322h-131z" />
<glyph unicode="&#xe1;" horiz-adv-x="1101" d="M59 432l62 287q47 220 159 334t279 114q120 0 199.5 -54.5t105.5 -121.5l35 160h180l-243 -1151h-181l33 158q-113 -176 -319 -176q-178 0 -266 119t-44 331zM258 459q-34 -157 10 -237.5t164 -80.5q119 0 198 81.5t111 236.5l52 243q32 149 -15 227.5t-162 78.5 q-118 0 -195.5 -80t-111.5 -234zM535 1300l213 322h208l-270 -322h-151z" />
<glyph unicode="&#xe2;" horiz-adv-x="1101" d="M59 432l62 287q47 220 159 334t279 114q120 0 199.5 -54.5t105.5 -121.5l35 160h180l-243 -1151h-181l33 158q-113 -176 -319 -176q-178 0 -266 119t-44 331zM258 459q-34 -157 10 -237.5t164 -80.5q119 0 198 81.5t111 236.5l52 243q32 149 -15 227.5t-162 78.5 q-118 0 -195.5 -80t-111.5 -234zM332 1300l311 314h188l181 -314h-152l-139 193l-223 -193h-166z" />
<glyph unicode="&#xe3;" horiz-adv-x="1101" d="M59 432l62 287q47 220 159 334t279 114q120 0 199.5 -54.5t105.5 -121.5l35 160h180l-243 -1151h-181l33 158q-113 -176 -319 -176q-178 0 -266 119t-44 331zM258 459q-34 -157 10 -237.5t164 -80.5q119 0 198 81.5t111 236.5l52 243q32 149 -15 227.5t-162 78.5 q-118 0 -195.5 -80t-111.5 -234zM330 1284l32 152q105 63 199 63q56 0 147 -32.5t140 -32.5q96 0 211 71l-33 -151q-108 -70 -199 -70q-55 0 -143 36t-139 36q-98 0 -215 -72z" />
<glyph unicode="&#xe4;" horiz-adv-x="1101" d="M59 432l62 287q47 220 159 334t279 114q120 0 199.5 -54.5t105.5 -121.5l35 160h180l-243 -1151h-181l33 158q-113 -176 -319 -176q-178 0 -266 119t-44 331zM258 459q-34 -157 10 -237.5t164 -80.5q119 0 198 81.5t111 236.5l52 243q32 149 -15 227.5t-162 78.5 q-118 0 -195.5 -80t-111.5 -234zM420 1391q9 40 43 68t72 28q39 0 61 -28t14 -68q-7 -40 -41.5 -68.5t-74.5 -28.5q-38 0 -60 28.5t-14 68.5zM768 1391q9 40 43 68t72 28q39 0 61 -28t14 -68q-7 -40 -41.5 -68.5t-74.5 -28.5q-38 0 -60 28.5t-14 68.5z" />
<glyph unicode="&#xe5;" horiz-adv-x="1101" d="M59 432l62 287q47 220 159 334t279 114q120 0 199.5 -54.5t105.5 -121.5l35 160h180l-243 -1151h-181l33 158q-113 -176 -319 -176q-178 0 -266 119t-44 331zM258 459q-34 -157 10 -237.5t164 -80.5q119 0 198 81.5t111 236.5l52 243q32 149 -15 227.5t-162 78.5 q-118 0 -195.5 -80t-111.5 -234zM537 1438q0 77 56.5 130.5t129.5 53.5q64 0 107.5 -42.5t43.5 -104.5q0 -77 -56.5 -131t-129.5 -54q-64 0 -107.5 43t-43.5 105zM637 1448q0 -25 15 -41t40 -16q32 0 57 22.5t25 54.5q0 25 -15.5 41.5t-39.5 16.5q-31 0 -56.5 -23t-25.5 -55 z" />
<glyph unicode="&#xe6;" horiz-adv-x="1736" d="M59 432l62 287q47 220 159 334t279 114q121 0 204 -50.5t105 -110.5l31 145h180l-30 -143q41 69 118 114t172 45q195 0 281.5 -117.5t42.5 -328.5l-41 -199h-676l-20 -90q-29 -131 22.5 -212t159.5 -81q107 0 186 59.5t101 155.5l4 19h190l-2 -8q-19 -77 -51.5 -141.5 t-83.5 -121.5t-129 -89.5t-176 -32.5q-116 0 -189.5 51t-89.5 127l-32 -158h-181l33 158q-113 -176 -319 -176q-178 0 -266 119t-44 331zM258 459q-34 -157 10 -237.5t164 -80.5q119 0 198 81.5t111 236.5l52 243q32 149 -15 227.5t-162 78.5q-118 0 -195.5 -80t-111.5 -234 zM975 662h485l17 71q62 273 -185 273q-111 0 -193 -74t-112 -213z" />
<glyph unicode="&#xe7;" horiz-adv-x="1060" d="M59 432l60 275q47 218 172.5 338t326.5 120q212 0 312 -123t53 -340h-190q62 285 -181 285q-128 0 -201.5 -72t-107.5 -233l-53 -252q-27 -129 19.5 -201.5t166.5 -72.5q242 0 301 286h191q-42 -202 -149.5 -320t-280.5 -138l-164 -310h-207q87 120 233 310 q-176 21 -259 140.5t-42 307.5z" />
<glyph unicode="&#xe8;" horiz-adv-x="1060" d="M59 432l60 279q46 217 169.5 336.5t323.5 119.5q209 0 313.5 -119t61.5 -327l-41 -199h-676l-28 -129q-27 -118 30.5 -186t165.5 -68q106 0 182.5 59.5t98.5 155.5l4 19h190l-2 -8q-21 -81 -59.5 -149t-96 -121.5t-140 -84t-181.5 -30.5q-208 0 -313.5 123.5t-61.5 328.5 zM299 662h485l17 71q31 137 -22 205t-171 68q-112 0 -188.5 -66t-102.5 -190zM479 1622h185l79 -322h-131z" />
<glyph unicode="&#xe9;" horiz-adv-x="1060" d="M59 432l60 279q46 217 169.5 336.5t323.5 119.5q209 0 313.5 -119t61.5 -327l-41 -199h-676l-28 -129q-27 -118 30.5 -186t165.5 -68q106 0 182.5 59.5t98.5 155.5l4 19h190l-2 -8q-21 -81 -59.5 -149t-96 -121.5t-140 -84t-181.5 -30.5q-208 0 -313.5 123.5t-61.5 328.5 zM299 662h485l17 71q31 137 -22 205t-171 68q-112 0 -188.5 -66t-102.5 -190zM569 1300l213 322h209l-270 -322h-152z" />
<glyph unicode="&#xea;" horiz-adv-x="1060" d="M59 432l60 279q46 217 169.5 336.5t323.5 119.5q209 0 313.5 -119t61.5 -327l-41 -199h-676l-28 -129q-27 -118 30.5 -186t165.5 -68q106 0 182.5 59.5t98.5 155.5l4 19h190l-2 -8q-21 -81 -59.5 -149t-96 -121.5t-140 -84t-181.5 -30.5q-208 0 -313.5 123.5t-61.5 328.5 zM299 662h485l17 71q31 137 -22 205t-171 68q-112 0 -188.5 -66t-102.5 -190zM311 1298l312 314h188l180 -314h-151l-140 193l-223 -193h-166z" />
<glyph unicode="&#xeb;" horiz-adv-x="1060" d="M59 432l60 279q46 217 169.5 336.5t323.5 119.5q209 0 313.5 -119t61.5 -327l-41 -199h-676l-28 -129q-27 -118 30.5 -186t165.5 -68q106 0 182.5 59.5t98.5 155.5l4 19h190l-2 -8q-21 -81 -59.5 -149t-96 -121.5t-140 -84t-181.5 -30.5q-208 0 -313.5 123.5t-61.5 328.5 zM299 662h485l17 71q31 137 -22 205t-171 68q-112 0 -188.5 -66t-102.5 -190zM399 1393q9 40 43 68t72 28q40 0 62 -28t14 -68q-7 -40 -42 -68.5t-75 -28.5q-38 0 -60 28.5t-14 68.5zM748 1393q9 40 42.5 68t71.5 28q40 0 62 -28t14 -68q-7 -40 -42 -68.5t-75 -28.5 q-38 0 -59.5 28.5t-13.5 68.5z" />
<glyph unicode="&#xec;" horiz-adv-x="446" d="M-6 0l244 1151h190l-244 -1151h-190zM176 1622h184l80 -322h-131z" />
<glyph unicode="&#xed;" horiz-adv-x="446" d="M-6 0l244 1151h190l-244 -1151h-190zM270 1300l213 322h209l-270 -322h-152z" />
<glyph unicode="&#xee;" horiz-adv-x="446" d="M-6 0l244 1151h190l-244 -1151h-190zM4 1303l311 313h189l180 -313h-152l-139 192l-223 -192h-166z" />
<glyph unicode="&#xef;" horiz-adv-x="446" d="M-6 0l244 1151h190l-244 -1151h-190zM109 1393q9 40 42.5 68t71.5 28q40 0 62 -28t14 -68q-7 -40 -42 -68.5t-75 -28.5q-38 0 -59.5 28.5t-13.5 68.5zM457 1393q9 40 42.5 68t71.5 28q40 0 62 -28t14 -68q-7 -40 -42 -68.5t-75 -28.5q-38 0 -59.5 28.5t-13.5 68.5z" />
<glyph unicode="&#xf0;" horiz-adv-x="1077" d="M66 459l53 250q46 213 162.5 334.5t298.5 121.5q131 0 182 -35q-23 67 -53 166h-187l19 82h143l-51 162h198l50 -162h180l-19 -82h-139l60 -186q33 -103 38.5 -196t-18.5 -224l-45 -231q-45 -228 -178 -355t-332 -127q-201 0 -304.5 131t-57.5 351zM258 467 q-37 -170 9.5 -241.5t166.5 -71.5q122 0 199.5 71.5t114.5 241.5l49 227q64 299 -183 299q-243 0 -307 -299z" />
<glyph unicode="&#xf1;" horiz-adv-x="1114" d="M0 0l244 1151h180l-35 -162q113 176 320 176q179 0 267.5 -118.5t43.5 -327.5l-152 -719h-192l147 696q32 152 -7.5 231t-170.5 79q-132 0 -202.5 -76t-106.5 -244l-146 -686h-190zM336 1294l33 152q105 63 198 63q56 0 147 -32.5t140 -32.5q94 0 211 72l-33 -152 q-108 -70 -198 -70q-55 0 -143.5 36t-139.5 36q-98 0 -215 -72z" />
<glyph unicode="&#xf2;" horiz-adv-x="1071" d="M61 438l58 273q44 214 166.5 333t322.5 119q205 0 312 -124.5t65 -327.5l-57 -273q-45 -218 -168.5 -338t-321.5 -120q-210 0 -315.5 124t-61.5 334zM246 414q-27 -124 28.5 -192t169.5 -68q108 0 184 67t103 193l70 319q27 121 -30 188.5t-169 67.5q-111 0 -185 -66 t-102 -190zM492 1622h184l80 -322h-131z" />
<glyph unicode="&#xf3;" horiz-adv-x="1071" d="M61 438l58 273q44 214 166.5 333t322.5 119q205 0 312 -124.5t65 -327.5l-57 -273q-45 -218 -168.5 -338t-321.5 -120q-210 0 -315.5 124t-61.5 334zM246 414q-27 -124 28.5 -192t169.5 -68q108 0 184 67t103 193l70 319q27 121 -30 188.5t-169 67.5q-111 0 -185 -66 t-102 -190zM561 1298l213 322h209l-270 -322h-152z" />
<glyph unicode="&#xf4;" horiz-adv-x="1071" d="M61 438l58 273q44 214 166.5 333t322.5 119q205 0 312 -124.5t65 -327.5l-57 -273q-45 -218 -168.5 -338t-321.5 -120q-210 0 -315.5 124t-61.5 334zM246 414q-27 -124 28.5 -192t169.5 -68q108 0 184 67t103 193l70 319q27 121 -30 188.5t-169 67.5q-111 0 -185 -66 t-102 -190zM317 1298l312 314h188l180 -314h-151l-139 193l-224 -193h-166z" />
<glyph unicode="&#xf5;" horiz-adv-x="1071" d="M61 438l58 273q44 214 166.5 333t322.5 119q205 0 312 -124.5t65 -327.5l-57 -273q-45 -218 -168.5 -338t-321.5 -120q-210 0 -315.5 124t-61.5 334zM246 414q-27 -124 28.5 -192t169.5 -68q108 0 184 67t103 193l70 319q27 121 -30 188.5t-169 67.5q-111 0 -185 -66 t-102 -190zM313 1286l33 152q105 63 199 63q56 0 146.5 -32.5t139.5 -32.5q96 0 211 71l-32 -151q-108 -70 -199 -70q-55 0 -143.5 36t-139.5 36q-98 0 -215 -72z" />
<glyph unicode="&#xf6;" horiz-adv-x="1071" d="M61 438l58 273q44 214 166.5 333t322.5 119q205 0 312 -124.5t65 -327.5l-57 -273q-45 -218 -168.5 -338t-321.5 -120q-210 0 -315.5 124t-61.5 334zM246 414q-27 -124 28.5 -192t169.5 -68q108 0 184 67t103 193l70 319q27 121 -30 188.5t-169 67.5q-111 0 -185 -66 t-102 -190zM406 1389q9 40 42.5 68t71.5 28q40 0 62 -28t14 -68q-7 -40 -42 -68.5t-75 -28.5q-38 0 -59.5 28.5t-13.5 68.5zM754 1389q9 40 42.5 68t71.5 28q40 0 62 -28t14 -68q-7 -40 -42 -68.5t-75 -28.5q-38 0 -59.5 28.5t-13.5 68.5z" />
<glyph unicode="&#xf7;" horiz-adv-x="970" d="M113 635l39 176h770l-39 -176h-770zM326 408q9 47 48 79.5t85 32.5t71.5 -32.5t16.5 -79.5q-9 -44 -49 -77.5t-86 -33.5q-45 0 -70 33t-16 78zM459 1038q10 47 49.5 80t85.5 33t71 -33t15 -80q-9 -45 -48.5 -77.5t-84.5 -32.5t-71 32.5t-17 77.5z" />
<glyph unicode="&#xf8;" horiz-adv-x="1071" d="M61 438l58 273q44 212 170.5 332t328.5 120q81 0 152 -22l88 168h88l-104 -201q95 -55 133.5 -158t9.5 -239l-57 -273q-45 -217 -173 -337.5t-327 -120.5q-86 0 -160 22l-84 -164h-86l101 195q-94 57 -131 161t-7 244zM246 414q-29 -144 41 -211l401 776q-38 10 -76 10 q-112 0 -191 -66.5t-106 -189.5zM352 164q31 -10 82 -10q109 0 189.5 68t107.5 192l70 319q29 141 -45 209z" />
<glyph unicode="&#xf9;" horiz-adv-x="1093" d="M65 236q-20 80 1 178l157 737h191l-162 -764q-23 -111 38 -172t165 -61q103 0 181 62.5t101 170.5l162 764h193l-158 -737q-42 -201 -167.5 -317.5t-317.5 -116.5q-100 0 -180.5 31t-132 88t-71.5 137zM518 1622h184l80 -322h-131z" />
<glyph unicode="&#xfa;" horiz-adv-x="1093" d="M65 236q-20 80 1 178l157 737h191l-162 -764q-23 -111 38 -172t165 -61q103 0 181 62.5t101 170.5l162 764h193l-158 -737q-42 -201 -167.5 -317.5t-317.5 -116.5q-100 0 -180.5 31t-132 88t-71.5 137zM586 1303l213 321h209l-271 -321h-151z" />
<glyph unicode="&#xfb;" horiz-adv-x="1093" d="M65 236q-20 80 1 178l157 737h191l-162 -764q-23 -111 38 -172t165 -61q103 0 181 62.5t101 170.5l162 764h193l-158 -737q-42 -201 -167.5 -317.5t-317.5 -116.5q-100 0 -180.5 31t-132 88t-71.5 137zM328 1296l311 314h188l181 -314h-152l-139 193l-223 -193h-166z" />
<glyph unicode="&#xfc;" horiz-adv-x="1093" d="M65 236q-20 80 1 178l157 737h191l-162 -764q-23 -111 38 -172t165 -61q103 0 181 62.5t101 170.5l162 764h193l-158 -737q-42 -201 -167.5 -317.5t-317.5 -116.5q-100 0 -180.5 31t-132 88t-71.5 137zM428 1393q9 40 43 68t72 28q39 0 61 -28t14 -68q-7 -40 -41.5 -68.5 t-74.5 -28.5q-38 0 -60 28.5t-14 68.5zM776 1393q9 40 43 68t72 28q40 0 62 -28t14 -68q-7 -40 -42 -68.5t-75 -28.5q-38 0 -60 28.5t-14 68.5z" />
<glyph unicode="&#xfd;" horiz-adv-x="1054" d="M72 -385l223 391l-150 1145h201l92 -887l471 887h221l-856 -1536h-202zM541 1300l213 322h209l-271 -322h-151z" />
<glyph unicode="&#xfe;" horiz-adv-x="1114" d="M-82 -387l408 1927h190l-117 -551q113 176 310 176q179 0 267.5 -118.5t43.5 -327.5l-62 -287q-97 -450 -438 -450q-122 0 -204 51.5t-95 116.5l-115 -537h-188zM287 457q-32 -155 12.5 -236.5t161.5 -81.5q120 0 199.5 82t111.5 236l49 235q31 152 -12.5 233t-163.5 81 q-115 0 -196 -78.5t-111 -225.5z" />
<glyph unicode="&#xff;" horiz-adv-x="1054" d="M72 -385l223 391l-150 1145h201l92 -887l471 887h221l-856 -1536h-202zM397 1386q9 40 43 68.5t72 28.5q39 0 61.5 -28.5t14.5 -68.5q-7 -39 -42 -67.5t-75 -28.5q-38 0 -60 28t-14 68zM745 1386q9 40 43 68.5t72 28.5q39 0 61.5 -28.5t14.5 -68.5q-7 -39 -42 -67.5 t-75 -28.5q-38 0 -60 28t-14 68z" />
<glyph unicode="&#x152;" horiz-adv-x="1781" d="M84 494l100 473q45 212 178 346.5t328 134.5q226 0 328 -143l29 139h804l-41 -195h-602l-92 -434h438l-36 -178h-439l-94 -442h602l-41 -195h-805l29 139q-120 -141 -303 -141q-134 0 -232.5 65t-139 179t-11.5 252zM281 475q-31 -144 31 -222.5t186 -78.5q116 0 214 76 t130 223l106 502q31 144 -31 222.5t-186 78.5q-116 0 -214 -76t-130 -223z" />
<glyph unicode="&#x153;" horiz-adv-x="1736" d="M61 438l58 273q44 212 170.5 332t328.5 120q118 0 205 -55t109 -123q144 182 364 182q208 0 309.5 -118.5t57.5 -327.5l-41 -199h-676l-28 -129q-27 -119 28 -186.5t162 -67.5t186 59.5t101 155.5l4 19h190l-2 -8q-43 -169 -166.5 -277t-316.5 -108q-121 0 -203.5 52.5 t-112.5 125.5q-142 -178 -360 -178q-209 0 -310 123.5t-57 334.5zM246 414q-27 -125 24 -192.5t164 -67.5q108 0 189 67.5t108 192.5l70 319q27 121 -26 188.5t-163 67.5q-112 0 -191 -66.5t-106 -189.5zM975 662h485l17 71q31 138 -18.5 205.5t-166.5 67.5 q-113 0 -193 -66.5t-106 -189.5z" />
<glyph unicode="&#x178;" horiz-adv-x="1163" d="M203 1444h205l182 -709l487 709h228q-108 -149 -324.5 -458.5t-323.5 -459.5l-110 -526h-201l111 526zM512 1698q9 40 43 68t72 28q39 0 61 -28t14 -68q-7 -40 -41.5 -68t-74.5 -28q-38 0 -60 28t-14 68zM860 1698q9 40 43 68t72 28q40 0 62 -28t14 -68q-7 -39 -42 -67.5 t-75 -28.5q-38 0 -60 28t-14 68z" />
<glyph unicode="&#x2c6;" horiz-adv-x="1187" d="M375 1198l311 313h188l181 -313h-152l-139 193l-223 -193h-166z" />
<glyph unicode="&#x2dc;" horiz-adv-x="1183" d="M369 1188l32 151q106 64 199 64q56 0 147 -33t140 -33q94 0 211 72l-33 -152q-107 -69 -199 -69q-55 0 -143 36t-139 36q-98 0 -215 -72z" />
<glyph unicode="&#x2000;" horiz-adv-x="964" />
<glyph unicode="&#x2001;" horiz-adv-x="1929" />
<glyph unicode="&#x2002;" horiz-adv-x="964" />
<glyph unicode="&#x2003;" horiz-adv-x="1929" />
<glyph unicode="&#x2004;" horiz-adv-x="643" />
<glyph unicode="&#x2005;" horiz-adv-x="482" />
<glyph unicode="&#x2006;" horiz-adv-x="321" />
<glyph unicode="&#x2007;" horiz-adv-x="321" />
<glyph unicode="&#x2008;" horiz-adv-x="241" />
<glyph unicode="&#x2009;" horiz-adv-x="385" />
<glyph unicode="&#x200a;" horiz-adv-x="107" />
<glyph unicode="&#x2010;" horiz-adv-x="722" d="M66 504l32 153h539l-33 -153h-538z" />
<glyph unicode="&#x2011;" horiz-adv-x="722" d="M66 504l32 153h539l-33 -153h-538z" />
<glyph unicode="&#x2012;" horiz-adv-x="722" d="M66 504l32 153h539l-33 -153h-538z" />
<glyph unicode="&#x2013;" horiz-adv-x="866" d="M66 504l32 153h682l-32 -153h-682z" />
<glyph unicode="&#x2014;" horiz-adv-x="1118" d="M66 504l32 153h934l-33 -153h-933z" />
<glyph unicode="&#x2018;" horiz-adv-x="514" d="M72 774l411 672h154l-358 -672h-207z" />
<glyph unicode="&#x2019;" horiz-adv-x="503" d="M82 774l356 672h209l-414 -672h-151z" />
<glyph unicode="&#x201a;" horiz-adv-x="503" d="M-176 -258l350 661h209l-408 -661h-151z" />
<glyph unicode="&#x201c;" horiz-adv-x="874" d="M72 774l411 672h154l-358 -672h-207zM432 774l412 672h153l-358 -672h-207z" />
<glyph unicode="&#x201d;" horiz-adv-x="864" d="M82 774l356 672h209l-414 -672h-151zM442 774l357 672h209l-414 -672h-152z" />
<glyph unicode="&#x201e;" horiz-adv-x="864" d="M-178 -268l350 661h209l-408 -661h-151zM180 -268l352 661h209l-409 -661h-152z" />
<glyph unicode="&#x2022;" horiz-adv-x="1013" d="M106 598l3 12q32 190 163 302t320 112q182 0 260 -110t45 -304l-2 -12q-32 -194 -164 -306t-319 -112q-186 0 -262.5 109t-43.5 309z" />
<glyph unicode="&#x2026;" horiz-adv-x="1296" d="M-16 106q11 52 52 87.5t91 35.5q51 0 79 -36t17 -87q-11 -50 -53.5 -85t-93.5 -35q-50 0 -76.5 35t-15.5 85zM416 106q10 51 52.5 87t92.5 36q51 0 79.5 -36t18.5 -87q-11 -50 -54.5 -85t-94.5 -35q-49 0 -77 35t-17 85zM852 106q11 51 52.5 87t92.5 36t79.5 -36 t17.5 -87q-11 -50 -54 -85t-94 -35t-78 35t-16 85z" />
<glyph unicode="&#x202f;" horiz-adv-x="385" />
<glyph unicode="&#x2039;" horiz-adv-x="602" d="M82 586l354 415h152l-301 -432l125 -397h-144z" />
<glyph unicode="&#x203a;" horiz-adv-x="602" d="M-6 172l301 432l-125 397h143l187 -413l-355 -416h-151z" />
<glyph unicode="&#x205f;" horiz-adv-x="482" />
<glyph unicode="&#x20ac;" horiz-adv-x="1255" d="M57 567l19 84h127l28 137h-127l19 84h127l20 97q48 225 198.5 363t360.5 138q230 0 339.5 -151.5t58.5 -392.5h-201q35 172 -25.5 261t-181.5 89t-218 -79t-128 -222l-22 -103h286l-18 -84h-287l-29 -137h287l-18 -84h-287l-20 -98q-31 -148 30 -227.5t185 -79.5 q78 0 142 31t106 84t69 111.5t41 123.5h201q-53 -244 -199 -390.5t-367 -146.5q-142 0 -245 63t-147 177.5t-15 259.5l18 92h-127z" />
<glyph unicode="&#x2122;" horiz-adv-x="1527" d="M240 1323l24 121h488l-25 -121h-182l-133 -623h-125l133 623h-180zM684 700l158 744h116l129 -486l332 486h127l-157 -744h-125l98 463l-260 -372h-88l-105 372l-98 -463h-127z" />
<glyph unicode="&#x25fc;" horiz-adv-x="1146" d="M0 0v1147h1147v-1147h-1147z" />
<glyph unicode="&#xfb01;" horiz-adv-x="1038" d="M63 0l209 983h-125l35 166h125l8 43q35 184 135.5 279.5t280.5 95.5q158 0 249 -75.5t64 -203.5h-190q8 37 -22 67.5t-109 30.5q-101 0 -147.5 -42.5t-69.5 -161.5l-6 -33h162l-35 -166h-162l-209 -983h-193zM582 0l243 1151h191l-244 -1151h-190z" />
<glyph unicode="&#xfb02;" horiz-adv-x="1038" d="M63 0l209 983h-125l35 166h125l8 43q33 177 136 276t268 99q172 0 257.5 -101t47.5 -278l-252 -1188h-192l251 1192q20 96 -8.5 143t-111.5 47q-86 0 -134 -47.5t-71 -156.5l-6 -29h162l-35 -166h-162l-209 -983h-193z" />
</font>
</defs>
</svg>
