<?xml version="1.0" standalone="no"?>
<!DOCTYPE svg PUBLIC "-//W3C//DTD SVG 1.1//EN" "http://www.w3.org/Graphics/SVG/1.1/DTD/svg11.dtd" >
<svg xmlns="http://www.w3.org/2000/svg">
<metadata></metadata>
<defs>
<font id="bnkorolevbold" horiz-adv-x="1155" >
<font-face units-per-em="2048" ascent="1536" descent="-512" />
<missing-glyph horiz-adv-x="454" />
<glyph horiz-adv-x="0" />
<glyph horiz-adv-x="682" />
<glyph unicode=" "  horiz-adv-x="454" />
<glyph unicode="&#x09;" horiz-adv-x="454" />
<glyph unicode="&#xa0;" horiz-adv-x="454" />
<glyph unicode="!" horiz-adv-x="557" d="M72 145q0 67 49 115.5t115 48.5q69 0 117 -48t48 -116q0 -67 -48 -114t-117 -47q-67 0 -115.5 47t-48.5 114zM74 1298q0 69 44.5 114.5t117.5 45.5q75 0 118 -45t43 -115q0 -44 -24 -208l-103 -646h-69l-101 646q-3 21 -9 57.5t-9 56.5t-5.5 46.5t-2.5 47.5z" />
<glyph unicode="&#x22;" horiz-adv-x="901" d="M92 1444h291l-41 -682h-207zM520 1444h289l-43 -682h-207z" />
<glyph unicode="#" horiz-adv-x="1460" d="M102 387v244h224l49 186h-273v244h336l133 493h258l-133 -493h199l133 493h258l-131 -493h160v-244h-225l-50 -186h275v-244h-338l-129 -491h-258l127 491h-197l-129 -491h-258l127 491h-158zM584 631h198l49 186h-198z" />
<glyph unicode="$" horiz-adv-x="1112" d="M61 475h283q0 -105 42.5 -163t119.5 -70v370q-161 52 -231 93q-176 101 -193 295q-2 23 -2 47q0 184 115.5 296.5t310.5 124.5v148h104v-148q188 -19 302 -148t114 -333h-278q0 182 -138 219v-360q5 -2 16 -5q43 -13 65.5 -20.5t64 -23t65 -28t58 -33.5t55 -41.5t44 -51 t36.5 -63t21.5 -75.5t8.5 -91q0 -190 -117.5 -306t-316.5 -131v-143h-104v143q-202 15 -323.5 148.5t-121.5 349.5zM362 1047q0 -59 37 -97t107 -67v327q-144 -22 -144 -163zM610 242q71 13 111.5 55.5t40.5 114.5q0 58 -38.5 95t-113.5 68v-333z" />
<glyph unicode="%" horiz-adv-x="2373" d="M82 932v82q0 208 109 329t303 121q192 0 301.5 -121.5t109.5 -328.5v-82q0 -213 -109 -335t-302 -122q-195 0 -303.5 121.5t-108.5 335.5zM338 926q0 -211 156 -211q157 0 157 211v88q0 211 -157 211q-156 0 -156 -211v-88zM834 -104q70 277 208 829.5t209 828.5h258 l-417 -1658h-258zM1436 438v84q0 208 108.5 329.5t302.5 121.5q191 0 302.5 -122.5t111.5 -328.5v-84q0 -211 -111 -332.5t-303 -121.5q-195 0 -303 121t-108 333zM1690 434q0 -112 39.5 -161.5t117.5 -49.5q158 0 158 211v88q0 211 -158 211q-157 0 -157 -211v-88z" />
<glyph unicode="&#x26;" horiz-adv-x="1296" d="M72 428q0 124 65 205.5t154 107.5q-90 36 -142.5 119.5t-52.5 200.5q0 176 134 292.5t343 116.5q211 0 344.5 -132.5t133.5 -348.5h-281q0 112 -53 164.5t-142 52.5q-82 0 -140 -40.5t-58 -125.5q0 -86 55 -138t150 -52h84v-244h-93q-109 0 -163 -46.5t-54 -125.5 q0 -96 66.5 -143t163.5 -47q34 0 66 7t64.5 25.5t56.5 46t39 71.5t15 100v356h410v-258h-131q0 -325 -135 -473t-387 -148q-246 0 -379 123t-133 334z" />
<glyph unicode="'" horiz-adv-x="475" d="M92 1444h291l-43 -682h-207z" />
<glyph unicode="(" horiz-adv-x="638" d="M92 367v714q0 127 22 212.5t75 145t140.5 86.5t217.5 27v-241q-111 0 -148 -38.5t-37 -135.5v-826q0 -99 35.5 -136.5t149.5 -37.5v-241q-130 0 -217.5 27t-140.5 86.5t-75 145t-22 212.5z" />
<glyph unicode=")" horiz-adv-x="638" d="M72 -104v241q59 0 95.5 9t56 31.5t26 53t6.5 80.5v826q0 97 -36.5 135.5t-147.5 38.5v241q130 0 217.5 -27t140 -86.5t74.5 -145t22 -212.5v-714q0 -127 -22 -212.5t-74.5 -145t-140 -86.5t-217.5 -27z" />
<glyph unicode="*" horiz-adv-x="1132" d="M119 905l246 131l-246 127l96 162l242 -143l-6 278h192l-12 -276l241 139l103 -160l-252 -127l252 -129l-103 -159l-241 141l12 -266h-192l6 266l-242 -141z" />
<glyph unicode="+" horiz-adv-x="1132" d="M92 602v244h320v319h245v-319h320v-244h-320v-321h-245v321h-320z" />
<glyph unicode="," horiz-adv-x="573" d="M-10 -264l186 663h291l-270 -663h-207z" />
<glyph unicode="-" horiz-adv-x="696" d="M72 477v211h549v-211h-549z" />
<glyph unicode="." horiz-adv-x="491" d="M82 145q0 67 48 115.5t116 48.5q69 0 116.5 -48t47.5 -116t-47.5 -114.5t-116.5 -46.5q-68 0 -116 47t-48 114z" />
<glyph unicode="/" horiz-adv-x="808" d="M10 -104l434 1658h275q-73 -276 -218 -828.5t-218 -829.5h-273z" />
<glyph unicode="0" d="M92 477v492q0 221 135.5 361t350.5 140q214 0 349.5 -140t135.5 -361v-492q0 -220 -135.5 -358.5t-349.5 -138.5q-215 0 -350.5 138.5t-135.5 358.5zM377 492q0 -129 55 -185.5t146 -56.5q89 0 145.5 56t56.5 183v467q0 129 -55.5 185.5t-146.5 56.5q-201 0 -201 -242 v-464z" />
<glyph unicode="1" horiz-adv-x="667" d="M72 1032v273q114 0 152 28t38 111h262v-1444h-284v1053q-62 -21 -168 -21z" />
<glyph unicode="2" horiz-adv-x="1116" d="M72 0v217q0 106 37.5 189.5t97 136.5t131.5 97t144 80.5t131.5 75t97 94t37.5 124.5q0 89 -59 139.5t-140 50.5q-87 0 -143 -57t-56 -158h-278q0 216 133 348.5t342 132.5q213 0 346 -126t133 -328q0 -79 -22.5 -146.5t-61 -116t-88.5 -90t-105 -73t-110.5 -60.5 t-105.5 -57t-89 -57t-63 -66t-25 -80h652v-270h-936z" />
<glyph unicode="3" horiz-adv-x="1132" d="M72 477q47 0 142 -1t142 -1q0 -119 61.5 -174t157.5 -55q90 0 147.5 46t57.5 142q0 86 -56 129t-161 43h-166v242h59.5t57 2t56.5 5t50 9t47 15t37.5 22.5t30.5 31t17.5 42t7.5 53.5q0 92 -56 138t-145 46q-95 0 -146 -59.5t-51 -163.5h-278q0 218 130.5 349.5 t346.5 131.5q209 0 343 -116.5t134 -292.5q0 -118 -52 -201t-144 -119q92 -26 156.5 -103.5t64.5 -201.5q0 -208 -137.5 -333.5t-358.5 -125.5q-220 0 -357.5 135t-137.5 365z" />
<glyph unicode="4" horiz-adv-x="1150" d="M51 313v258l613 873h272v-873h156v-258h-156v-313h-274v313h-611zM313 571h349v502z" />
<glyph unicode="5" horiz-adv-x="1144" d="M82 475h283q0 -223 208 -223q85 0 141 62t56 155v59q0 86 -55.5 143.5t-149.5 57.5q-41 0 -73 -10.5t-54 -30t-34.5 -36t-26.5 -40.5l-271 60l138 772h737v-270h-508q-37 -191 -53 -285q22 26 82 51t137 25q190 0 302 -111t112 -326v-63q0 -219 -135 -353.5t-351 -134.5 q-215 0 -350 139t-135 359z" />
<glyph unicode="6" horiz-adv-x="1112" d="M72 473v66q0 207 118 434l250 471h305l-243 -440q44 8 96 8q209 0 325.5 -120.5t116.5 -336.5v-82q0 -221 -134 -358.5t-349 -137.5q-219 0 -352 137t-133 359zM356 492q0 -137 51.5 -190.5t149.5 -53.5q94 0 147.5 54t53.5 190v73q0 114 -55 165.5t-146 51.5 q-201 0 -201 -217v-73z" />
<glyph unicode="7" horiz-adv-x="978" d="M72 1171v273h876l-459 -1444h-282l381 1171h-516z" />
<glyph unicode="8" horiz-adv-x="1132" d="M72 387q0 116 53 199t151 123q-180 94 -180 333q0 185 129.5 293.5t341.5 108.5q210 0 340.5 -109t130.5 -295q0 -243 -178 -331q99 -40 151 -123t52 -199q0 -188 -138.5 -300t-357.5 -112q-222 0 -358.5 111.5t-136.5 300.5zM362 416q0 -185 205 -185q207 0 207 193 q0 182 -178 182h-66q-78 0 -123 -46t-45 -144zM373 1006q0 -106 50 -144.5t144 -38.5q93 0 145 39t52 139q0 187 -197 187q-194 0 -194 -182z" />
<glyph unicode="9" horiz-adv-x="1112" d="M72 889v80q0 223 133.5 360t351.5 137t350.5 -137t132.5 -360v-70q0 -204 -116 -424l-252 -475h-303q145 262 239 440q-44 -8 -102 -8q-205 0 -319.5 122t-114.5 335zM356 879q0 -215 201 -215t201 215v92q0 120 -55 172.5t-146 52.5q-201 0 -201 -225v-92z" />
<glyph unicode=":" horiz-adv-x="505" d="M82 145q0 67 48 115.5t116 48.5q69 0 116.5 -48t47.5 -116t-47.5 -114.5t-116.5 -46.5q-68 0 -116 47t-48 114zM82 997q0 67 48 115.5t116 48.5q69 0 116.5 -48t47.5 -116q0 -66 -47.5 -113.5t-116.5 -47.5q-67 0 -115.5 47.5t-48.5 113.5z" />
<glyph unicode=";" horiz-adv-x="565" d="M-10 -264l186 663h291l-270 -663h-207zM125 997q0 68 47.5 116t114.5 48q69 0 117.5 -48t48.5 -116q0 -66 -48.5 -113.5t-117.5 -47.5q-67 0 -114.5 47.5t-47.5 113.5z" />
<glyph unicode="&#x3c;" horiz-adv-x="919" d="M92 461v254l737 315v-258q-231 -85 -491 -186l491 -185v-256q-123 53 -368.5 158t-368.5 158z" />
<glyph unicode="=" horiz-adv-x="1050" d="M92 391v244h811v-244h-811zM92 813v244h811v-244h-811z" />
<glyph unicode="&#x3e;" horiz-adv-x="919" d="M92 145v256l488 185l-488 186v258l737 -313v-254q-123 -53 -368.5 -159t-368.5 -159z" />
<glyph unicode="?" horiz-adv-x="1034" d="M31 989q0 228 126.5 354.5t348.5 126.5q209 0 343 -113.5t134 -281.5q0 -72 -17 -130.5t-45.5 -97t-65.5 -69t-78 -52.5t-82 -41.5t-78 -41.5t-65.5 -47.5t-45.5 -64t-17 -87.5h-75q-25 80 -25 134q0 57 17.5 102.5t45 75t61 55t66.5 47.5t60.5 46.5t45 59.5t17.5 78 q0 76 -54.5 119t-141.5 43q-199 0 -199 -215h-276zM289 145q0 67 49 115.5t117 48.5q69 0 116 -48t47 -116q0 -67 -47 -113t-116 -46q-68 0 -117 46t-49 113z" />
<glyph unicode="@" horiz-adv-x="1308" d="M115 528v383q0 258 149.5 406.5t394.5 148.5q246 0 392.5 -148.5t146.5 -406.5v-389q0 -69 -17.5 -119t-43.5 -76.5t-69 -41.5t-79.5 -19t-89.5 -4h-123v86q-16 -32 -62.5 -64t-119.5 -32q-122 0 -180 75t-58 248v308q0 154 63 228.5t175 74.5q73 0 120 -32.5t62 -66.5 v89h180v-807q74 0 106 31.5t32 121.5v389q0 211 -119 332t-316 121q-198 0 -320 -121.5t-122 -331.5v-383q0 -212 131 -328t361 -116h381v-102h-381q-277 0 -435.5 143.5t-158.5 402.5zM551 567q0 -149 106 -149q109 0 109 149v303q0 71 -28.5 109.5t-80.5 38.5 q-106 0 -106 -148v-303z" />
<glyph unicode="A" horiz-adv-x="1165" d="M10 0l424 1444h309l418 -1444h-289l-75 285h-420l-80 -285h-287zM436 528h301l-147 566z" />
<glyph unicode="B" horiz-adv-x="1157" d="M135 0v1444h443q221 0 350 -99.5t129 -293.5v-21q0 -227 -183 -305q197 -85 197 -311v-19q0 -194 -129 -294.5t-350 -100.5h-457zM418 268h164q45 0 79.5 7t65.5 24t47.5 51.5t16.5 85.5v23q0 44 -17 75.5t-46.5 48.5t-62.5 24t-73 7h-174v-346zM418 834h174 q184 0 184 163v23q0 154 -209 154h-149v-340z" />
<glyph unicode="C" horiz-adv-x="1132" d="M92 477v496q0 220 135.5 358.5t350.5 138.5q237 0 361 -144.5t124 -401.5h-283v20q0 256 -202 256q-84 0 -142.5 -52t-58.5 -167v-512q0 -117 58 -169t143 -52q103 0 152.5 61t49.5 213v19h283q0 -564 -485 -564q-215 0 -350.5 139.5t-135.5 360.5z" />
<glyph unicode="D" horiz-adv-x="1198" d="M135 0v1444h475q222 0 354 -136t132 -393v-380q0 -255 -132.5 -395t-353.5 -140h-475zM418 268h160q44 0 77 7.5t64.5 29.5t51.5 58.5t32 97t12 143.5v281q0 64 -10 112t-34.5 90t-73 64.5t-119.5 22.5h-160v-906z" />
<glyph unicode="E" horiz-adv-x="1030" d="M135 0v1444h811v-273h-528v-327h391v-246h-391v-328h528v-270h-811z" />
<glyph unicode="F" horiz-adv-x="978" d="M135 4v1440h778v-273h-495v-327h362v-246h-362v-594h-283z" />
<glyph unicode="G" horiz-adv-x="1153" d="M92 477v494q0 221 134.5 360t348.5 139q212 0 346.5 -135.5t139.5 -351.5h-283q0 111 -52.5 164t-145.5 53q-100 0 -151.5 -59.5t-51.5 -198.5v-475q0 -108 52 -162.5t146 -54.5q87 0 145 52.5t58 164.5v25h-200v247h483v-262q0 -221 -135 -359t-351 -138 q-214 0 -348.5 138t-134.5 359z" />
<glyph unicode="H" horiz-adv-x="1224" d="M135 0v1444h283v-600h381v600h282v-1444h-282v598h-381v-598h-283z" />
<glyph unicode="I" horiz-adv-x="573" d="M145 0v1444h283v-1444h-283z" />
<glyph unicode="J" horiz-adv-x="1132" d="M51 475v64h285v-74q0 -62 16.5 -106t45 -67.5t60 -33.5t68.5 -10q67 0 107 25t62 95.5t22 194.5v881h284v-969q0 -222 -130.5 -360t-344.5 -138t-344.5 138t-130.5 360z" />
<glyph unicode="K" horiz-adv-x="1185" d="M135 0v1444h283v-594h106l287 594h317l-360 -717l360 -727h-317l-287 600h-106v-600h-283z" />
<glyph unicode="L" horiz-adv-x="929" d="M135 0v1444h283v-1174h479v-270h-762z" />
<glyph unicode="M" horiz-adv-x="1476" d="M135 0v1444h281l323 -801l322 801h280v-1444h-282v813l-225 -543h-193l-223 539v-809h-283z" />
<glyph unicode="N" horiz-adv-x="1243" d="M135 0v1444h266l424 -840v836h285v-1440h-266l-426 836v-836h-283z" />
<glyph unicode="O" d="M92 477v492q0 221 135.5 361t350.5 140q214 0 349.5 -140t135.5 -361v-492q0 -220 -135.5 -358.5t-349.5 -138.5q-215 0 -350.5 138.5t-135.5 358.5zM377 469q0 -114 56.5 -166.5t144.5 -52.5q84 0 143 51.5t59 165.5v512q0 114 -57 167.5t-145 53.5q-86 0 -143.5 -52 t-57.5 -167v-512z" />
<glyph unicode="P" horiz-adv-x="1165" d="M135 0v1444h453q219 0 354 -138t135 -386v-58q0 -248 -134.5 -383t-354.5 -135h-170v-344h-283zM418 612h141q49 0 90 12.5t76 40t54.5 78.5t19.5 121v54q0 76 -20 129t-56 79.5t-75.5 37t-88.5 10.5h-141v-562z" />
<glyph unicode="Q" d="M92 469v500q0 221 136 361t350 140q215 0 350 -139.5t135 -361.5v-500q0 -177 -91 -304t-243 -167l168 -277h-293l-151 271q-164 36 -262.5 164t-98.5 313zM377 508q0 -145 52.5 -204.5t148.5 -59.5q202 0 202 262v430q0 264 -202 264q-86 0 -143.5 -52t-57.5 -167v-473z " />
<glyph unicode="R" horiz-adv-x="1167" d="M135 0v1444h459q221 0 352 -137t131 -385v-41q0 -164 -66 -276.5t-186 -166.5l244 -438h-309l-195 373h-147v-373h-283zM418 641h141q49 0 89.5 12t75 38.5t54 75.5t19.5 118v41q0 72 -18.5 122.5t-53.5 77t-75 37.5t-91 11h-141v-533z" />
<glyph unicode="S" horiz-adv-x="1112" d="M61 475h283q0 -121 56 -179t155 -58q94 0 150.5 44t56.5 130q0 44 -23.5 77t-63 55t-90.5 40.5t-107.5 37t-113 40t-107.5 54.5t-90.5 75.5t-63 108t-23.5 147.5q0 196 129 309.5t346 113.5q211 0 341 -131t130 -352h-278q0 113 -52 169t-145 56q-91 0 -140 -42t-49 -123 q0 -46 23.5 -80t63 -56.5t90.5 -40.5t107.5 -35.5t113 -38.5t107.5 -53t90.5 -74t63 -107t23.5 -148q0 -204 -133.5 -321.5t-355.5 -117.5t-358 135t-136 365z" />
<glyph unicode="T" horiz-adv-x="946" d="M41 1171v273h885v-273h-301v-1171h-283v1171h-301z" />
<glyph unicode="U" horiz-adv-x="1196" d="M115 477v967h282v-977q0 -113 55.5 -166t145.5 -53q87 0 145 53.5t58 165.5v977h282v-967q0 -228 -134.5 -362.5t-350.5 -134.5q-217 0 -350 134t-133 363z" />
<glyph unicode="V" horiz-adv-x="1073" d="M10 1444h289l248 -1000l248 1000h288l-389 -1444h-297q-58 213 -123 456t-142 532.5t-122 455.5z" />
<glyph unicode="W" horiz-adv-x="1667" d="M10 1444h283l211 -942q76 342 203 942h254q143 -678 202 -942l211 942h285l-340 -1444h-289l-196 915l-197 -915h-289z" />
<glyph unicode="X" horiz-adv-x="1122" d="M10 0l393 741l-374 703h307l221 -436l221 436h303l-374 -703l395 -741h-301l-244 481l-244 -481h-303z" />
<glyph unicode="Y" horiz-adv-x="1114" d="M10 1444h295l256 -610l258 610h293l-412 -924v-520h-282v520z" />
<glyph unicode="Z" horiz-adv-x="958" d="M31 0q83 194 247.5 585t247.5 586h-446v273h835l-495 -1174h487v-270h-876z" />
<glyph unicode="[" horiz-adv-x="720" d="M135 -102v1654h473v-241h-205v-1174h205v-239h-473z" />
<glyph unicode="\" horiz-adv-x="808" d="M10 1554h273q73 -276 218 -829t218 -829h-275z" />
<glyph unicode="]" horiz-adv-x="720" d="M72 -102v239h204v1174h-204v241h475v-1654h-475z" />
<glyph unicode="^" horiz-adv-x="1034" d="M72 721l317 723h256q54 -120 159.5 -361.5t160.5 -361.5h-263q-117 311 -188 485l-184 -485h-258z" />
<glyph unicode="_" horiz-adv-x="1087" d="M72 -133h944v-211h-944v211z" />
<glyph unicode="`" d="M238 1511h290l131 -321h-208z" />
<glyph unicode="a" horiz-adv-x="1064" d="M82 408v333q0 214 92 319t252 105q59 0 111 -16.5t84.5 -41.5t52 -46.5t26.5 -38.5v129h254v-1151h-254v127q-7 -17 -26.5 -39.5t-52 -47.5t-84 -41.5t-111.5 -16.5q-161 0 -252.5 106t-91.5 320zM354 428q0 -104 44 -155.5t122 -51.5q76 0 120 52t44 155v297 q0 100 -45 150.5t-119 50.5q-78 0 -122 -51t-44 -154v-293z" />
<glyph unicode="b" horiz-adv-x="1064" d="M115 0v1546h268v-499q3 5 9.5 12.5t29.5 27.5t50.5 35.5t73 28t95.5 12.5q163 0 254.5 -104.5t91.5 -317.5v-335q0 -214 -91.5 -319t-254.5 -105q-59 0 -110.5 16.5t-84 41t-52.5 46.5t-27 39v-125h-252zM383 426q0 -102 45 -154.5t121 -52.5t121 52.5t45 154.5v293 q0 101 -44.5 153t-121.5 52q-75 0 -120.5 -50t-45.5 -149v-299z" />
<glyph unicode="c" horiz-adv-x="1024" d="M82 430v279q0 212 115 334t323 122q213 0 323.5 -123t110.5 -350h-270q0 230 -164 230q-168 0 -168 -199v-270q0 -232 168 -232q75 0 119.5 56t44.5 169h270q0 -221 -111.5 -343.5t-322.5 -122.5q-207 0 -322.5 120.5t-115.5 329.5z" />
<glyph unicode="d" horiz-adv-x="1064" d="M82 406v335q0 213 91.5 317.5t254.5 104.5q50 0 95 -12t72.5 -29t48.5 -34t30 -29l8 -12v499h274v-1546h-254v125q-7 -17 -27 -39t-52.5 -46.5t-84 -41t-110.5 -16.5q-163 0 -254.5 105t-91.5 319zM354 426q0 -103 45 -155t123 -52q75 0 119.5 52.5t44.5 154.5v299 q0 99 -45 149t-119 50q-79 0 -123.5 -51.5t-44.5 -153.5v-293z" />
<glyph unicode="e" horiz-adv-x="1024" d="M82 430v281q0 212 115 333t323 121q205 0 319.5 -116.5t114.5 -327.5v-225h-602v-125q0 -74 50.5 -123t117.5 -49q71 0 117.5 38.5t46.5 106.5v25h270v-9q0 -163 -117.5 -271.5t-316.5 -108.5q-207 0 -322.5 120.5t-115.5 329.5zM352 684h332v55q0 110 -42 157.5 t-122 47.5q-76 0 -122 -44t-46 -132v-84z" />
<glyph unicode="f" horiz-adv-x="704" d="M51 913v236h117q2 217 85.5 310t287.5 93q33 0 102 -6v-231q-38 6 -68 6q-62 0 -93 -25q-44 -38 -44 -147h203v-236h-203v-913h-270v913h-117z" />
<glyph unicode="g" horiz-adv-x="1064" d="M82 408v333q0 211 89.5 316.5t246.5 105.5q112 0 188 -47.5t94 -93.5v129h254v-1165q0 -108 -21 -184t-69.5 -132t-133 -83t-208.5 -27q-98 0 -173.5 19t-122.5 51t-77 77.5t-41.5 93t-11.5 103.5h262q0 -62 41.5 -98.5t122.5 -36.5q162 0 162 157v201q-6 -14 -16.5 -30 t-32.5 -37t-49.5 -37t-69.5 -27.5t-90 -11.5q-161 0 -252.5 105t-91.5 319zM354 459q0 -129 39.5 -185.5t126.5 -56.5q82 0 123 56t41 182v252q0 116 -42 167.5t-122 51.5q-78 0 -122 -51t-44 -154v-262z" />
<glyph unicode="h" horiz-adv-x="1075" d="M115 0v1546h268v-506q3 5 10 13.5t31 30t52 38t74.5 30t98.5 13.5q155 0 246.5 -97.5t91.5 -315.5v-752h-272v649q0 150 -34 212.5t-132 62.5q-87 0 -126.5 -48.5t-39.5 -158.5v-717h-268z" />
<glyph unicode="i" horiz-adv-x="512" d="M92 1452q0 68 48 116t116 48q69 0 116.5 -48t47.5 -116t-47.5 -115t-116.5 -47q-68 0 -116 47.5t-48 114.5zM121 0v1151h268v-1151h-268z" />
<glyph unicode="j" horiz-adv-x="520" d="M-16 -190q74 0 108.5 37.5t34.5 136.5v1167h268v-1112q0 -241 -97 -356t-314 -115v242zM96 1452q0 68 48 116t116 48q69 0 117.5 -48t48.5 -116q0 -67 -48.5 -114.5t-117.5 -47.5q-68 0 -116 47.5t-48 114.5z" />
<glyph unicode="k" horiz-adv-x="1069" d="M115 0v1546h270v-862h90l232 467h307l-316 -573q298 -543 318 -578h-307q-195 385 -234 463h-90v-463h-270z" />
<glyph unicode="l" horiz-adv-x="520" d="M125 0v1546h270v-1546h-270z" />
<glyph unicode="m" horiz-adv-x="1566" d="M115 0v1151h252v-119q7 16 22 34.5t42.5 42t73.5 39t101 15.5q194 0 273 -157q32 62 105.5 109.5t180.5 47.5q308 0 308 -403v-760h-271v770q0 82 -37.5 120t-99.5 38q-58 0 -97.5 -38.5t-39.5 -115.5v-774h-271v770q0 81 -37 119.5t-100 38.5q-59 0 -98 -38t-39 -116 v-774h-268z" />
<glyph unicode="n" horiz-adv-x="1075" d="M115 0v1151h252v-131q7 17 26.5 38.5t52.5 46.5t84.5 41.5t110.5 16.5q163 0 254.5 -104.5t91.5 -317.5v-741h-272v721q0 203 -166 203q-85 0 -125.5 -49t-40.5 -158v-717h-268z" />
<glyph unicode="o" horiz-adv-x="1032" d="M80 436v277q0 207 115 328.5t321 121.5q202 0 319 -122t117 -328v-277q0 -213 -116 -334.5t-320 -121.5q-208 0 -322 121t-114 335zM350 397q0 -88 46 -133t120 -45q72 0 119 45t47 133v348q0 88 -46.5 132.5t-119.5 44.5q-75 0 -120.5 -44.5t-45.5 -132.5v-348z" />
<glyph unicode="p" horiz-adv-x="1075" d="M115 -395v1546h252v-125q7 17 27 39t52.5 46.5t84 41t110.5 16.5q163 0 254.5 -105t91.5 -319v-335q0 -213 -91.5 -317.5t-254.5 -104.5q-50 0 -95 12t-72.5 29t-48.5 34t-29 29l-9 12v-499h-272zM383 426q0 -99 45.5 -149t120.5 -50q77 0 121.5 52t44.5 153v293 q0 102 -45 154.5t-121 52.5t-121 -52.5t-45 -154.5v-299z" />
<glyph unicode="q" horiz-adv-x="1075" d="M90 410v335q0 214 91.5 319t254.5 105q59 0 111 -16.5t84.5 -41t52.5 -46.5t27 -39v125h254v-1546h-275v499q-3 -5 -9 -12.5t-28.5 -27.5t-49 -35.5t-72 -28t-95.5 -12.5q-163 0 -254.5 104.5t-91.5 317.5zM362 432q0 -102 44.5 -153.5t123.5 -51.5q74 0 119 50t45 149 v299q0 102 -44.5 154.5t-119.5 52.5q-78 0 -123 -52t-45 -155v-293z" />
<glyph unicode="r" horiz-adv-x="739" d="M115 0v1151h252v-156q25 91 113 136q69 35 146 35q23 0 46 -3v-264q-23 2 -43 2q-118 0 -177 -58q-69 -68 -69 -210v-633h-268z" />
<glyph unicode="s" horiz-adv-x="1013" d="M61 381h271q0 -91 48.5 -135.5t129.5 -44.5q75 0 119.5 35.5t44.5 87.5q0 40 -32.5 69.5t-84 48.5t-114 37.5t-125 45t-114 63t-84 98.5t-32.5 145q0 158 109 249t301 91q213 0 324.5 -99t111.5 -294h-264q0 91 -44 127.5t-126 36.5q-69 0 -107.5 -29.5t-38.5 -81.5 q0 -38 25.5 -67t67 -47t94.5 -36.5t109 -35t109 -44t94.5 -61.5t67 -90.5t25.5 -127.5q0 -168 -112.5 -258.5t-323.5 -90.5q-208 0 -328.5 108.5t-120.5 299.5z" />
<glyph unicode="t" horiz-adv-x="727" d="M51 1130q114 0 158.5 55.5t44.5 198.5h180v-235h213v-236h-213v-493q0 -106 29.5 -150.5t122.5 -44.5q40 0 65 4v-239q-53 -6 -96 -6q-115 0 -192.5 28.5t-120 88t-59.5 137t-17 188.5v487h-113q0 37 -1 108.5t-1 108.5z" />
<glyph unicode="u" horiz-adv-x="1054" d="M92 424v727h270v-766q0 -82 50.5 -124t117.5 -42q60 0 112 42t52 124v766h273v-727q0 -204 -118.5 -324t-318.5 -120q-206 0 -322 119.5t-116 324.5z" />
<glyph unicode="v" horiz-adv-x="1003" d="M10 1151h289l203 -760l200 760h291l-348 -1151h-287z" />
<glyph unicode="w" horiz-adv-x="1488" d="M10 1151h277l170 -723l170 723h235l170 -725l174 725h275l-303 -1151h-271l-162 696l-163 -696h-269z" />
<glyph unicode="x" horiz-adv-x="1077" d="M20 0l361 592l-340 559h305l184 -334l181 334h307l-340 -559l360 -592h-301l-209 371l-206 -371h-302z" />
<glyph unicode="y" horiz-adv-x="1001" d="M10 1151h289l205 -745l205 745h288q-93 -300 -265 -852t-216 -692h-274l125 395z" />
<glyph unicode="z" horiz-adv-x="878" d="M31 0l428 909h-387v242h768l-428 -911h413v-240h-794z" />
<glyph unicode="{" horiz-adv-x="727" d="M51 608v226q73 0 98 26t25 92v129q0 250 100.5 360.5t341.5 110.5v-241q-104 0 -139 -48t-35 -159q0 -73 -6 -130.5t-20.5 -112t-43.5 -91t-71 -51.5q69 -28 105 -114.5t36 -198.5q0 -54 2.5 -89t12.5 -73.5t28.5 -60.5t51 -36t79.5 -14v-239q-241 0 -341.5 109.5 t-100.5 358.5v130q0 65 -24.5 90.5t-98.5 25.5z" />
<glyph unicode="|" horiz-adv-x="520" d="M125 -104v1658h270v-1658h-270z" />
<glyph unicode="}" horiz-adv-x="727" d="M72 -106v239q86 0 126.5 28t43.5 91l6 162q11 252 139 305q-68 24 -104.5 112.5t-36.5 206.5q0 52 -2.5 86t-12.5 73t-28 61.5t-51 37.5t-80 15v241q241 0 341.5 -110.5t100.5 -360.5v-129q0 -66 24.5 -92t98.5 -26v-226q-69 0 -96 -27.5t-27 -88.5v-130 q0 -249 -100.5 -358.5t-341.5 -109.5z" />
<glyph unicode="&#xa1;" horiz-adv-x="491" d="M82 141q0 27 4 59t12.5 79t12.5 73l98 645h70l102 -645q25 -171 25 -211q0 -68 -43.5 -112.5t-118.5 -44.5q-72 0 -117 45t-45 112zM82 1296q0 66 48.5 114t115.5 48q68 0 116 -48t48 -114q0 -68 -47.5 -115.5t-116.5 -47.5q-68 0 -116 48t-48 115z" />
<glyph unicode="&#xa2;" horiz-adv-x="1024" d="M82 430v279q0 197 100.5 317t282.5 137v146h104v-146q189 -13 287 -135.5t98 -335.5h-270q0 191 -115 223v-688q115 38 115 219h270q0 -208 -99 -329.5t-286 -134.5v-148h-104v148q-182 17 -282.5 135.5t-100.5 312.5zM352 453q0 -190 113 -224v686q-113 -29 -113 -192 v-270z" />
<glyph unicode="&#xa3;" horiz-adv-x="1114" d="M92 0v270h350q-4 64 -26 119t-60 117h-264v104h211q-42 66 -72 119h-139v105h98q-36 103 -36 198q0 200 125 319t327 119q198 0 322.5 -132t124.5 -349h-273q0 111 -46.5 163t-127.5 52q-79 0 -126.5 -43t-47.5 -133q0 -94 49 -194h334v-105h-285q8 -16 30.5 -56 t33.5 -63h221v-104h-184q66 -129 71 -236h318v-270h-928z" />
<glyph unicode="&#xa5;" horiz-adv-x="1114" d="M10 1444h295l256 -613l258 613h293l-412 -924h164v-102h-164v-121h162v-102h-162v-195h-282v195h-164v102h164v121h-164v102h164z" />
<glyph unicode="&#xa6;" horiz-adv-x="520" d="M125 -104v722h270v-722h-270zM125 840v714h270v-714h-270z" />
<glyph unicode="&#xa8;" d="M223 1307q0 51 36.5 88t88.5 37t88.5 -37t36.5 -88q0 -53 -36.5 -89t-88.5 -36t-88.5 36t-36.5 89zM600 1307q0 51 36 88t87 37q53 0 90 -37t37 -88q0 -53 -36.5 -89t-90.5 -36q-51 0 -87 36.5t-36 88.5z" />
<glyph unicode="&#xa9;" horiz-adv-x="1308" d="M115 528v383q0 258 149.5 406.5t394.5 148.5q246 0 392.5 -148.5t146.5 -406.5v-383q0 -257 -146 -401.5t-393 -144.5q-246 0 -395 144.5t-149 401.5zM217 528q0 -210 121.5 -327t320.5 -117t317 117t118 327v383q0 211 -119 332t-316 121q-198 0 -320 -121.5 t-122 -331.5v-383zM348 539v358q0 154 81 241t230 87q150 0 232 -83.5t82 -236.5v-86h-199v105q0 65 -33.5 94t-81.5 29q-55 0 -83.5 -31t-28.5 -105v-395q0 -58 32 -87.5t80 -29.5q115 0 115 115v113h199v-95q0 -150 -81.5 -231.5t-232.5 -81.5q-149 0 -230 85t-81 235z " />
<glyph unicode="&#xaa;" horiz-adv-x="1075" d="M92 905v131q0 212 87.5 317t242.5 105q112 0 187 -48t91 -93v129h254v-948h-254v127q-8 -19 -26.5 -41t-50 -47t-82 -41.5t-109.5 -16.5q-162 0 -251 105.5t-89 320.5zM362 145q0 68 47.5 116t116.5 48q68 0 116 -48.5t48 -115.5t-48 -114t-116 -47q-69 0 -116.5 46.5 t-47.5 114.5zM365 905q0 -186 161 -186q73 0 115.5 46t42.5 140v135q0 91 -43 136t-115 45q-161 0 -161 -185v-131z" />
<glyph unicode="&#xab;" horiz-adv-x="1077" d="M72 586l270 415h207l-187 -415l187 -416h-207zM528 586l271 415h207l-189 -415l189 -416h-207z" />
<glyph unicode="&#xad;" horiz-adv-x="696" d="M72 477v211h549v-211h-549z" />
<glyph unicode="&#xae;" horiz-adv-x="1308" d="M115 528v383q0 258 149.5 406.5t394.5 148.5q246 0 392.5 -148.5t146.5 -406.5v-383q0 -257 -146 -401.5t-393 -144.5q-246 0 -395 144.5t-149 401.5zM217 528q0 -210 121.5 -327t320.5 -117t317 117t118 327v383q0 211 -119 332t-316 121q-198 0 -320 -121.5 t-122 -331.5v-383zM369 268v910h268q160 0 245 -90t85 -259v-12q0 -115 -42 -185.5t-132 -105.5q20 -32 61 -92t69.5 -104t37.5 -62h-213l-130 215h-59v-215h-190zM559 662h64q76 0 114.5 34.5t38.5 124.5v10q0 91 -38.5 128.5t-114.5 37.5h-64v-335z" />
<glyph unicode="&#xaf;" d="M281 1196v190h585v-190h-585z" />
<glyph unicode="&#xb0;" horiz-adv-x="815" d="M92 1126v11q0 152 83.5 239.5t234.5 87.5q149 0 233 -87.5t84 -239.5v-11q0 -155 -84 -243t-233 -88q-151 0 -234.5 87.5t-83.5 243.5zM289 1098q0 -63 33.5 -95t87.5 -32q51 0 85.5 32.5t34.5 94.5v63q0 63 -33.5 95t-86.5 32q-54 0 -87.5 -32t-33.5 -95v-63z" />
<glyph unicode="&#xb4;" d="M430 1190l131 321h291l-215 -321h-207z" />
<glyph unicode="&#xb6;" horiz-adv-x="788" d="M102 1014v203q0 63 14.5 106.5t35 66.5t58 35.5t68.5 15.5t82 3h304v-1546h-254v880h-101q-95 0 -151 59.5t-56 176.5z" />
<glyph unicode="&#xb7;" horiz-adv-x="491" d="M82 584q0 68 48 116t116 48q69 0 116.5 -48t47.5 -116q0 -66 -48 -114t-116 -48q-67 0 -115.5 48t-48.5 114z" />
<glyph unicode="&#xb8;" d="M281 -350l219 401h162l-91 -401h-290z" />
<glyph unicode="&#xba;" horiz-adv-x="1034" d="M82 932v82q0 208 113 329t317 121t318 -121t114 -329v-82q0 -214 -114 -335.5t-318 -121.5q-205 0 -317.5 121.5t-112.5 335.5zM350 145q0 68 47.5 116t114.5 48q69 0 117.5 -48t48.5 -116q0 -67 -48.5 -114t-117.5 -47q-68 0 -115 47t-47 114zM352 893 q0 -89 43.5 -133.5t116.5 -44.5t117.5 45t44.5 133v156q0 87 -44 131.5t-118 44.5t-117 -44t-43 -132v-156z" />
<glyph unicode="&#xbb;" horiz-adv-x="1077" d="M72 170l186 416l-186 415h207l272 -415l-272 -416h-207zM528 170l185 416l-185 415h207l271 -415l-271 -416h-207z" />
<glyph unicode="&#xbf;" horiz-adv-x="1034" d="M51 377q0 72 17 130.5t45.5 97t65 68.5t77.5 52t82 41.5t77.5 41.5t65 48t45.5 64.5t17 87.5h75q23 -76 23 -140q0 -56 -17 -100.5t-44.5 -73.5t-60.5 -54t-66.5 -47t-61 -46.5t-44.5 -59t-17 -77.5q0 -76 54.5 -119t141.5 -43q88 0 142.5 53.5t54.5 159.5h281 q0 -227 -128 -353t-350 -126q-209 0 -342 113.5t-133 281.5zM416 1307q0 68 47.5 114.5t116.5 46.5q67 0 115 -47t48 -114t-48.5 -115.5t-114.5 -48.5q-69 0 -116.5 48t-47.5 116z" />
<glyph unicode="&#xc0;" horiz-adv-x="1165" d="M10 0l424 1444h309l418 -1444h-289l-75 285h-420l-80 -285h-287zM270 1921h291l131 -322h-209zM436 528h301l-147 566z" />
<glyph unicode="&#xc1;" horiz-adv-x="1165" d="M10 0l424 1444h309l418 -1444h-289l-75 285h-420l-80 -285h-287zM436 528h301l-147 566zM467 1599l131 322h291l-215 -322h-207z" />
<glyph unicode="&#xc2;" horiz-adv-x="1165" d="M10 0l424 1444h309l418 -1444h-289l-75 285h-420l-80 -285h-287zM242 1561l211 317h262l211 -317h-211l-131 153l-133 -153h-209zM436 528h301l-147 566z" />
<glyph unicode="&#xc3;" horiz-adv-x="1165" d="M10 0l424 1444h309l418 -1444h-289l-75 285h-420l-80 -285h-287zM240 1593v215q96 56 186 56q56 0 155.5 -29t153.5 -29q99 0 193 60v-213q-91 -64 -183 -64q-56 0 -155 34t-158 34q-94 0 -192 -64zM436 528h301l-147 566z" />
<glyph unicode="&#xc4;" horiz-adv-x="1165" d="M10 0l424 1444h309l418 -1444h-289l-75 285h-420l-80 -285h-287zM276 1716q0 51 36.5 88t88.5 37t88.5 -37t36.5 -88q0 -52 -36 -88.5t-89 -36.5t-89 36.5t-36 88.5zM436 528h301l-147 566zM653 1716q0 51 36 88t87 37q54 0 90.5 -36.5t36.5 -88.5q0 -53 -36.5 -89 t-90.5 -36q-51 0 -87 36.5t-36 88.5z" />
<glyph unicode="&#xc5;" horiz-adv-x="1165" d="M10 0l424 1444h309l418 -1444h-289l-75 285h-420l-80 -285h-287zM406 1778q0 77 54 130.5t132 53.5q77 0 131.5 -54t54.5 -130q0 -77 -55 -132t-131 -55q-78 0 -132 55t-54 132zM436 528h301l-147 566zM532 1780q0 -25 18.5 -42.5t43.5 -17.5q23 0 39 17.5t16 42.5 t-16 41t-39 16q-25 0 -43.5 -16.5t-18.5 -40.5z" />
<glyph unicode="&#xc6;" horiz-adv-x="1783" d="M10 0l797 1444h891v-273h-527v-327h392v-246h-392v-328h527v-270h-811v285h-408l-151 -285h-318zM596 528h289v539z" />
<glyph unicode="&#xc7;" horiz-adv-x="1132" d="M92 477v496q0 220 135.5 358.5t350.5 138.5q237 0 361 -144.5t124 -401.5h-283v20q0 256 -202 256q-84 0 -142.5 -52t-58.5 -167v-512q0 -117 58 -169t143 -52q103 0 152.5 61t49.5 213v19h283q0 -508 -397 -557l-72 -332h-293l180 334q-176 29 -282.5 162.5 t-106.5 328.5z" />
<glyph unicode="&#xc8;" horiz-adv-x="1030" d="M135 0v1444h811v-273h-528v-327h391v-246h-391v-328h528v-270h-811zM240 1921h290l132 -322h-209z" />
<glyph unicode="&#xc9;" horiz-adv-x="1030" d="M135 0v1444h811v-273h-528v-327h391v-246h-391v-328h528v-270h-811zM381 1599l131 322h291l-215 -322h-207z" />
<glyph unicode="&#xca;" horiz-adv-x="1030" d="M135 0v1444h811v-273h-528v-327h391v-246h-391v-328h528v-270h-811zM195 1602l211 317h262l211 -317h-211l-131 153l-134 -153h-208z" />
<glyph unicode="&#xcb;" horiz-adv-x="1030" d="M135 0v1444h811v-273h-528v-327h391v-246h-391v-328h528v-270h-811zM219 1716q0 51 36.5 88t88.5 37t88.5 -37t36.5 -88q0 -52 -36.5 -88.5t-88.5 -36.5t-88.5 36.5t-36.5 88.5zM596 1716q0 51 36 88t87 37q53 0 90 -36.5t37 -88.5q0 -53 -36.5 -89t-90.5 -36 q-51 0 -87 36.5t-36 88.5z" />
<glyph unicode="&#xcc;" horiz-adv-x="557" d="M-16 1921h290l132 -322h-209zM145 0v1444h283v-1444h-283z" />
<glyph unicode="&#xcd;" horiz-adv-x="575" d="M141 1599l131 322h291l-215 -322h-207zM145 0v1444h283v-1444h-283z" />
<glyph unicode="&#xce;" horiz-adv-x="559" d="M-27 1602l211 317h262l211 -317h-211l-131 153l-133 -153h-209zM145 0v1444h283v-1444h-283z" />
<glyph unicode="&#xcf;" horiz-adv-x="550" d="M-23 1716q0 51 36.5 88t88.5 37t88.5 -37t36.5 -88q0 -52 -36.5 -88.5t-88.5 -36.5t-88.5 36.5t-36.5 88.5zM145 0v1444h283v-1444h-283zM354 1716q0 51 36 88t87 37q53 0 90 -36.5t37 -88.5q0 -53 -36.5 -89t-90.5 -36q-51 0 -87 36.5t-36 88.5z" />
<glyph unicode="&#xd0;" horiz-adv-x="1191" d="M4 676v100h125v668h475q222 0 354 -136t132 -393v-380q0 -255 -132.5 -395t-353.5 -140h-475v676h-125zM412 268h159q44 0 77 7.5t64.5 29.5t52 58.5t32.5 97t12 143.5v281q0 64 -10 112t-34.5 90t-73.5 64.5t-120 22.5h-159v-398h159v-100h-159v-408z" />
<glyph unicode="&#xd1;" horiz-adv-x="1245" d="M135 0v1444h266l424 -840v836h285v-1440h-266l-426 836v-836h-283zM279 1593v215q96 56 186 56q56 0 155.5 -29t153.5 -29q99 0 193 60v-213q-91 -64 -183 -64q-56 0 -155 34t-158 34q-94 0 -192 -64z" />
<glyph unicode="&#xd2;" d="M92 477v492q0 221 135.5 361t350.5 140q214 0 349.5 -140t135.5 -361v-492q0 -220 -135.5 -358.5t-349.5 -138.5q-215 0 -350.5 138.5t-135.5 358.5zM258 1921h291l131 -322h-209zM377 469q0 -114 56.5 -166.5t144.5 -52.5q84 0 143 51.5t59 165.5v512q0 114 -57 167.5 t-145 53.5q-86 0 -143.5 -52t-57.5 -167v-512z" />
<glyph unicode="&#xd3;" horiz-adv-x="1142" d="M92 477v492q0 221 135.5 361t350.5 140q214 0 349.5 -140t135.5 -361v-492q0 -220 -135.5 -358.5t-349.5 -138.5q-215 0 -350.5 138.5t-135.5 358.5zM377 469q0 -114 56.5 -166.5t144.5 -52.5q84 0 143 51.5t59 165.5v512q0 114 -57 167.5t-145 53.5q-86 0 -143.5 -52 t-57.5 -167v-512zM449 1599l131 322h290l-215 -322h-206z" />
<glyph unicode="&#xd4;" d="M92 477v492q0 221 135.5 361t350.5 140q214 0 349.5 -140t135.5 -361v-492q0 -220 -135.5 -358.5t-349.5 -138.5q-215 0 -350.5 138.5t-135.5 358.5zM236 1602l210 317h263l211 -317h-211l-131 153l-134 -153h-208zM377 469q0 -114 56.5 -166.5t144.5 -52.5 q84 0 143 51.5t59 165.5v512q0 114 -57 167.5t-145 53.5q-86 0 -143.5 -52t-57.5 -167v-512z" />
<glyph unicode="&#xd5;" d="M92 477v492q0 221 135.5 361t350.5 140q214 0 349.5 -140t135.5 -361v-492q0 -220 -135.5 -358.5t-349.5 -138.5q-215 0 -350.5 138.5t-135.5 358.5zM236 1593v215q96 56 186 56q56 0 155.5 -29t153.5 -29q99 0 193 60v-213q-91 -64 -183 -64q-56 0 -155 34t-158 34 q-94 0 -192 -64zM377 469q0 -114 56.5 -166.5t144.5 -52.5q84 0 143 51.5t59 165.5v512q0 114 -57 167.5t-145 53.5q-86 0 -143.5 -52t-57.5 -167v-512z" />
<glyph unicode="&#xd6;" d="M92 477v492q0 221 135.5 361t350.5 140q214 0 349.5 -140t135.5 -361v-492q0 -220 -135.5 -358.5t-349.5 -138.5q-215 0 -350.5 138.5t-135.5 358.5zM262 1716q0 51 36.5 88t88.5 37t88.5 -37t36.5 -88q0 -52 -36 -88.5t-89 -36.5t-89 36.5t-36 88.5zM377 469 q0 -114 56.5 -166.5t144.5 -52.5q84 0 143 51.5t59 165.5v512q0 114 -57 167.5t-145 53.5q-86 0 -143.5 -52t-57.5 -167v-512zM639 1716q0 51 36 88t87 37q54 0 90.5 -36.5t36.5 -88.5q0 -53 -36.5 -89t-90.5 -36q-51 0 -87 36.5t-36 88.5z" />
<glyph unicode="&#xd7;" horiz-adv-x="1079" d="M92 489q78 78 242 238q-164 160 -242 238l174 174l240 -240l242 240l174 -174l-242 -238l242 -238l-172 -174l-244 238l-240 -238z" />
<glyph unicode="&#xd8;" d="M92 477v492q0 221 135.5 361t350.5 140q109 0 194 -36l59 182h105l-78 -230q98 -65 151.5 -173.5t53.5 -243.5v-492q0 -220 -135.5 -358.5t-349.5 -138.5q-95 0 -177 28l-55 -168h-108l69 213q-100 64 -157.5 174.5t-57.5 249.5zM377 469q0 -76 29 -129l278 834 q-48 26 -106 26q-86 0 -143.5 -52t-57.5 -167v-512zM485 266q39 -16 93 -16q84 0 143 51.5t59 165.5v512q0 59 -20 111z" />
<glyph unicode="&#xd9;" horiz-adv-x="1196" d="M115 477v967h282v-977q0 -113 55.5 -166t145.5 -53q87 0 145 53.5t58 165.5v977h282v-967q0 -228 -134.5 -362.5t-350.5 -134.5q-217 0 -350 134t-133 363zM301 1921h291l131 -322h-209z" />
<glyph unicode="&#xda;" horiz-adv-x="1196" d="M115 477v967h282v-977q0 -113 55.5 -166t145.5 -53q87 0 145 53.5t58 165.5v977h282v-967q0 -228 -134.5 -362.5t-350.5 -134.5q-217 0 -350 134t-133 363zM500 1599l131 322h291l-215 -322h-207z" />
<glyph unicode="&#xdb;" horiz-adv-x="1196" d="M115 477v967h282v-977q0 -113 55.5 -166t145.5 -53q87 0 145 53.5t58 165.5v977h282v-967q0 -228 -134.5 -362.5t-350.5 -134.5q-217 0 -350 134t-133 363zM256 1602l211 317h262l211 -317h-211l-131 153l-133 -153h-209z" />
<glyph unicode="&#xdc;" horiz-adv-x="1196" d="M115 477v967h282v-977q0 -113 55.5 -166t145.5 -53q87 0 145 53.5t58 165.5v977h282v-967q0 -228 -134.5 -362.5t-350.5 -134.5q-217 0 -350 134t-133 363zM287 1716q0 51 36.5 88t88.5 37t88.5 -37t36.5 -88q0 -52 -36.5 -88.5t-88.5 -36.5t-88.5 36.5t-36.5 88.5z M664 1716q0 51 35.5 88t86.5 37q54 0 90.5 -36.5t36.5 -88.5q0 -53 -36.5 -89t-90.5 -36q-51 0 -86.5 36.5t-35.5 88.5z" />
<glyph unicode="&#xdd;" horiz-adv-x="1116" d="M10 1444h295l256 -610l258 610h293l-412 -924v-520h-282v520zM459 1599l131 322h291l-215 -322h-207z" />
<glyph unicode="&#xde;" horiz-adv-x="1159" d="M135 0v1444h283v-162h178q217 0 349 -138t132 -386v-58q0 -249 -131.5 -383.5t-349.5 -134.5h-178v-182h-283zM418 451h141q49 0 90 12.5t76 39.5t54.5 78t19.5 121v54q0 65 -16 112.5t-41 75t-64.5 43t-77.5 20.5t-88 5h-94v-561z" />
<glyph unicode="&#xdf;" horiz-adv-x="1157" d="M45 913v236h109q0 110 16.5 180.5t60.5 123.5t123 76t203 23h25q407 0 407 -274v-21q0 -103 -44 -155.5t-142 -65.5q272 -45 272 -389v-203q0 -44 -2.5 -81.5t-8.5 -77t-16.5 -72.5t-25.5 -65t-36.5 -57t-49 -46.5t-63.5 -35t-79.5 -21t-97.5 -6.5t-116 10v233 q58 -5 99 4.5t65.5 29.5t38 56t18 74.5t4.5 93.5v86q0 55 -1 87.5t-5.5 74t-13.5 65t-25.5 49t-40 38.5t-58.5 21.5t-81 8.5v236q79 0 107 20.5t28 57.5v14q0 37 -28.5 58.5t-104.5 21.5h-33q-76 0 -100.5 -43t-24.5 -129v-1149h-270v913h-109z" />
<glyph unicode="&#xe0;" horiz-adv-x="1064" d="M82 408v333q0 214 92 319t252 105q59 0 111 -16.5t84.5 -41.5t52 -46.5t26.5 -38.5v129h254v-1151h-254v127q-7 -17 -26.5 -39.5t-52 -47.5t-84 -41.5t-111.5 -16.5q-161 0 -252.5 106t-91.5 320zM219 1614h291l131 -322h-209zM354 428q0 -104 44 -155.5t122 -51.5 q76 0 120 52t44 155v297q0 100 -45 150.5t-119 50.5q-78 0 -122 -51t-44 -154v-293z" />
<glyph unicode="&#xe1;" horiz-adv-x="1064" d="M82 408v333q0 214 92 319t252 105q59 0 111 -16.5t84.5 -41.5t52 -46.5t26.5 -38.5v129h254v-1151h-254v127q-7 -17 -26.5 -39.5t-52 -47.5t-84 -41.5t-111.5 -16.5q-161 0 -252.5 106t-91.5 320zM354 428q0 -104 44 -155.5t122 -51.5q76 0 120 52t44 155v297 q0 100 -45 150.5t-119 50.5q-78 0 -122 -51t-44 -154v-293zM375 1294l131 322h291l-215 -322h-207z" />
<glyph unicode="&#xe2;" horiz-adv-x="1064" d="M82 408v333q0 214 92 319t252 105q59 0 111 -16.5t84.5 -41.5t52 -46.5t26.5 -38.5v129h254v-1151h-254v127q-7 -17 -26.5 -39.5t-52 -47.5t-84 -41.5t-111.5 -16.5q-161 0 -252.5 106t-91.5 320zM193 1294l210 318h263l211 -318h-211l-131 154l-134 -154h-208zM354 428 q0 -104 44 -155.5t122 -51.5q76 0 120 52t44 155v297q0 100 -45 150.5t-119 50.5q-78 0 -122 -51t-44 -154v-293z" />
<glyph unicode="&#xe3;" horiz-adv-x="1064" d="M82 408v333q0 214 92 319t252 105q59 0 111 -16.5t84.5 -41.5t52 -46.5t26.5 -38.5v129h254v-1151h-254v127q-7 -17 -26.5 -39.5t-52 -47.5t-84 -41.5t-111.5 -16.5q-161 0 -252.5 106t-91.5 320zM193 1280v215q94 55 186 55q56 0 155.5 -28.5t153.5 -28.5q100 0 193 59 v-213q-90 -63 -183 -63q-56 0 -155 33.5t-158 33.5q-95 0 -192 -63zM354 428q0 -104 44 -155.5t122 -51.5q76 0 120 52t44 155v297q0 100 -45 150.5t-119 50.5q-78 0 -122 -51t-44 -154v-293z" />
<glyph unicode="&#xe4;" horiz-adv-x="1064" d="M82 408v333q0 214 92 319t252 105q59 0 111 -16.5t84.5 -41.5t52 -46.5t26.5 -38.5v129h254v-1151h-254v127q-7 -17 -26.5 -39.5t-52 -47.5t-84 -41.5t-111.5 -16.5q-161 0 -252.5 106t-91.5 320zM229 1409q0 51 36.5 88t88.5 37t88.5 -37t36.5 -88q0 -53 -36.5 -89 t-88.5 -36t-88.5 36t-36.5 89zM354 428q0 -104 44 -155.5t122 -51.5q76 0 120 52t44 155v297q0 100 -45 150.5t-119 50.5q-78 0 -122 -51t-44 -154v-293zM606 1409q0 51 36 88t87 37q53 0 90 -37t37 -88q0 -53 -36.5 -89t-90.5 -36q-51 0 -87 36.5t-36 88.5z" />
<glyph unicode="&#xe5;" horiz-adv-x="1064" d="M82 408v333q0 214 92 319t252 105q59 0 111 -16.5t84.5 -41.5t52 -46.5t26.5 -38.5v129h254v-1151h-254v127q-7 -17 -26.5 -39.5t-52 -47.5t-84 -41.5t-111.5 -16.5q-161 0 -252.5 106t-91.5 320zM354 428q0 -104 44 -155.5t122 -51.5q76 0 120 52t44 155v297 q0 100 -45 150.5t-119 50.5q-78 0 -122 -51t-44 -154v-293zM369 1470q0 77 54 131t132 54q77 0 131.5 -54.5t54.5 -130.5t-54.5 -131t-131.5 -55q-78 0 -132 54.5t-54 131.5zM496 1473q0 -25 18 -42.5t43 -17.5q23 0 39 17.5t16 42.5t-16 41t-39 16q-25 0 -43 -16.5 t-18 -40.5z" />
<glyph unicode="&#xe6;" horiz-adv-x="1628" d="M82 408v333q0 214 92 319t252 105q59 0 111 -16.5t84.5 -41.5t52 -46.5t26.5 -38.5v129h254v-129q7 17 26 38.5t51 46.5t83 41.5t109 16.5q155 0 245.5 -105t90.5 -319v-245h-603v-125q0 -74 50 -123t116 -49q72 0 119 38.5t47 106.5v25h271v-9q0 -186 -86 -279t-244 -93 q-60 0 -112 16.5t-84.5 41.5t-52 47.5t-26.5 39.5v-127v-6h-254v127q-7 -17 -26.5 -39.5t-52 -47.5t-84 -41.5t-111.5 -16.5q-161 0 -252.5 106t-91.5 320zM354 428q0 -104 44 -155.5t122 -51.5q76 0 120 52t44 155v297q0 100 -45 150.5t-119 50.5q-78 0 -122 -51t-44 -154 v-293zM956 684h332v55q0 110 -42.5 157.5t-123.5 47.5q-75 0 -120.5 -44t-45.5 -132v-84z" />
<glyph unicode="&#xe7;" horiz-adv-x="1024" d="M82 430v279q0 212 115 334t323 122q213 0 323.5 -123t110.5 -350h-270q0 230 -164 230q-168 0 -168 -199v-270q0 -232 168 -232q75 0 119.5 56t44.5 169h270q0 -195 -88 -314.5t-256 -145.5l-75 -336h-291l184 338q-165 25 -255.5 141t-90.5 301z" />
<glyph unicode="&#xe8;" horiz-adv-x="1024" d="M82 430v281q0 212 115 333t323 121q205 0 319.5 -116.5t114.5 -327.5v-225h-602v-125q0 -74 50.5 -123t117.5 -49q71 0 117.5 38.5t46.5 106.5v25h270v-9q0 -163 -117.5 -271.5t-316.5 -108.5q-207 0 -322.5 120.5t-115.5 329.5zM193 1616h290l131 -322h-208zM352 684 h332v55q0 110 -42 157.5t-122 47.5q-76 0 -122 -44t-46 -132v-84z" />
<glyph unicode="&#xe9;" horiz-adv-x="1024" d="M82 430v281q0 212 115 333t323 121q205 0 319.5 -116.5t114.5 -327.5v-225h-602v-125q0 -74 50.5 -123t117.5 -49q71 0 117.5 38.5t46.5 106.5v25h270v-9q0 -163 -117.5 -271.5t-316.5 -108.5q-207 0 -322.5 120.5t-115.5 329.5zM352 684h332v55q0 110 -42 157.5 t-122 47.5q-76 0 -122 -44t-46 -132v-84zM383 1294l131 322h291l-215 -322h-207z" />
<glyph unicode="&#xea;" horiz-adv-x="1024" d="M82 430v281q0 212 115 333t323 121q205 0 319.5 -116.5t114.5 -327.5v-225h-602v-125q0 -74 50.5 -123t117.5 -49q71 0 117.5 38.5t46.5 106.5v25h270v-9q0 -163 -117.5 -271.5t-316.5 -108.5q-207 0 -322.5 120.5t-115.5 329.5zM172 1292l211 318h262l211 -318h-211 l-131 154l-133 -154h-209zM352 684h332v55q0 110 -42 157.5t-122 47.5q-76 0 -122 -44t-46 -132v-84z" />
<glyph unicode="&#xeb;" horiz-adv-x="1024" d="M82 430v281q0 212 115 333t323 121q205 0 319.5 -116.5t114.5 -327.5v-225h-602v-125q0 -74 50.5 -123t117.5 -49q71 0 117.5 38.5t46.5 106.5v25h270v-9q0 -163 -117.5 -271.5t-316.5 -108.5q-207 0 -322.5 120.5t-115.5 329.5zM211 1411q0 51 36.5 88t88.5 37t88.5 -37 t36.5 -88q0 -53 -36.5 -89t-88.5 -36t-88.5 36t-36.5 89zM352 684h332v55q0 110 -42 157.5t-122 47.5q-76 0 -122 -44t-46 -132v-84zM588 1411q0 51 36 88t87 37q53 0 90 -37t37 -88q0 -53 -36.5 -89t-90.5 -36q-51 0 -87 36.5t-36 88.5z" />
<glyph unicode="&#xec;" horiz-adv-x="507" d="M-43 1616h291l131 -322h-209zM121 0v1151h268v-1151h-268z" />
<glyph unicode="&#xed;" horiz-adv-x="516" d="M121 0v1151h268v-1151h-268zM125 1294l131 322h291l-215 -322h-207z" />
<glyph unicode="&#xee;" horiz-adv-x="509" d="M-88 1296l211 318h262l211 -318h-211l-131 154l-133 -154h-209zM121 0v1151h268v-1151h-268z" />
<glyph unicode="&#xef;" horiz-adv-x="499" d="M-59 1411q0 51 36.5 88t88.5 37t88 -37t36 -88q0 -53 -36 -89t-88 -36t-88.5 36t-36.5 89zM121 0v1151h268v-1151h-268zM317 1411q0 51 36 88t87 37q54 0 90.5 -37t36.5 -88q0 -53 -36.5 -89t-90.5 -36q-51 0 -87 36.5t-36 88.5z" />
<glyph unicode="&#xf0;" horiz-adv-x="1030" d="M76 444v265q0 108 34.5 197.5t97.5 150.5t159 87.5t213 8.5l-64 117h-186v102h135l-96 182h266l88 -182h178v-102h-125l74 -148q100 -202 100 -420v-258q0 -211 -120 -332.5t-318 -121.5q-195 0 -315.5 122t-120.5 332zM352 397q0 -89 46 -133.5t122 -44.5q71 0 117.5 45 t46.5 133v348q0 88 -46 132.5t-118 44.5q-76 0 -122 -44.5t-46 -132.5v-348z" />
<glyph unicode="&#xf1;" horiz-adv-x="1075" d="M115 0v1151h252v-131q7 17 26.5 38.5t52.5 46.5t84.5 41.5t110.5 16.5q163 0 254.5 -104.5t91.5 -317.5v-741h-272v721q0 203 -166 203q-85 0 -125.5 -49t-40.5 -158v-717h-268zM199 1290v215q96 56 186 56q56 0 155.5 -29t153.5 -29q99 0 193 60v-213q-91 -64 -182 -64 q-56 0 -155.5 34t-158.5 34q-94 0 -192 -64z" />
<glyph unicode="&#xf2;" horiz-adv-x="1034" d="M82 436v277q0 207 115 328.5t321 121.5q202 0 319 -122t117 -328v-277q0 -213 -116 -334.5t-320 -121.5q-208 0 -322 121t-114 335zM188 1599h291l131 -321h-209zM352 397q0 -88 46 -133t120 -45q72 0 119 45t47 133v348q0 88 -46.5 132.5t-119.5 44.5 q-75 0 -120.5 -44.5t-45.5 -132.5v-348z" />
<glyph unicode="&#xf3;" horiz-adv-x="1034" d="M82 436v277q0 207 115 328.5t321 121.5q202 0 319 -122t117 -328v-277q0 -213 -116 -334.5t-320 -121.5q-208 0 -322 121t-114 335zM352 397q0 -88 46 -133t120 -45q72 0 119 45t47 133v348q0 88 -46.5 132.5t-119.5 44.5q-75 0 -120.5 -44.5t-45.5 -132.5v-348z M397 1292l131 322h291l-215 -322h-207z" />
<glyph unicode="&#xf4;" horiz-adv-x="1034" d="M82 436v277q0 207 115 328.5t321 121.5q202 0 319 -122t117 -328v-277q0 -213 -116 -334.5t-320 -121.5q-208 0 -322 121t-114 335zM178 1292l211 318h262l211 -318h-211l-131 154l-133 -154h-209zM352 397q0 -88 46 -133t120 -45q72 0 119 45t47 133v348 q0 88 -46.5 132.5t-119.5 44.5q-75 0 -120.5 -44.5t-45.5 -132.5v-348z" />
<glyph unicode="&#xf5;" horiz-adv-x="1034" d="M82 436v277q0 207 115 328.5t321 121.5q202 0 319 -122t117 -328v-277q0 -213 -116 -334.5t-320 -121.5q-208 0 -322 121t-114 335zM176 1282v215q94 55 186 55q56 0 156 -28.5t154 -28.5q99 0 192 59v-213q-90 -63 -182 -63q-56 0 -155 34t-158 34q-95 0 -193 -64z M352 397q0 -88 46 -133t120 -45q72 0 119 45t47 133v348q0 88 -46.5 132.5t-119.5 44.5q-75 0 -120.5 -44.5t-45.5 -132.5v-348z" />
<glyph unicode="&#xf6;" horiz-adv-x="1034" d="M82 436v277q0 207 115 328.5t321 121.5q202 0 319 -122t117 -328v-277q0 -213 -116 -334.5t-320 -121.5q-208 0 -322 121t-114 335zM205 1407q0 51 36.5 88t88.5 37t88.5 -37t36.5 -88q0 -53 -36.5 -89t-88.5 -36t-88.5 36t-36.5 89zM352 397q0 -88 46 -133t120 -45 q72 0 119 45t47 133v348q0 88 -46.5 132.5t-119.5 44.5q-75 0 -120.5 -44.5t-45.5 -132.5v-348zM582 1407q0 51 36 88t87 37q53 0 89.5 -36.5t36.5 -88.5q0 -53 -36 -89t-90 -36q-51 0 -87 36.5t-36 88.5z" />
<glyph unicode="&#xf7;" horiz-adv-x="1050" d="M92 602v244h821v-244h-821zM348 362q0 62 43 105t105 43t105.5 -43.5t43.5 -104.5q0 -60 -44 -103.5t-105 -43.5t-104.5 43.5t-43.5 103.5zM348 1087q0 61 43 104.5t105 43.5t105.5 -43.5t43.5 -104.5q0 -60 -44 -103.5t-105 -43.5t-104.5 43.5t-43.5 103.5z" />
<glyph unicode="&#xf8;" horiz-adv-x="1034" d="M82 436v277q0 207 115 328.5t323 121.5q57 0 125 -14l49 160h105l-60 -195q102 -55 158.5 -158t56.5 -243v-277q0 -212 -116 -334t-318 -122q-74 0 -129 14l-47 -154h-108l61 187q-105 53 -160 157.5t-55 251.5zM352 397q0 -69 31 -114l192 630q-27 9 -55 9 q-76 0 -122 -44.5t-46 -132.5v-348zM463 225q24 -6 57 -6q71 0 117.5 45t46.5 133v348q0 60 -27 109z" />
<glyph unicode="&#xf9;" horiz-adv-x="1054" d="M92 424v727h270v-766q0 -82 50.5 -124t117.5 -42q60 0 112 42t52 124v766h273v-727q0 -204 -118.5 -324t-318.5 -120q-206 0 -322 119.5t-116 324.5zM217 1597h291l131 -321h-209z" />
<glyph unicode="&#xfa;" horiz-adv-x="1054" d="M92 424v727h270v-766q0 -82 50.5 -124t117.5 -42q60 0 112 42t52 124v766h273v-727q0 -204 -118.5 -324t-318.5 -120q-206 0 -322 119.5t-116 324.5zM426 1296l131 322h291l-215 -322h-207z" />
<glyph unicode="&#xfb;" horiz-adv-x="1054" d="M92 424v727h270v-766q0 -82 50.5 -124t117.5 -42q60 0 112 42t52 124v766h273v-727q0 -204 -118.5 -324t-318.5 -120q-206 0 -322 119.5t-116 324.5zM188 1290l211 318h263l210 -318h-210l-132 154l-133 -154h-209z" />
<glyph unicode="&#xfc;" horiz-adv-x="1054" d="M92 424v727h270v-766q0 -82 50.5 -124t117.5 -42q60 0 112 42t52 124v766h273v-727q0 -204 -118.5 -324t-318.5 -120q-206 0 -322 119.5t-116 324.5zM217 1411q0 51 36.5 88t88.5 37t88.5 -37t36.5 -88q0 -53 -36.5 -89t-88.5 -36t-88.5 36t-36.5 89zM594 1411 q0 51 36 88t87 37q53 0 90 -37t37 -88q0 -53 -36.5 -89t-90.5 -36q-51 0 -87 36.5t-36 88.5z" />
<glyph unicode="&#xfd;" horiz-adv-x="1001" d="M10 1151h289l205 -745l205 745h288q-93 -300 -265 -852t-216 -692h-274l125 395zM403 1294l132 322h290l-215 -322h-207z" />
<glyph unicode="&#xfe;" horiz-adv-x="1075" d="M115 -395v1941h268v-526q8 18 24.5 39t46.5 46.5t79 42.5t108 17q346 0 346 -458v-299q0 -213 -92 -318.5t-254 -105.5q-59 0 -108 15.5t-79 39t-47 44t-24 38.5v-516h-268zM383 428q0 -102 44.5 -153.5t121.5 -51.5t121.5 51.5t44.5 153.5v291q0 102 -45 154.5 t-121 52.5q-75 0 -120.5 -51.5t-45.5 -151.5v-295z" />
<glyph unicode="&#xff;" horiz-adv-x="1001" d="M10 1151h289l205 -745l205 745h288q-93 -300 -265 -852t-216 -692h-274l125 395zM190 1405q0 51 36.5 88t88.5 37t88.5 -37t36.5 -88q0 -53 -36 -89t-89 -36t-89 36t-36 89zM567 1405q0 51 36 88t87 37q54 0 90.5 -37t36.5 -88q0 -53 -36.5 -89t-90.5 -36q-51 0 -87 36.5 t-36 88.5z" />
<glyph unicode="&#x152;" horiz-adv-x="1677" d="M92 483v504q0 202 116 335.5t300 133.5q189 0 272 -94v82h813v-273h-530v-327h393v-246h-393v-328h530v-270h-813v74q-84 -82 -227 -82q-206 0 -333.5 134t-127.5 357zM377 467q0 -60 17 -104.5t47 -68.5t64 -35t73 -11q37 0 70 10.5t64 34t49.5 68.5t18.5 106v518 q0 219 -202 219q-86 0 -143.5 -52t-57.5 -167v-518z" />
<glyph unicode="&#x153;" horiz-adv-x="1632" d="M80 436v277q0 208 111 329t317 121q209 0 307 -125q98 127 313 127q205 0 316.5 -116t111.5 -328v-225h-602v-125q0 -74 50 -123t116 -49q72 0 119 38.5t47 106.5v25h270v-9q0 -164 -114.5 -272t-313.5 -108q-213 0 -311 124q-95 -124 -309 -124q-207 0 -317.5 120.5 t-110.5 335.5zM350 397q0 -88 46 -133t120 -45q72 0 119 45t47 133v348q0 88 -46.5 132.5t-119.5 44.5q-75 0 -120.5 -44.5t-45.5 -132.5v-348zM954 684h332v55q0 110 -42.5 157.5t-123.5 47.5q-75 0 -120.5 -44t-45.5 -132v-84z" />
<glyph unicode="&#x178;" horiz-adv-x="1116" d="M10 1444h295l256 -610l258 610h293l-412 -924v-520h-282v520zM248 1716q0 51 36.5 88t88.5 37t88.5 -37t36.5 -88q0 -52 -36 -88.5t-89 -36.5t-89 36.5t-36 88.5zM625 1716q0 51 36 88t87 37q53 0 89.5 -36.5t36.5 -88.5q0 -53 -36 -89t-90 -36q-51 0 -87 36.5t-36 88.5z " />
<glyph unicode="&#x2c6;" d="M236 1192l210 317h263l211 -317h-211l-131 154l-134 -154h-208z" />
<glyph unicode="&#x2dc;" d="M231 1184v215q94 55 187 55q56 0 155.5 -28.5t153.5 -28.5q100 0 193 59v-213q-90 -63 -183 -63q-56 0 -155 33.5t-158 33.5q-96 0 -193 -63z" />
<glyph unicode="&#x2000;" horiz-adv-x="981" />
<glyph unicode="&#x2001;" horiz-adv-x="1962" />
<glyph unicode="&#x2002;" horiz-adv-x="981" />
<glyph unicode="&#x2003;" horiz-adv-x="1962" />
<glyph unicode="&#x2004;" horiz-adv-x="654" />
<glyph unicode="&#x2005;" horiz-adv-x="490" />
<glyph unicode="&#x2006;" horiz-adv-x="327" />
<glyph unicode="&#x2007;" horiz-adv-x="327" />
<glyph unicode="&#x2008;" horiz-adv-x="245" />
<glyph unicode="&#x2009;" horiz-adv-x="392" />
<glyph unicode="&#x200a;" horiz-adv-x="109" />
<glyph unicode="&#x2010;" horiz-adv-x="696" d="M72 477v211h549v-211h-549z" />
<glyph unicode="&#x2011;" horiz-adv-x="696" d="M72 477v211h549v-211h-549z" />
<glyph unicode="&#x2012;" horiz-adv-x="696" d="M72 477v211h549v-211h-549z" />
<glyph unicode="&#x2013;" horiz-adv-x="833" d="M72 477v211h690v-211h-690z" />
<glyph unicode="&#x2014;" horiz-adv-x="1087" d="M72 477v211h944v-211h-944z" />
<glyph unicode="&#x2018;" horiz-adv-x="583" d="M51 768l273 678h208q-55 -188 -188 -678h-293z" />
<glyph unicode="&#x2019;" horiz-adv-x="581" d="M51 768l187 678h292l-272 -678h-207z" />
<glyph unicode="&#x201a;" horiz-adv-x="573" d="M-10 -262l186 661h291l-270 -661h-207z" />
<glyph unicode="&#x201c;" horiz-adv-x="1011" d="M51 768l273 678h208q-55 -188 -188 -678h-293zM479 768l273 678h209q-68 -233 -189 -678h-293z" />
<glyph unicode="&#x201d;" horiz-adv-x="1009" d="M51 768l187 678h292l-272 -678h-207zM479 768l187 678h292l-272 -678h-207z" />
<glyph unicode="&#x201e;" horiz-adv-x="968" d="M0 -268l186 661h291l-270 -661h-207zM428 -268l186 661h291l-270 -661h-207z" />
<glyph unicode="&#x2022;" horiz-adv-x="983" d="M92 598v12q0 191 105.5 302.5t294.5 111.5q186 0 291.5 -111.5t105.5 -302.5v-12q0 -196 -105 -307t-292 -111q-190 0 -295 111t-105 307z" />
<glyph unicode="&#x2026;" horiz-adv-x="1470" d="M82 145q0 67 48 115.5t116 48.5q69 0 116.5 -48t47.5 -116t-47.5 -114.5t-116.5 -46.5q-68 0 -116 47t-48 114zM571 145q0 68 47.5 116t116.5 48q67 0 115.5 -48.5t48.5 -115.5t-48 -114t-116 -47q-69 0 -116.5 46.5t-47.5 114.5zM1059 145q0 68 47.5 116t116.5 48 q68 0 117 -48.5t49 -115.5t-49 -114t-117 -47q-69 0 -116.5 46.5t-47.5 114.5z" />
<glyph unicode="&#x202f;" horiz-adv-x="392" />
<glyph unicode="&#x2039;" horiz-adv-x="620" d="M72 586l270 415h207l-187 -415l187 -416h-207z" />
<glyph unicode="&#x203a;" horiz-adv-x="620" d="M72 170l186 416l-186 415h207l270 -415l-270 -416h-207z" />
<glyph unicode="&#x205f;" horiz-adv-x="490" />
<glyph unicode="&#x20ac;" horiz-adv-x="1208" d="M51 553v104h123v119h-123v105h123v90q0 221 135 360t350 139q237 0 361.5 -153.5t124.5 -409.5h-285q0 293 -201 293q-86 0 -144 -54t-58 -167v-98h205v-105h-205v-119h205v-104h-205v-92q0 -107 50.5 -165t149.5 -58q101 0 152 66.5t51 219.5h285q0 -163 -53.5 -286 t-164.5 -195t-268 -72q-215 0 -350 139t-135 359v84h-123z" />
<glyph unicode="&#x2122;" horiz-adv-x="1511" d="M72 1284v160h497v-160h-166v-584h-167v584h-164zM666 700v744h168l186 -426l186 426h166v-744h-168v375l-129 -282h-112l-127 280v-373h-170z" />
<glyph unicode="&#x25fc;" horiz-adv-x="1146" d="M0 0v1147h1147v-1147h-1147z" />
<glyph unicode="&#xfb01;" horiz-adv-x="1175" d="M51 913v236h117q0 57 4.5 101.5t17 89.5t33 78.5t54.5 63t79.5 48t109.5 29t144 10.5q95 0 169.5 -13.5t121 -38t78 -53.5t46.5 -66.5t20.5 -69t5.5 -68.5h-271q0 4 -1 9.5t-10 21t-25 27t-51 21t-83 9.5q-58 0 -92 -10t-52 -36.5t-23 -60t-5 -92.5h203v-236h-203v-913 h-270v913h-117zM780 0v1149h271v-1149h-271z" />
<glyph unicode="&#xfb02;" horiz-adv-x="1175" d="M51 913v236h117q0 72 6.5 125t24 103t48.5 83.5t79.5 59t119 37.5t164.5 12q114 0 197 -25.5t129 -64t73 -97.5t34.5 -111.5t7.5 -121.5v-1149h-271v1149q0 31 -0.5 46t-3.5 40.5t-9.5 38.5t-18.5 29.5t-30 24.5t-45 14t-63 6q-32 0 -56.5 -2t-43 -9.5t-30.5 -13.5 t-20.5 -21.5t-12.5 -26t-6 -35.5t-2.5 -41t-0.5 -50h203v-236h-203v-913h-270v913h-117z" />
</font>
</defs>
</svg>
