<?xml version="1.0" standalone="no"?>
<!DOCTYPE svg PUBLIC "-//W3C//DTD SVG 1.1//EN" "http://www.w3.org/Graphics/SVG/1.1/DTD/svg11.dtd" >
<svg xmlns="http://www.w3.org/2000/svg">
<metadata></metadata>
<defs>
<font id="metamedium_italic" horiz-adv-x="1114" >
<font-face units-per-em="2048" ascent="1638" descent="-410" />
<missing-glyph horiz-adv-x="460" />
<glyph unicode="&#xfb01;" horiz-adv-x="1167" d="M-66 -328q45 53 86 137.5t62 184.5l174 883h-104l34 159h101l26 142q37 201 174 276q88 49 207 49q66 0 119 -11t94 -40l-92 -147q-23 16 -56.5 23t-68.5 7q-59 0 -101 -37.5t-54 -107.5l-29 -154h618l-219 -1036h-229l186 877h-385l-174 -889q-29 -145 -87 -253 t-130 -179zM926 1335q0 63 44 107.5t107 44.5q61 0 105.5 -44.5t44.5 -105.5q0 -63 -44 -107t-108 -44q-61 0 -105 44t-44 105z" />
<glyph unicode="&#xfb02;" horiz-adv-x="1187" d="M-66 -328q47 53 87 137.5t61 184.5l176 883h-104l32 159h103l24 142q16 102 63.5 169.5t112.5 106.5q86 49 205 49q66 0 119 -14t94 -39l-94 -147q-25 16 -56.5 24t-64.5 8q-59 0 -100 -37.5t-55 -107.5l-31 -154h268l-94 -159h-201l-176 -889q-29 -145 -86 -253 t-129 -179zM715 137q0 23 5 63t15 83l183 854q23 104 29.5 187t0.5 124l242 65q4 -27 3 -64.5t-7 -82.5t-14.5 -94t-18.5 -98l-178 -836q-14 -61 -19.5 -94t-5.5 -51q0 -55 49 -56h18.5t16.5 4l13 -137q-68 -27 -152 -27q-90 0 -135 44.5t-45 115.5z" />
<glyph horiz-adv-x="0" />
<glyph unicode="&#xd;" horiz-adv-x="460" />
<glyph unicode=" "  horiz-adv-x="460" />
<glyph unicode="&#x09;" horiz-adv-x="460" />
<glyph unicode="&#xa0;" horiz-adv-x="460" />
<glyph unicode="!" horiz-adv-x="616" d="M68 129q0 63 43 107.5t106 44.5q61 0 105.5 -44.5t44.5 -105.5q0 -63 -44 -107t-108 -44q-61 0 -104 44t-43 105zM190 432l156 975l281 37l-265 -1012h-172z" />
<glyph unicode="&#x22;" horiz-adv-x="743" d="M61 909l115 541h211l-115 -541h-211zM463 909l112 541h211l-114 -541h-209z" />
<glyph unicode="#" horiz-adv-x="1116" d="M61 422v164h222l88 280h-172v164h221l131 420h172l-131 -420h225l133 420h170l-131 -420h172v-164h-219l-90 -280h172v-164h-221l-133 -422h-172l133 422h-228l-133 -422h-172l133 422h-170zM455 586h225l90 280h-227z" />
<glyph unicode="$" horiz-adv-x="1153" d="M-20 92l120 182q86 -53 166 -80.5t189 -27.5q152 0 239.5 71.5t87.5 184.5q0 68 -37.5 113t-130.5 79l-141 54q-123 47 -186.5 117.5t-63.5 195.5q0 92 37 172t102.5 141.5t155.5 101.5t195 52l35 160h147l-33 -160q100 -8 189.5 -42t154.5 -87l-135 -166 q-74 55 -147.5 79.5t-165.5 24.5q-57 0 -107.5 -16t-87.5 -44t-57.5 -64.5t-20.5 -79.5q0 -61 32 -102.5t120 -73.5l158 -58q135 -49 196.5 -131t61.5 -205q0 -96 -37 -183t-106.5 -154.5t-171 -112.5t-228.5 -58l-39 -178h-147l36 176q-117 4 -210 36t-170 83z" />
<glyph unicode="%" horiz-adv-x="1712" d="M178 979q0 100 32 184t89 143.5t135 93.5t168 34q135 0 207 -71.5t72 -186.5q0 -94 -30 -176t-85 -141.5t-135 -94.5t-178 -35q-127 0 -201 63.5t-74 186.5zM305 0l1020 1415h184l-1022 -1415h-182zM365 975q0 -63 32.5 -87t89.5 -24q51 0 89 24.5t65 67.5t40 101t13 121 q0 121 -119 120q-53 0 -93 -24.5t-66.5 -67.5t-38.5 -102.5t-12 -128.5zM926 231q0 100 31.5 184.5t89 143.5t134 93t169.5 34q135 0 206.5 -71.5t71.5 -186.5q0 -94 -29.5 -176t-85 -141.5t-135.5 -94t-178 -34.5q-127 0 -200.5 63.5t-73.5 185.5zM1112 227q0 -63 32 -86.5 t91 -23.5q49 0 88 24.5t65.5 67.5t40 100.5t13.5 120.5q0 121 -119 121q-53 0 -93 -24.5t-66.5 -67.5t-39 -102.5t-12.5 -129.5z" />
<glyph unicode="&#x26;" horiz-adv-x="1417" d="M70 291q0 61 18 118.5t60 111.5t110 101.5t164 88.5q-70 70 -92.5 128t-22.5 122q0 80 35 151.5t96.5 125.5t146.5 86t187 32q152 0 242 -71t90 -181q0 -113 -62.5 -202t-220.5 -169l-73 -37l217 -268q18 23 33.5 63.5t27.5 81.5t19.5 75t7.5 42h190 q-23 -123 -62.5 -227.5t-99.5 -186.5l224 -276h-297l-86 109q-78 -61 -182.5 -99.5t-243.5 -38.5q-205 0 -315.5 88t-110.5 232zM315 315q0 -78 56.5 -128t165.5 -50q86 0 158.5 28t119.5 73l-291 350q-104 -49 -156.5 -114.5t-52.5 -158.5zM543 1016q0 -27 4 -48.5t15 -44 t30.5 -48t50.5 -60.5q66 27 115 62.5t73 76.5q16 29 27.5 58.5t11.5 62.5q0 55 -35.5 88t-95.5 33q-35 0 -70.5 -13.5t-63 -38t-45 -57t-17.5 -71.5z" />
<glyph unicode="'" horiz-adv-x="546" d="M264 909l113 541h211l-115 -541h-209z" />
<glyph unicode="(" horiz-adv-x="675" d="M156 242q0 94 13 203.5t36 213.5q53 244 140 419t222 300q76 70 163 123t175 88l37 -135q-68 -41 -118 -74.5t-89 -69.5t-70.5 -74t-60.5 -85q-53 -88 -93 -213t-75 -272q-25 -106 -42 -226.5t-17 -214.5q0 -156 44 -258t161 -178l-82 -123q-160 68 -252 213.5t-92 362.5 z" />
<glyph unicode=")" horiz-adv-x="673" d="M-203 -188q68 39 118 72.5t90 68.5t70.5 72.5t59.5 85.5q53 88 95 214t75 273q23 109 39 227.5t16 212.5q0 147 -42 254t-156 181l80 120q158 -70 249 -213t91 -362q0 -94 -13.5 -208t-33.5 -208q-53 -246 -141.5 -419t-223.5 -302q-154 -145 -340 -211z" />
<glyph unicode="*" horiz-adv-x="948" d="M197 1094l53 161l278 -98v293h172v-293l279 92l51 -162l-276 -90l174 -237l-140 -105l-178 242l-170 -235l-139 104l174 231z" />
<glyph unicode="+" horiz-adv-x="1191" d="M74 469l45 209h393l86 403h225l-86 -403h396l-46 -209h-393l-86 -403h-227l86 403h-393z" />
<glyph unicode="," horiz-adv-x="577" d="M-45 -193q68 27 118 68t50 76q0 10 -10.5 21.5t-22.5 19.5q-29 16 -47 51t-18 80q0 74 49 122t121 48q78 0 126 -50.5t48 -142.5q0 -74 -37 -144.5t-96 -127.5q-49 -47 -105.5 -78t-107.5 -47z" />
<glyph unicode="-" horiz-adv-x="704" d="M121 457l43 196h448l-43 -196h-448z" />
<glyph unicode="." horiz-adv-x="573" d="M47 135q0 66 47 113t113 47q68 0 116 -47t48 -113q0 -35 -13.5 -64.5t-35 -52t-51 -36t-62.5 -13.5q-68 0 -115 48.5t-47 117.5z" />
<glyph unicode="/" horiz-adv-x="831" d="M-104 -309l935 1868h170l-938 -1868h-167z" />
<glyph unicode="0" horiz-adv-x="1189" d="M106 358q0 70 14.5 147t42 148.5t68.5 136t93 113.5q78 72 175 113t214 41q184 0 281.5 -98t97.5 -293q0 -74 -16.5 -153t-47.5 -152.5t-76 -139t-100 -115.5q-76 -66 -168 -100.5t-203 -34.5q-184 0 -279.5 98.5t-95.5 288.5zM346 338q0 -111 45 -154t129 -43 q59 0 106.5 26t86.5 71q35 41 60.5 96t43 116.5t25.5 125t8 118.5q0 109 -45 151t-129 42q-61 0 -110.5 -28t-88.5 -75q-33 -41 -57.5 -97t-41 -117.5t-24.5 -122t-8 -109.5z" />
<glyph unicode="1" horiz-adv-x="905" d="M102 0l39 182h207l129 611q-70 -39 -139.5 -73t-142.5 -61l-33 136l432 260h160l-187 -873h183l-39 -182h-609z" />
<glyph unicode="2" horiz-adv-x="1118" d="M25 0l43 197q213 119 347 200.5t208.5 143t101.5 109.5t27 98q0 66 -41 96t-117 30q-68 0 -144.5 -33.5t-177.5 -105.5l-96 139q133 100 257 149.5t261 49.5q152 0 238 -73.5t86 -190.5q0 -100 -58.5 -190.5t-156.5 -163.5q-125 -94 -305 -195l-148 -82q18 2 45 3t57.5 2 t61.5 2t57 1h365l-88 -186h-823z" />
<glyph unicode="3" horiz-adv-x="1083" d="M-78 -203q39 -8 62.5 -9t68.5 -1q131 0 245 27.5t191 85.5q70 51 112 121.5t42 142.5q0 55 -26.5 95t-81.5 56q-16 6 -34 9.5t-39.5 4.5t-50 2t-69.5 1h-70l39 180q43 -6 86 -6q66 0 122 6t97 27q63 31 95 87t32 115q0 63 -44 99.5t-126 36.5q-92 0 -179 -37t-161 -84 l-83 137q121 82 243.5 127t249.5 45q80 0 144.5 -21.5t110.5 -58.5t70.5 -88.5t24.5 -112.5q0 -121 -75.5 -221t-219.5 -147q49 -10 86 -35t63.5 -58.5t40 -75.5t13.5 -85q0 -111 -58.5 -208t-165 -170t-258 -116t-337.5 -43q-43 0 -68.5 1t-70.5 7z" />
<glyph unicode="4" horiz-adv-x="1112" d="M-39 0l35 160l618 895h238l-487 -709q-12 -18 -31 -44t-38.5 -50.5t-34.5 -44t-21 -25.5q8 2 22 4t37 2h246q4 0 15 -1t24 -1h30l4 21q2 8 3.5 15t3.5 11q8 37 21 90.5t32 114.5l78 260l186 43l-82 -383q-8 -35 -14 -62.5t-12 -51.5l-15 -58h23q10 0 22.5 1t22.5 1h92 l-41 -188h-102h-41q-8 0 -17 2q-2 -8 -2 -18q-2 -10 -2 -22.5t-4 -27.5l-63 -294l-224 -39l72 338q4 16 10 41q4 12 6 24q-12 -2 -24 -2q-10 -2 -23.5 -2h-25.5h-537z" />
<glyph unicode="5" horiz-adv-x="993" d="M-90 -188q86 -29 168 -29q96 0 179 27.5t146.5 75.5t102.5 111.5t49 137.5q12 98 -50.5 154.5t-172.5 56.5q-72 0 -147.5 -10t-131.5 -29l221 729h658l-74 -190h-420l-102 -334q41 6 63.5 8t55.5 2q86 0 153.5 -26.5t113.5 -73.5t67.5 -112.5t15.5 -145.5 q-10 -117 -70.5 -216.5t-158 -172t-227.5 -112.5t-279 -40q-41 0 -77 3t-73 14z" />
<glyph unicode="6" horiz-adv-x="1157" d="M96 391q0 209 99.5 395.5t279.5 341.5q66 57 142.5 106.5t156.5 91.5t160 73t153 51l19 -166q-147 -45 -282.5 -117.5t-235.5 -181.5q-41 -45 -79 -98t-73 -123q55 41 122 62.5t151 21.5q74 0 136 -24.5t108 -68.5t73 -106.5t27 -136.5q0 -117 -44 -215t-121 -171 t-179.5 -114t-219.5 -41q-188 0 -290.5 112t-102.5 308zM334 362q0 -100 50 -159.5t138 -59.5q61 0 113.5 27t90.5 73t60.5 108t22.5 134q0 92 -47 138.5t-127 46.5q-115 0 -258 -86q-20 -53 -31.5 -110.5t-11.5 -111.5z" />
<glyph unicode="7" horiz-adv-x="972" d="M-12 -397q55 147 145 319t199.5 341t226.5 320.5t223 258.5q-10 -4 -52 -5t-77 -1h-528l80 198h842l-52 -205q-20 -23 -72.5 -84t-121 -151t-147.5 -201.5t-153.5 -232.5t-138 -247t-100.5 -245z" />
<glyph unicode="8" horiz-adv-x="1187" d="M70 283q0 76 26.5 141t73.5 119.5t109.5 95.5t134.5 68q-76 35 -117 99t-41 142q0 92 40 171t111.5 136.5t171 89t216.5 31.5q86 0 154.5 -21.5t116.5 -58t72.5 -88t24.5 -108.5q0 -121 -91 -223.5t-245 -153.5q6 -2 19.5 -8t27 -13.5t26.5 -14.5t20 -11 q66 -39 108.5 -103.5t42.5 -142.5q0 -94 -40 -179t-115.5 -149.5t-187.5 -102.5t-255 -38q-199 0 -301 90t-102 232zM313 309q0 -84 56.5 -132t160.5 -48q70 0 124.5 20.5t92 56.5t57 82t19.5 97q0 37 -13 65.5t-44 54t-82 52.5t-129 61q-106 -45 -174 -121.5t-68 -187.5z M485 999q0 -61 45 -101t146 -89q119 53 184.5 119.5t65.5 152.5q0 61 -48.5 96t-136.5 35q-111 0 -183.5 -57t-72.5 -156z" />
<glyph unicode="9" d="M-74 -279q111 25 222.5 75t208 118t171 147.5t113.5 161.5q-55 -35 -110.5 -52t-127.5 -17q-74 0 -135 27.5t-105 74.5t-68.5 112.5t-24.5 143.5q0 119 46 221.5t123.5 177t181 116.5t220.5 42q180 0 282.5 -102t102.5 -295q0 -219 -106.5 -423t-307.5 -370 q-131 -109 -289.5 -186.5t-306.5 -112.5zM315 532q0 -92 47.5 -145t129.5 -53q59 0 114.5 21.5t116.5 68.5q29 68 45 132.5t16 121.5q0 100 -48 158.5t-136 58.5q-59 0 -111.5 -27.5t-91.5 -76t-60.5 -115t-21.5 -144.5z" />
<glyph unicode=":" horiz-adv-x="606" d="M66 131q0 66 47 113t112 47q68 0 115 -47t47 -113q0 -68 -47 -115t-113 -47q-68 0 -114.5 47t-46.5 115zM201 758q0 66 46 113t113 47q66 0 113 -47t47 -113q0 -68 -47 -115t-113 -47q-68 0 -113.5 47t-45.5 115z" />
<glyph unicode=";" horiz-adv-x="647" d="M-4 -193q68 27 120 67t52 81q0 10 -12.5 19.5t-24.5 17.5q-29 16 -47 51t-18 80q0 74 49 122t121 48q78 0 126 -50.5t48 -142.5q0 -74 -37 -144.5t-97 -127.5q-47 -43 -104 -76t-109 -49zM209 758q0 66 46 113t112 47q68 0 114.5 -47t46.5 -113q0 -68 -47 -115t-112 -47 q-68 0 -114 47t-46 115z" />
<glyph unicode="&#x3c;" horiz-adv-x="712" d="M49 612l576 590l149 -145l-432 -445l244 -446l-211 -141z" />
<glyph unicode="=" horiz-adv-x="1292" d="M66 330l43 205h1097l-41 -205h-1099zM145 707l43 204h1100l-43 -204h-1100z" />
<glyph unicode="&#x3e;" horiz-adv-x="710" d="M-2 166l430 446l-242 445l211 145l324 -590l-574 -587z" />
<glyph unicode="?" horiz-adv-x="905" d="M199 129q0 61 44 105.5t107 44.5q61 0 104.5 -44.5t43.5 -105.5q0 -63 -44 -107.5t-108 -44.5q-61 0 -104 44.5t-43 107.5zM248 1292q33 25 76 50.5t93 46t108.5 34t123.5 13.5q150 0 233 -77t83 -200q0 -104 -65.5 -196.5t-192.5 -169.5q-127 -78 -171 -167t-49 -184 h-192q-12 295 256 459q78 47 130 97.5t52 115.5q0 66 -42 97.5t-107 31.5q-80 0 -145.5 -32.5t-119.5 -67.5z" />
<glyph unicode="@" horiz-adv-x="1855" d="M111 410q0 180 60 338.5t169 276.5t261.5 186.5t336.5 68.5q172 0 320.5 -50t258 -144.5t172 -226.5t62.5 -294q0 -135 -37 -244.5t-100.5 -187.5t-148.5 -120t-179 -42q-121 0 -175 53.5t-60 125.5q-53 -66 -134 -110t-174 -44q-47 0 -92 17.5t-79.5 54t-57 93 t-22.5 132.5q0 123 35.5 236.5t107.5 202.5t177.5 142.5t244.5 53.5q76 0 145.5 -19.5t134.5 -54.5q-41 -137 -70.5 -274.5t-58.5 -276.5q-12 -59 -14 -97t8 -59.5t32.5 -29.5t57.5 -8q55 0 103.5 34.5t85.5 95t58.5 144.5t21.5 182q0 119 -44 224.5t-126 183.5t-197 124 t-256 46q-150 0 -267.5 -62.5t-199.5 -165t-125 -234.5t-43 -271q0 -135 45 -247t125 -192t189.5 -124t238.5 -44q84 0 156.5 11.5t138.5 33.5l37 -139q-76 -25 -161 -36t-171 -11q-162 0 -306 48t-251.5 142.5t-170 233.5t-62.5 324zM680 285q0 -82 26.5 -111t79.5 -29 q31 0 71 16.5t77 49.5t67.5 83t45.5 118l79 366q-31 14 -84 15q-96 0 -164.5 -47.5t-112.5 -121t-64.5 -163.5t-20.5 -176z" />
<glyph unicode="A" horiz-adv-x="1173" d="M-113 0l770 1417h271l153 -1417h-247l-33 379h-465l-197 -379h-252zM436 573h346l-26 328q-4 25 -6 71t-7 93q-4 53 -6 113q-18 -41 -37 -82q-16 -35 -35.5 -75t-35.5 -73z" />
<glyph unicode="B" horiz-adv-x="1208" d="M61 0l304 1415h442q203 0 300 -82t97 -225q0 -117 -74.5 -215t-234.5 -143q113 -23 169 -101t56 -184q0 -78 -38 -168t-115 -162q-41 -37 -83 -62.5t-95.5 -42t-121 -23.5t-155.5 -7h-451zM336 193h225q63 0 110.5 15t82.5 40q47 33 77.5 93t30.5 126q0 86 -48 128 t-175 42h-209zM471 831h205q66 0 108.5 12.5t73.5 37.5q39 31 63.5 76t24.5 104q0 78 -43 117t-155 39h-197z" />
<glyph unicode="C" d="M102 479q0 86 15.5 177.5t45.5 180.5t73 172t98 150q111 137 260 209t307 72q104 0 190.5 -30t139.5 -83l-135 -153q-47 43 -104.5 61t-125.5 18q-94 0 -177 -47t-146 -129q-43 -55 -78 -133t-58.5 -162t-36 -165.5t-12.5 -145.5q0 -154 74 -231.5t213 -77.5 q72 0 135.5 23.5t141.5 72.5l84 -156q-193 -127 -424 -127q-227 0 -353.5 134.5t-126.5 369.5z" />
<glyph unicode="D" horiz-adv-x="1277" d="M61 0l304 1415h315q84 0 150.5 -5t120 -19.5t96.5 -38t77 -62.5q59 -63 90 -151.5t31 -223.5q0 -90 -19.5 -190t-55 -197.5t-86 -184.5t-113.5 -148q-53 -53 -108.5 -90t-121 -61t-144.5 -34t-179 -10h-357zM342 193h145q115 0 196 39.5t130 107.5q49 70 84 151.5 t55.5 160.5t29.5 147.5t9 109.5q0 68 -9 122t-36 95q-37 57 -92 80t-145 23h-148z" />
<glyph unicode="E" horiz-adv-x="1013" d="M61 0l304 1415h790l-72 -192h-524l-80 -387h436l-41 -195h-436l-92 -438h572l-44 -203h-813z" />
<glyph unicode="F" horiz-adv-x="882" d="M61 0l304 1415h757l-71 -190h-490l-82 -385h400l-41 -193h-400l-137 -647h-240z" />
<glyph unicode="G" horiz-adv-x="1327" d="M125 475q0 113 22.5 224.5t64.5 212t99.5 186.5t126.5 147q115 102 230.5 145.5t255.5 43.5q246 0 389 -150l-142 -143q-63 57 -131.5 79.5t-150.5 22.5q-80 0 -150.5 -29.5t-128.5 -83.5q-55 -53 -98 -137t-71.5 -177t-44 -186t-15.5 -163q0 -156 80 -230.5t215 -74.5 q55 0 104 10t92 33l80 368h-243v193h520l-144 -674q-106 -57 -226 -84.5t-238 -27.5q-119 0 -211.5 36.5t-156 102t-96 157t-32.5 199.5z" />
<glyph unicode="H" horiz-adv-x="1290" d="M61 0l304 1415h231l-121 -567h488l122 567h238l-303 -1415h-236l140 655h-490l-139 -655h-234z" />
<glyph unicode="I" horiz-adv-x="569" d="M61 0l304 1415h237l-301 -1415h-240z" />
<glyph unicode="J" horiz-adv-x="571" d="M-174 -174q70 37 117 71.5t78.5 80t53 109t40.5 155.5l247 1173h242l-246 -1155q-18 -90 -41.5 -171t-70.5 -152.5t-127 -133t-211 -110.5z" />
<glyph unicode="K" horiz-adv-x="1181" d="M61 0l301 1415h240l-301 -1415h-240zM461 752l629 684l258 -41l-629 -652l371 -733l-283 -24z" />
<glyph unicode="L" horiz-adv-x="944" d="M61 0l304 1415h237l-258 -1218h528l-79 -197h-732z" />
<glyph unicode="M" horiz-adv-x="1669" d="M20 0l431 1415h311l47 -801q2 -39 3 -67.5t1 -55v-53t-2 -59.5q27 70 49.5 121t50.5 110l396 805h315l-176 -1415h-229l120 877q10 68 21.5 137t19.5 102q-25 -59 -49 -112.5t-53 -108.5l-449 -895h-200l-52 856q-4 66 -7 130q-2 39 -2 79q0 26 1 53q-4 -18 -12 -49 t-17.5 -67.5t-20.5 -75.5t-19 -72l-244 -854h-234z" />
<glyph unicode="N" horiz-adv-x="1296" d="M61 0l304 1415h260l206 -713q16 -55 28.5 -109t22 -102.5t14.5 -87t7 -59.5q2 23 8.5 70t15.5 105.5t20 119.5t22 115l133 661h227l-301 -1415h-244l-188 682q-18 66 -34.5 131.5t-29 121.5t-20.5 99t-10 62q-4 -25 -10.5 -70t-15.5 -99.5t-20.5 -113.5t-21.5 -115 l-139 -698h-234z" />
<glyph unicode="O" horiz-adv-x="1400" d="M127 481q0 135 27.5 256t73.5 224.5t107.5 185.5t127.5 137q76 63 177 107.5t261 44.5q223 0 344 -130t121 -366q0 -129 -28.5 -261t-82 -249t-130 -211t-173.5 -149q-82 -47 -168 -71t-190 -24q-123 0 -211 37t-144.5 103.5t-84 160t-27.5 205.5zM383 438 q0 -152 64.5 -217t187.5 -65q150 0 254 112q49 55 89 142.5t67.5 186.5t43 200.5t15.5 183.5q0 123 -56.5 197.5t-189.5 74.5q-88 0 -161.5 -38.5t-123.5 -104.5q-43 -55 -77.5 -135t-60 -170t-39 -184.5t-13.5 -182.5z" />
<glyph unicode="P" horiz-adv-x="1148" d="M61 0l304 1415h368q131 0 213 -19.5t135 -54.5q63 -43 96 -108t33 -143q0 -160 -65.5 -275t-169.5 -180q-90 -55 -173 -75.5t-196 -20.5h-192l-115 -539h-238zM455 731h184q86 0 135 18.5t84 53.5q47 47 72.5 110t25.5 129q0 88 -51 134.5t-168 46.5h-178z" />
<glyph unicode="Q" horiz-adv-x="1400" d="M129 481q0 135 26.5 255t72.5 222.5t106.5 184.5t126.5 139q76 66 178 110t262 44q223 0 344 -130t121 -366q0 -117 -21.5 -233.5t-63.5 -224t-103.5 -198.5t-141.5 -159q-66 -57 -143 -92q35 -12 69.5 -36t61.5 -40q31 -20 84 -39.5t106 -19.5q39 0 72 4t37 6l-74 -150 q-10 -4 -41.5 -11t-83.5 -7q-68 0 -139.5 30.5t-130.5 71.5q-66 45 -129 80t-135 53q-121 0 -207 37t-143.5 103.5t-84 160t-26.5 205.5zM383 438q0 -152 65.5 -217t186.5 -65q74 0 138.5 26.5t117.5 85.5q49 55 89 142.5t67.5 186.5t43 200.5t15.5 183.5q0 123 -56.5 197.5 t-189.5 74.5q-90 0 -163.5 -38.5t-123.5 -104.5q-43 -55 -77.5 -139t-59 -176.5t-39 -186.5t-14.5 -170z" />
<glyph unicode="R" horiz-adv-x="1144" d="M61 0l301 1415h435q193 0 288 -81.5t95 -235.5q0 -102 -34 -185.5t-91.5 -143.5t-134 -98t-162.5 -46l-21 -2q66 -59 129 -183q18 -37 47 -104.5t54.5 -136t46 -122.5t24.5 -67l-256 -20q-6 14 -18 47t-26.5 70.5t-28 72.5t-19.5 53q-29 78 -54.5 132.5t-47 93.5 t-40 64.5t-34.5 45.5q-23 27 -40 34t-46 7l-131 -610h-236zM465 778h115q92 0 147 12.5t96 47.5q45 35 75 94.5t30 118.5q0 92 -53.5 133t-165.5 41h-150z" />
<glyph unicode="S" horiz-adv-x="1191" d="M0 92l121 182q86 -53 166 -80.5t188 -27.5q152 0 240 71.5t88 184.5q0 68 -38 113t-130 79l-141 54q-123 47 -186.5 117.5t-63.5 195.5q0 100 44 186t120.5 149.5t180 99.5t224.5 36t229.5 -35t184.5 -98l-135 -166q-74 55 -148 79.5t-166 24.5q-57 0 -107 -16t-87 -44 t-57.5 -64.5t-20.5 -79.5q0 -61 31.5 -102.5t119.5 -73.5l158 -58q135 -49 196.5 -131t61.5 -205q0 -106 -44 -199.5t-127 -163t-201.5 -109.5t-268.5 -40q-135 0 -239.5 32t-192.5 89z" />
<glyph unicode="T" horiz-adv-x="974" d="M186 1221l41 194h985l-73 -194h-357l-258 -1221h-237l260 1221h-361z" />
<glyph unicode="U" horiz-adv-x="1296" d="M131 279q0 33 4 77.5t15 89.5l206 969h238l-197 -919q-12 -55 -17 -94.5t-5 -67.5q0 -45 17.5 -76t47 -49.5t66.5 -25.5t78 -7q94 0 160.5 37t101.5 94q10 16 17 31.5t14.5 35t13.5 46t14 63.5l199 932h235l-204 -966q-16 -72 -30.5 -125.5t-34 -95.5t-47.5 -74.5 t-69 -61.5q-29 -20 -64.5 -41.5t-83.5 -38t-111.5 -28t-145.5 -11.5q-193 0 -305.5 79t-112.5 227z" />
<glyph unicode="V" horiz-adv-x="1187" d="M197 1415h249l84 -831q6 -66 10 -142q3 -52 4 -97q0 -20 -1 -38q23 49 61.5 127t83.5 162l445 819h251l-790 -1421h-219z" />
<glyph unicode="W" horiz-adv-x="1650" d="M197 1415h243l2 -674q0 -168 -8 -289.5t-12 -166.5q12 33 29.5 81t39 106t47 122.5t54.5 130.5l301 690h258v-715q0 -57 -1 -121.5t-3 -123t-5 -102.5t-5 -58q8 25 27.5 78t44 117.5t52 134t54.5 131.5l282 659h250l-637 -1419h-272l-6 663v51q0 113 7 208q9 116 13 176 q-6 -18 -22.5 -64.5t-39 -106t-48 -127t-51.5 -128.5l-285 -672h-275z" />
<glyph unicode="X" horiz-adv-x="1054" d="M-135 0l604 762l-250 653h270l150 -446l319 446h283l-512 -672l285 -743h-275l-184 541l-393 -541h-297z" />
<glyph unicode="Y" horiz-adv-x="1105" d="M176 1415h275l120 -452q12 -47 21.5 -90.5t13.5 -81.5q23 33 50.5 77.5t62.5 92.5l319 454h285l-635 -846l-123 -569h-243l122 573z" />
<glyph unicode="Z" horiz-adv-x="1067" d="M-12 0l24 170l754 924q35 43 67.5 79.5t47.5 51.5q-14 -2 -51 -3t-95 -1h-467l76 194h832l-19 -176l-747 -934q-31 -39 -58.5 -67.5t-42.5 -44.5q16 2 53 3t76 1h508l-80 -197h-878z" />
<glyph unicode="[" horiz-adv-x="698" d="M-6 -319l387 1818h389l-35 -158h-186l-320 -1503h189l-35 -157h-389z" />
<glyph unicode="\" horiz-adv-x="847" d="M229 1495l207 43l277 -1585l-203 -45z" />
<glyph unicode="]" horiz-adv-x="698" d="M-78 -319l35 157h186l320 1503h-189l35 158h391l-387 -1818h-391z" />
<glyph unicode="^" horiz-adv-x="1245" d="M123 641l579 809h222l235 -809h-227l-166 588l-412 -588h-231z" />
<glyph unicode="_" horiz-adv-x="985" d="M-178 -264l24 110h1026l-26 -110h-1024z" />
<glyph unicode="`" horiz-adv-x="626" d="M223 1352l115 192l410 -270l-76 -127z" />
<glyph unicode="a" horiz-adv-x="1069" d="M63 305q0 174 59.5 328.5t160.5 259.5q166 168 411 168q90 0 175.5 -18.5t146.5 -59.5q-14 -43 -32.5 -112.5t-29.5 -125.5l-84 -409q-14 -65 -14 -108q0 -20 3 -36q9 -50 48 -90l-184 -137q-41 35 -59.5 77t-18.5 93q-55 -76 -133 -118t-178 -42q-123 0 -197 82t-74 248 zM295 311q0 -86 27.5 -120.5t85.5 -34.5q35 0 71.5 16t69.5 44t59.5 63.5t44.5 74.5l111 508q-16 10 -43 15.5t-53 5.5q-70 0 -124.5 -21.5t-113.5 -93.5q-35 -41 -60.5 -97.5t-42 -117.5t-24.5 -123.5t-8 -118.5z" />
<glyph unicode="b" horiz-adv-x="1146" d="M78 86q10 27 21.5 72t19.5 80l190 903q19 98 25 173q2 21 2 41q0 49 -10 87l233 78q12 -42 11 -107v-29q-3 -84 -23 -176l-33 -153q-4 -14 -9 -37t-11.5 -46.5t-12.5 -45t-10 -33.5q53 72 140 120t186 48q143 0 210.5 -93t67.5 -259q0 -190 -74.5 -354.5t-201.5 -268.5 q-72 -59 -151 -86t-163 -27q-55 0 -112.5 7.5t-110.5 21.5t-100 34.5t-84 49.5zM334 201q27 -25 69.5 -39.5t102.5 -14.5q84 0 144.5 60.5t100.5 148.5t59 184.5t19 170.5q0 78 -29.5 119.5t-88.5 41.5q-72 0 -142.5 -52t-132.5 -140z" />
<glyph unicode="c" horiz-adv-x="901" d="M86 330q0 92 21.5 183t57.5 172t84 147.5t101 111.5q72 59 151 90t177 31q74 0 142.5 -26.5t121.5 -82.5l-123 -151q-41 41 -86 58.5t-92 17.5q-96 0 -168 -84q-29 -35 -54.5 -89.5t-45 -119t-31.5 -132t-12 -126.5q0 -92 40 -138.5t113 -46.5q59 0 119 29t117 80 l82 -141q-86 -70 -173 -104t-194 -34q-174 0 -261 92.5t-87 262.5z" />
<glyph unicode="d" horiz-adv-x="1128" d="M88 336q0 156 59.5 309.5t167.5 261.5q74 72 165 109t182 37q70 0 121 -9.5t77 -23.5q0 4 3 21.5t7 39t8.5 44t8.5 34.5l74 348l215 -37l-236 -1110q-18 -82 -25.5 -137t-7.5 -93t6.5 -61.5t16.5 -41.5l-193 -45q-19 24 -31 62q-9 28 -9 62q0 12 1 25 q-122 -151 -303 -151h-2q-156 0 -230.5 90t-74.5 266zM324 332q0 -172 125 -172q33 0 68.5 13t70.5 38t66.5 58.5t56.5 74.5l104 485q-33 23 -68.5 32t-93.5 9q-49 0 -100 -23.5t-88 -70.5q-31 -39 -57.5 -93t-45 -114.5t-28.5 -122t-10 -114.5z" />
<glyph unicode="e" horiz-adv-x="1034" d="M90 352q0 78 16.5 157t46 152.5t72.5 140t97 118.5q78 74 163.5 107.5t186.5 33.5q152 0 239.5 -69t87.5 -208q0 -127 -92 -215q-66 -63 -173 -97t-267 -34q-43 0 -77 4t-48 4q-4 -16 -8 -50t-4 -58q0 -98 51 -144.5t137 -46.5q82 0 151.5 28t141.5 85l70 -139 q-94 -76 -192.5 -112t-229.5 -36q-166 0 -267.5 96.5t-101.5 282.5zM379 606q10 0 36.5 -3t53.5 -3q94 0 158.5 15.5t101.5 52.5q43 43 43 102q0 53 -28.5 88t-100.5 35q-88 0 -158.5 -69.5t-105.5 -217.5z" />
<glyph unicode="f" horiz-adv-x="591" d="M-66 -328q45 53 86 137.5t62 184.5l174 883h-102l32 159h99l24 142q18 104 65.5 169.5t112.5 106.5q82 49 207 49q66 0 122 -16.5t97 -42.5l-94 -148q-66 39 -127 39q-59 0 -102 -37.5t-55 -107.5l-29 -154h272l-94 -159h-207l-174 -889q-29 -145 -87 -253t-130 -179z " />
<glyph unicode="g" horiz-adv-x="1138" d="M-41 -342l78 160q129 -78 303 -78q131 0 201.5 50t99.5 161q2 8 7 30.5t11.5 47t11.5 46t7 27.5q-59 -66 -130 -95.5t-155 -29.5q-305 0 -305 353q0 80 16.5 162.5t46 159.5t72.5 143.5t96 115.5q78 72 174.5 112t213.5 40q125 0 212 -18.5t171 -61.5l-8.5 -25.5 t-12.5 -44t-13 -52t-14 -52.5l-108 -506q-27 -119 -40 -206t-28 -146q-25 -109 -75 -182.5t-120.5 -118.5t-159.5 -64.5t-189 -19.5q-201 0 -363 92zM326 336q0 -92 34.5 -136t100.5 -44q70 0 139.5 50t116.5 134l110 510q-45 29 -139 29q-53 0 -112.5 -25t-100.5 -72 q-33 -37 -60.5 -92t-47 -116.5t-30.5 -124t-11 -113.5z" />
<glyph unicode="h" horiz-adv-x="1155" d="M61 0l242 1139q25 113 28 183q1 14 1 28q0 53 -10 92l229 78q8 -25 10 -62q1 -18 1 -39t-1 -43q-2 -45 -9 -95t-17 -99l-31 -144q-6 -29 -18.5 -78t-22.5 -77q74 88 173 134t193 46q115 0 173.5 -55.5t58.5 -147.5q0 -25 -3 -55.5t-14 -71.5l-155 -733h-221l147 698 q4 25 8 47.5t4 38.5q-2 88 -96 88q-31 0 -69.5 -15t-79.5 -40.5t-81 -61.5t-73 -79l-143 -676h-224z" />
<glyph unicode="i" horiz-adv-x="550" d="M61 0l218 1024l235 35l-223 -1059h-230zM311 1335q0 63 44 107.5t108 44.5q61 0 104 -44.5t43 -105.5q0 -63 -43 -107t-106 -44q-61 0 -105.5 44t-44.5 105z" />
<glyph unicode="j" horiz-adv-x="534" d="M-158 -295q43 18 79 49t59 62q27 37 44 86t33 125l211 995l232 39l-219 -1032q-29 -127 -63 -199t-73 -113q-43 -47 -100 -82.5t-129 -64.5zM297 1343q2 63 46 107.5t108 44.5q61 0 105 -45q42 -42 42 -102v-5q-2 -61 -45 -105t-107 -44q-61 0 -106 43q-43 41 -43 101v5z " />
<glyph unicode="k" horiz-adv-x="1001" d="M61 0l244 1145q23 98 26 174q1 15 1 29q0 56 -10 94l233 78q11 -33 11 -99q0 -19 -1 -39q-4 -96 -33 -233l-245 -1149h-226zM420 592l428 463l242 -41l-441 -428l312 -572l-252 -28z" />
<glyph unicode="l" horiz-adv-x="550" d="M92 137q0 23 5 63t16 83l182 854q23 104 28 179q1 17 1 33q0 54 -13 93l238 78q6 -25 8 -64q1 -16 1 -32q0 -25 -2 -53q-3 -46 -9 -97t-17 -100l-178 -836q-14 -61 -19 -94t-5 -51q0 -55 49 -56h18t17 4l12 -137q-68 -27 -152 -27q-90 0 -135 44.5t-45 115.5z" />
<glyph unicode="m" horiz-adv-x="1634" d="M61 0l154 723q16 82 16 146.5t-14 113.5l209 86q16 -35 22 -89q2 -18 1 -35q0 -35 -7 -68q92 98 181.5 140t173.5 42q174 0 184 -182q94 100 185 142t173 42q90 0 145.5 -55.5t55.5 -153.5q0 -29 -5 -62.5t-11 -66.5l-154 -723h-221l149 700q12 55 13 95q0 73 -80 73h-2 q-57 0 -129 -52t-133 -138l-146 -678h-217l146 688q8 35 13 64.5t5 46.5q0 35 -16.5 52t-57.5 17q-55 0 -127.5 -50t-144.5 -142l-143 -676h-218z" />
<glyph unicode="n" horiz-adv-x="1116" d="M61 0l152 717q18 93 19 151v6q0 55 -15 109l209 86q16 -35 22 -88q2 -20 3 -40q0 -34 -7 -67q74 90 169.5 137.5t203.5 47.5q98 0 152.5 -55.5t54.5 -149.5q0 -27 -2 -56.5t-8 -56.5l-158 -741h-223l145 686q14 63 15 100q0 45 -20.5 63.5t-61.5 18.5q-55 0 -129 -43 t-156 -149l-143 -676h-222z" />
<glyph unicode="o" horiz-adv-x="1107" d="M74 346q0 150 43 280t121.5 227t186 152.5t237.5 55.5q180 0 273 -96.5t93 -268.5q0 -141 -39 -272t-114.5 -230.5t-186 -159t-254.5 -59.5q-174 0 -267 95.5t-93 275.5zM315 326q0 -94 42 -137.5t118 -43.5t133.5 52.5t96 133.5t59 180.5t20.5 193.5q0 104 -44 144 t-113 40q-78 0 -135.5 -55.5t-97.5 -138.5t-59.5 -182t-19.5 -187z" />
<glyph unicode="p" horiz-adv-x="1140" d="M-31 -440l248 1167q18 85 18 140v11q-2 56 -18 105l209 86q16 -31 24 -83q3 -25 3 -51q0 -27 -4 -54q68 82 162 129t186 47q133 0 202.5 -91t69.5 -247q0 -70 -14.5 -150t-40 -157.5t-62.5 -147t-80 -119.5q-72 -80 -168 -124t-196 -44q-70 0 -127 11.5t-98 34.5 q0 -8 -6.5 -38t-10.5 -53l-67 -319zM326 203q25 -25 71.5 -39t98.5 -14q70 0 122 32.5t82 77.5q29 43 52.5 100.5t40 119t24.5 122t8 109.5q0 82 -27.5 118.5t-90.5 36.5q-61 0 -136 -47t-145 -145z" />
<glyph unicode="q" horiz-adv-x="1136" d="M88 322q0 82 16.5 164.5t45 158.5t70.5 141.5t91 114.5q80 78 181.5 120t234.5 42q117 0 207 -19.5t156 -62.5q-14 -41 -32 -106.5t-32 -133.5l-240 -1126l-225 -53l82 389q12 59 24.5 105t18.5 61q-63 -72 -142 -106t-163 -34q-143 0 -218 85t-75 260zM328 336 q2 -102 38.5 -141t96.5 -39q66 0 133.5 45t126.5 147l111 512q-29 14 -65 17.5t-85 3.5q-51 0 -101.5 -22.5t-90.5 -57.5q-41 -35 -73 -94.5t-52.5 -125t-29.5 -131t-9 -114.5z" />
<glyph unicode="r" horiz-adv-x="735" d="M61 0l148 692q24 108 24 176q0 64 -16 115l209 86q16 -41 22 -95q2 -18 2 -36q0 -36 -8 -72q72 90 153 142.5t157 52.5q29 0 46 -3t40 -14l-99 -213q-27 16 -71 17q-53 0 -113.5 -43t-128.5 -139l-141 -666h-224z" />
<glyph unicode="s" horiz-adv-x="960" d="M-25 78l91 166q66 -45 150.5 -74t172.5 -29q86 0 142.5 42t56.5 108q0 49 -30 77.5t-101 57.5l-119 45q-92 35 -143.5 92.5t-51.5 155.5q0 68 28 131t85 112.5t141 79t199 29.5q92 0 177 -24.5t147 -63.5l-91 -158q-125 72 -247 72q-82 0 -135.5 -30.5t-53.5 -96.5 q0 -41 24.5 -69.5t86.5 -51.5l123 -47q96 -37 153.5 -95t57.5 -151q0 -80 -32 -150.5t-93.5 -122.5t-150.5 -83t-204 -31q-109 0 -206 29t-177 80z" />
<glyph unicode="t" horiz-adv-x="622" d="M106 145q0 29 3.5 66t11.5 76l125 590h-117l33 159h117q16 72 31.5 132.5t35.5 119.5l240 55q-23 -66 -45.5 -149.5t-38.5 -157.5h248l-84 -159h-199l-117 -558q-12 -59 -12 -100q0 -49 23.5 -67.5t72.5 -18.5q25 0 52.5 5t52.5 16v-140q-109 -43 -215 -43 q-104 0 -161 48.5t-57 125.5z" />
<glyph unicode="u" d="M102 180q0 68 19 158l143 680l232 43l-144 -680q-10 -41 -15 -78t-5 -59q0 -98 82 -99q33 0 71.5 15.5t77.5 43t74 64.5t61 80l144 666l227 43l-164 -766q-12 -58 -12 -103q0 -18 2 -32q6 -54 35 -97l-189 -98q-29 35 -46 78q-15 38 -15 88v12q-74 -80 -160 -125 t-180 -45q-113 0 -175.5 53.5t-62.5 157.5z" />
<glyph unicode="v" horiz-adv-x="931" d="M111 1024l229 35l68 -574q6 -51 9 -112.5t3 -106.5q8 20 22.5 52t29.5 64t29.5 61.5t24.5 48.5l297 544l244 -2l-604 -1038h-197z" />
<glyph unicode="w" horiz-adv-x="1411" d="M123 1022l225 33l8 -520v-87.5t-2 -85.5l-4 -90h2q2 8 13.5 36t28 67t36 83t39.5 87l242 491h219l22 -491q2 -49 3 -98.5t1 -88.5t-1 -64l-1 -24h2q4 12 15.5 41t25 66t29.5 77t31 72l223 510h238l-517 -1040h-206l-25 385q-6 92 -9 158.5t-3 111.5t1 73t3 44h-4 q-4 -14 -10.5 -31.5t-22.5 -50.5q-8 -18 -22.5 -50t-31 -68t-32.5 -71.5t-29 -62.5l-211 -438h-211z" />
<glyph unicode="x" horiz-adv-x="901" d="M-158 0l510 565l-207 445l244 43q6 -16 23.5 -62.5t37 -97.5t36 -98t22.5 -68q10 16 44 62.5t72 96.5t70.5 94t42.5 56h271l-418 -485l266 -551h-266q-10 31 -35 90.5t-49.5 120.5t-44 112.5t-21.5 65.5q-4 -8 -26.5 -36.5t-53 -67.5t-66.5 -84t-68.5 -85l-58.5 -72 t-36 -44h-289z" />
<glyph unicode="y" horiz-adv-x="989" d="M-25 -291q47 8 97.5 30.5t85.5 47.5q51 35 84.5 82t74.5 131l-71 -4q0 27 -2 68.5t-5 87t-8.5 90.5t-9.5 80l-90 700l234 33l57 -629q2 -29 4 -63.5t3 -66.5t1 -59.5v-43.5h2q16 41 51 116.5t76 153.5l299 573h246l-547 -977q-45 -80 -82 -144.5t-71.5 -114.5t-68.5 -87 t-71 -61q-51 -35 -113.5 -59.5t-127.5 -34.5z" />
<glyph unicode="z" horiz-adv-x="837" d="M-86 0l10 150l672 722h-457l17 164h727l-6 -159l-652 -715h506l-80 -162h-737z" />
<glyph unicode="{" horiz-adv-x="737" d="M72 498l39 184q25 0 61.5 9t72.5 30.5t65.5 56.5t39.5 84l76 359q14 72 46 125t73 86.5t89 50t95 16.5h184l-41 -186h-104q-41 0 -67.5 -13.5t-43 -34t-24.5 -46t-15 -50.5l-71 -344q-14 -70 -44 -113.5t-65 -69.5t-70.5 -36t-62.5 -14v-4q25 -4 55.5 -13.5t54 -34 t34 -69.5t-4.5 -117l-71 -344q-6 -25 -8.5 -50.5t6 -45.5t29 -33.5t61.5 -13.5h104l-39 -186h-184q-47 0 -88 16t-66.5 51t-35 88t7.5 125l73 354q10 51 -4 86t-40.5 56.5t-59.5 31t-57 9.5z" />
<glyph unicode="|" horiz-adv-x="612" d="M53 -424l418 1974h205l-418 -1974h-205z" />
<glyph unicode="}" horiz-adv-x="737" d="M-109 -319l41 186h105q39 0 65.5 13.5t44 33.5t25.5 46t14 50l72 342q14 74 45 119t65.5 69.5t69.5 34t62 13.5l2 4q-25 2 -56.5 13t-56 36t-36 69t4.5 115l74 344q6 25 7 50.5t-6 46t-28.5 34t-60.5 13.5h-104l39 186h188q45 0 84 -16.5t65.5 -51t34.5 -88t-6 -124.5 l-76 -357q-10 -49 4.5 -84t41 -56.5t59.5 -30.5t59 -9l-39 -184q-27 0 -63.5 -9.5t-72.5 -31t-65.5 -56t-39.5 -86.5l-74 -356q-14 -72 -45 -125t-72 -87t-89 -50t-97 -16h-185z" />
<glyph unicode="~" horiz-adv-x="1187" d="M123 610q47 59 89 95t80 55.5t70.5 26t59.5 6.5q45 0 90 -14.5t123 -55.5q63 -33 105 -52.5t96 -19.5q59 0 103 34t97 99l49 -159q-49 -59 -91 -94t-79.5 -53.5t-72.5 -23.5t-70 -5q-59 2 -107.5 23.5t-95.5 47.5q-53 29 -88 46.5t-86 17.5q-76 0 -126 -39t-93 -92z" />
<glyph unicode="&#xa1;" horiz-adv-x="616" d="M-4 -442l266 1013h170l-156 -974zM260 872q0 63 44 107.5t108 44.5q61 0 104 -44.5t43 -107.5t-44 -106t-105 -43q-63 0 -106.5 43t-43.5 106z" />
<glyph unicode="&#xa2;" horiz-adv-x="909" d="M84 302q-6 93 18 208q27 131 81.5 228.5t122 165t142 105.5t144.5 50l39 180h155l-38 -178q37 -4 95 -30.5t105 -78.5l-131 -145q-27 33 -75 55.5t-101 22.5q-55 0 -101 -30t-83 -82t-64.5 -123.5t-46.5 -155.5q-35 -162 -4 -255.5t139 -93.5q66 0 130.5 31t109.5 76 l78 -137q-78 -63 -142.5 -92t-138.5 -39l-41 -193h-153l41 193q-176 23 -240 155q-35 70 -41 163z" />
<glyph unicode="&#xa3;" horiz-adv-x="1175" d="M14 0l43 201h207l96 454h-196l37 176h196l33 154q49 233 200.5 361.5t381.5 128.5q106 0 197 -34t155 -106l-184 -161q-35 43 -88.5 63t-106.5 20q-72 0 -124 -23.5t-90 -64.5t-61.5 -95t-35.5 -116l-27 -127h324l-37 -176h-326l-96 -454h512l-43 -201h-967z" />
<glyph unicode="&#xa4;" horiz-adv-x="1292" d="M82 457l37 178h211q12 74 35 156h-213l38 178h244q39 104 103.5 192t148.5 150.5t186.5 97.5t219.5 35q111 0 180 -22.5t114 -53.5l-88 -190q-92 80 -223 79q-76 0 -137 -22.5t-110.5 -61t-86 -92t-61.5 -112.5h459l-39 -178h-486q-10 -41 -17 -78t-15 -78h485l-37 -178 h-459q0 -55 14.5 -108.5t47.5 -95.5t88 -66.5t135 -24.5q76 0 138.5 18.5t133.5 65.5l11 -191q-41 -20 -78 -34.5t-77 -23.5t-86 -14.5t-103 -5.5q-113 0 -201 38t-148.5 102.5t-92 151.5t-31.5 188h-240z" />
<glyph unicode="&#xa5;" horiz-adv-x="1091" d="M2 297l37 172h369l22 104l-22 68h-332l37 172h241l-192 602h272l121 -452q12 -47 22.5 -90.5t14.5 -81.5q20 33 48 77.5t62 92.5l320 454h287l-453 -602h252l-37 -172h-342l-55 -72l-21 -100h381l-37 -172h-381l-63 -297h-246l64 297h-369z" />
<glyph unicode="&#xa6;" horiz-adv-x="532" d="M-27 -424l170 807h205l-170 -807h-205zM221 743l170 807h205l-170 -807h-205z" />
<glyph unicode="&#xa7;" horiz-adv-x="1089" d="M-45 -47l221 100q2 -41 21.5 -70.5t49 -48t67.5 -26.5t79 -8q43 0 84 11t72 32.5t49 53.5t18 71q0 29 -15 51t-40.5 40.5t-57.5 35t-63 34.5l-174 99q-29 14 -55.5 35.5t-47 50t-33.5 67.5t-13 90q0 117 74.5 200t185.5 138q-47 33 -72.5 76t-25.5 111q0 92 41.5 163.5 t110.5 123t157 78t180 26.5q61 0 121.5 -10.5t111 -35t88 -64.5t56.5 -97l-223 -117q-12 61 -63.5 91t-123.5 30q-37 0 -73.5 -11t-64.5 -31.5t-45 -50.5t-17 -65q0 -37 27.5 -67.5t74.5 -57.5l166 -88q47 -25 91 -54.5t78 -64t53 -77.5t19 -94q0 -113 -68.5 -194 t-166.5 -128q39 -33 60.5 -77t21.5 -101q0 -94 -41 -173t-113.5 -135.5t-174 -87t-222.5 -30.5q-143 0 -248.5 58.5t-136.5 197.5zM356 623q0 -29 12.5 -51.5t32 -40t43 -32t48.5 -26.5l172 -90q53 23 97 74t44 102q0 57 -43 94t-88 62l-160 88q-63 -25 -110.5 -69 t-47.5 -111z" />
<glyph unicode="&#xa8;" horiz-adv-x="872" d="M252 1288q0 57 41 97t98 40t97 -40t40 -97q0 -59 -39.5 -99t-99.5 -40q-57 0 -97 40t-40 99zM680 1288q0 57 40 97t99 40q57 0 97 -40t40 -97q0 -59 -39.5 -99t-97.5 -40q-59 0 -99 40t-40 99z" />
<glyph unicode="&#xa9;" horiz-adv-x="1753" d="M172 727q0 160 60.5 298t163 241.5t240.5 163t294 59.5t294 -59.5t240.5 -163t163 -241.5t60.5 -298t-60.5 -299t-163 -241.5t-241 -162t-293.5 -59.5q-156 0 -294 59.5t-240.5 162t-163 241.5t-60.5 299zM346 727q0 -127 46 -239.5t125 -195.5t185.5 -131t227.5 -48 t227.5 48t186 131t126 195.5t46.5 239.5t-46.5 238.5t-126 194.5t-186 130t-227.5 47t-227.5 -47t-185.5 -130t-125 -194.5t-46 -238.5zM569 711q0 158 58 266q49 94 136 146.5t191 52.5q63 0 122 -19.5t93 -48.5l-77 -117q-66 47 -136 47q-43 0 -82.5 -19.5t-62.5 -53.5 q-47 -72 -47 -220q0 -88 7 -141t28 -88q53 -96 164 -96q39 0 73.5 12t73.5 43l78 -108q-51 -41 -107.5 -60.5t-130.5 -19.5q-174 0 -278 119q-102 119 -103 305z" />
<glyph unicode="&#xaa;" horiz-adv-x="880" d="M113 489l30 140h701l-31 -140h-700zM236 1014q0 123 44 240.5t117 191.5q125 125 305 125q66 0 130.5 -14.5t117.5 -47.5q-12 -39 -25.5 -90t-21.5 -92l-63 -303q-14 -63 -6 -94t40 -66l-149 -110q-33 25 -47 50t-19 58q-41 -47 -95 -72.5t-122 -25.5q-90 0 -148 61.5 t-58 188.5zM424 1018q0 -100 72 -100q49 0 95 41.5t73 95.5l75 354q-25 10 -55 10q-47 0 -86 -16.5t-80 -63.5q-25 -31 -43 -69.5t-29.5 -81.5t-16.5 -87t-5 -83z" />
<glyph unicode="&#xab;" horiz-adv-x="1112" d="M106 506l420 457l142 -109l-334 -362l168 -355l-172 -96zM553 506l420 457l139 -109l-334 -362l168 -355l-170 -96z" />
<glyph unicode="&#xac;" horiz-adv-x="1030" d="M74 422l41 190h856l-103 -477h-204l61 287h-651z" />
<glyph unicode="&#xad;" horiz-adv-x="704" d="M121 457l43 196h448l-43 -196h-448z" />
<glyph unicode="&#xae;" horiz-adv-x="1753" d="M172 727q0 160 60.5 298t163 241.5t240.5 163t294 59.5t294 -59.5t240.5 -163t163 -241.5t60.5 -298t-60.5 -299t-163 -241.5t-241 -162t-293.5 -59.5q-156 0 -294 59.5t-240.5 162t-163 241.5t-60.5 299zM346 727q0 -127 46 -239.5t125 -195.5t185.5 -131t227.5 -48 t227.5 48t186 131t126 195.5t46.5 239.5t-46.5 238.5t-126 194.5t-186 130t-227.5 47t-227.5 -47t-185.5 -130t-125 -194.5t-46 -238.5zM664 305v854h317q115 0 183.5 -68.5t68.5 -181.5q0 -49 -15.5 -91t-41 -73.5t-60.5 -51t-74 -19.5q12 -10 19.5 -18.5t15.5 -18.5 q18 -23 52 -77t69 -111q39 -68 84 -144h-203q-12 20 -21 36.5t-18.5 32t-18.5 33t-22 39.5q-31 57 -53 95.5t-37.5 62t-27 35.5t-23.5 16q-12 6 -27 7v-357h-167zM831 791h58q55 0 83.5 6t45.5 22q33 33 33 86q0 80 -62 105q-14 4 -39.5 8t-56.5 4h-62v-231z" />
<glyph unicode="&#xaf;" horiz-adv-x="653" d="M215 1378l29 140h608l-29 -140h-608z" />
<glyph unicode="&#xb0;" horiz-adv-x="790" d="M195 1102q0 68 25.5 127t70.5 104t104.5 71t126.5 26q68 0 127.5 -26t104.5 -71t70.5 -104t25.5 -127t-25.5 -127.5t-70.5 -104.5t-104.5 -70.5t-127.5 -25.5t-127 25.5t-104 70.5t-70.5 104.5t-25.5 127.5zM354 1102q0 -72 48.5 -121t119.5 -49q72 0 120 49t48 121 t-48 121t-120 49t-120 -49t-48 -121z" />
<glyph unicode="&#xb1;" horiz-adv-x="995" d="M-4 33l43 192h811l-41 -192h-813zM111 590l41 194h307l59 277h205l-57 -277h307l-43 -194h-307l-60 -291h-207l62 291h-307z" />
<glyph unicode="&#xb2;" horiz-adv-x="671" d="M72 512l24 115q47 33 116 84t128 104q27 23 63.5 56.5t69.5 73.5t56.5 82t23.5 83q0 39 -23.5 57.5t-60.5 18.5q-49 0 -95 -22.5t-106 -61.5l-73 104q96 68 179 99.5t169 31.5q98 0 154.5 -51t56.5 -135q0 -68 -35 -130.5t-87 -118.5t-111.5 -104t-106.5 -85 q-18 -16 -41 -30.5t-39 -27.5q16 0 34.5 1t32.5 1h279l-70 -145h-538z" />
<glyph unicode="&#xb3;" horiz-adv-x="704" d="M102 612q25 -4 39.5 -7t24.5 -4t20.5 -1h22.5q150 0 246 66q33 23 56.5 58.5t23.5 76.5q0 51 -46 67q-16 6 -39.5 9.5t-78.5 3.5h-62l29 135h31q29 0 67.5 1t73.5 10t58.5 31.5t23.5 65.5q0 29 -20.5 47.5t-65.5 18.5q-53 0 -98.5 -19.5t-108.5 -56.5l-72 109 q80 53 168 83.5t162 30.5q104 0 166.5 -49t62.5 -127q0 -72 -43 -126t-102 -89q41 -23 65.5 -58.5t24.5 -82.5q0 -53 -24.5 -99.5t-63.5 -83t-85 -64.5t-91 -44q-53 -18 -116.5 -29.5t-133.5 -11.5q-27 0 -43 2t-53 6z" />
<glyph unicode="&#xb4;" horiz-adv-x="688" d="M248 1274l452 268l95 -190l-478 -207z" />
<glyph unicode="&#xb6;" horiz-adv-x="1202" d="M154 973q0 106 41 194t114.5 151.5t177 97.5t230.5 34h528l-362 -1708h-170l334 1567h-228l-334 -1567h-168l197 930q-172 0 -266 84t-94 217z" />
<glyph unicode="&#xb7;" horiz-adv-x="616" d="M164 567q0 68 47 115t115 47t114.5 -47t46.5 -115t-47 -114.5t-114 -46.5q-68 0 -115 47t-47 114z" />
<glyph unicode="&#xb8;" horiz-adv-x="462" d="M-137 -356l74 112q29 -14 52 -22t58 -8q27 0 48.5 14t25.5 39q4 23 -11.5 34t-41.5 11q-23 0 -36.5 -3t-21.5 -5l-16 30l88 179l131 -13l-45 -86q70 -10 91 -48t17 -87q-2 -37 -20 -72.5t-51 -63.5t-78 -44.5t-100 -16.5q-47 0 -92.5 16.5t-71.5 33.5z" />
<glyph unicode="&#xb9;" horiz-adv-x="638" d="M164 512l31 143h131l98 469q-45 -23 -91 -43t-93 -34l-27 100l303 178h123l-141 -670h114l-30 -143h-418z" />
<glyph unicode="&#xba;" horiz-adv-x="882" d="M104 489l31 140h701l-31 -140h-701zM244 1044q0 111 32.5 206.5t90 166t137.5 111.5t176 41q135 0 204.5 -73t69.5 -202q0 -104 -28.5 -200.5t-85 -170t-138 -117.5t-186.5 -44q-131 0 -201.5 74.5t-70.5 207.5zM440 1028q0 -63 28 -92t77 -29q53 0 93 37t66.5 93.5 t40 125.5t13.5 137t-30 94.5t-75 26.5q-53 0 -93 -37.5t-66.5 -96t-40 -128t-13.5 -131.5z" />
<glyph unicode="&#xbb;" d="M10 150l334 362l-168 354l172 97l221 -465l-417 -457zM457 150l331 362l-165 354l170 97l223 -465l-420 -457z" />
<glyph unicode="&#xbc;" horiz-adv-x="1918" d="M168 512l31 143h131l100 469q-45 -23 -91 -43t-93 -34l-29 100l305 178h123l-143 -670h114l-30 -143h-418zM178 -313l1473 1878h180l-1473 -1878h-180zM1176 145l24 115l344 555h189q-12 -16 -48 -78.5t-85.5 -142.5t-102.5 -163t-98 -140h164l8 -2l2 8q18 72 40.5 149.5 t45.5 149.5l153 35l-71 -330q-2 -4 -1 -4t-3 -8q4 0 7 1t7 1h80l-31 -146h-80q-4 0 -7 1t-7 1v-11t-2 -13l-31 -139l-176 -29l39 176q2 4 2 8t2 8q-4 0 -10 -1t-12 -1h-342z" />
<glyph unicode="&#xbd;" horiz-adv-x="1918" d="M150 -313l1472 1878h180l-1472 -1878h-180zM201 512l30 143h131l101 469q-45 -23 -91 -43t-93 -34l-29 100l305 178h123l-143 -670h114l-31 -143h-417zM1202 0l25 115q47 33 115.5 84t127.5 104q27 23 64 56.5t69.5 73.5t56 82t23.5 83q0 39 -23.5 57.5t-60.5 18.5 q-49 0 -95 -22.5t-105 -61.5l-74 104q96 68 179 99.5t169 31.5q98 0 154.5 -51t56.5 -135q0 -68 -34.5 -130.5t-87 -118.5t-112 -104t-106.5 -85q-18 -16 -40.5 -30.5t-39.5 -27.5q16 0 35 1t33 1h278l-69 -145h-539z" />
<glyph unicode="&#xbe;" horiz-adv-x="2007" d="M100 612q25 -4 39.5 -7t24.5 -4t20.5 -1h22.5q150 0 246 66q33 23 56 58.5t23 76.5q0 51 -45 67q-16 6 -39.5 9.5t-78.5 3.5h-62l29 135h31q29 0 67.5 1t73.5 10t58.5 31.5t23.5 65.5q0 29 -20.5 47.5t-65.5 18.5q-53 0 -98.5 -19.5t-108.5 -56.5l-72 109q80 53 168 83.5 t162 30.5q104 0 166.5 -49t62.5 -127q0 -72 -43 -126t-102 -89q41 -23 65.5 -58.5t24.5 -82.5q0 -53 -24.5 -99.5t-63.5 -83t-85 -64.5t-91 -44q-53 -18 -116.5 -29.5t-133.5 -11.5q-27 0 -43 2t-53 6zM264 -313l1473 1878h180l-1473 -1878h-180zM1262 145l24 115l344 555 h189q-12 -16 -48 -78.5t-85.5 -142.5t-102.5 -163t-98 -140h164l8 -2l2 8q18 72 40.5 149.5t45.5 149.5l153 35l-71 -330q-2 -4 -1 -4t-3 -8q4 0 7 1t7 1h80l-31 -146h-80q-4 0 -7 1t-7 1v-11t-2 -13l-31 -139l-176 -29l39 176q2 4 2 8t2 8q-4 0 -10 -1t-12 -1h-342z" />
<glyph unicode="&#xbf;" horiz-adv-x="903" d="M-51 -166q0 119 66.5 207t189.5 162q63 39 104 80t65.5 84t35 88t12.5 92h190q4 -150 -55 -257.5t-195 -193.5q-51 -33 -85.5 -58.5t-55 -49t-30 -48t-9.5 -53.5q0 -66 43 -96.5t109 -30.5q72 0 136.5 25t123.5 68l76 -142q-33 -25 -77 -50.5t-96.5 -47t-111.5 -34.5 t-123 -13q-143 0 -228 72.5t-85 195.5zM414 872q0 63 44 107.5t107 44.5q61 0 105.5 -44.5t44.5 -107.5t-44 -106t-108 -43q-61 0 -105 43t-44 106z" />
<glyph unicode="&#xc0;" horiz-adv-x="1173" d="M-113 0l770 1417h271l153 -1417h-247l-33 379h-465l-197 -379h-252zM436 573h346l-26 328q-4 25 -6 71t-7 93q-4 53 -6 113q-18 -41 -37 -82q-16 -35 -35.5 -75t-35.5 -73zM477 1683l115 193l409 -270l-75 -127z" />
<glyph unicode="&#xc1;" horiz-adv-x="1173" d="M-113 0l770 1417h271l153 -1417h-247l-33 379h-465l-197 -379h-252zM436 573h346l-26 328q-4 25 -6 71t-7 93q-4 53 -6 113q-18 -41 -37 -82q-16 -35 -35.5 -75t-35.5 -73zM596 1606l453 268l94 -191l-477 -206z" />
<glyph unicode="&#xc2;" horiz-adv-x="1173" d="M-113 0l770 1417h271l153 -1417h-247l-33 379h-465l-197 -379h-252zM424 1593l416 277l309 -277l-96 -123l-248 166l-313 -166zM436 573h346l-26 328q-4 25 -6 71t-7 93q-4 53 -6 113q-18 -41 -37 -82q-16 -35 -35.5 -75t-35.5 -73z" />
<glyph unicode="&#xc3;" horiz-adv-x="1173" d="M-113 0l770 1417h271l153 -1417h-247l-33 379h-465l-197 -379h-252zM416 1653q66 63 124 98t144 35q45 0 73.5 -12.5t55.5 -27.5t55.5 -27.5t73.5 -12.5q49 0 82 20.5t74 55.5l55 -123q-66 -63 -127 -98t-154 -35q-43 0 -71.5 12t-53 26.5t-52 27t-70.5 12.5 q-49 0 -82 -21.5t-74 -56.5zM436 573h346l-26 328q-4 25 -6 71t-7 93q-4 53 -6 113q-18 -41 -37 -82q-16 -35 -35.5 -75t-35.5 -73z" />
<glyph unicode="&#xc4;" horiz-adv-x="1173" d="M-113 0l770 1417h271l153 -1417h-247l-33 379h-465l-197 -379h-252zM436 573h346l-26 328q-4 25 -6 71t-7 93q-4 53 -6 113q-18 -41 -37 -82q-16 -35 -35.5 -75t-35.5 -73zM444 1622q0 57 41 97t99 40q57 0 97 -40t40 -97q0 -59 -40 -99t-99 -40q-57 0 -97.5 40t-40.5 99 zM872 1622q0 57 40 97t100 40q57 0 97 -40t40 -97q0 -59 -40 -99t-97 -40q-59 0 -99.5 40t-40.5 99z" />
<glyph unicode="&#xc5;" horiz-adv-x="1173" d="M-113 0l770 1417h271l153 -1417h-247l-33 379h-465l-197 -379h-252zM436 573h346l-26 328q-4 25 -6 71t-7 93q-4 53 -6 113q-18 -41 -37 -82q-16 -35 -35.5 -75t-35.5 -73zM578 1677q0 92 62 154.5t155 62.5q92 0 154.5 -62.5t62.5 -154.5t-62.5 -154.5t-154.5 -62.5 t-154.5 62.5t-62.5 154.5zM692 1677q0 -43 30 -72.5t73 -29.5t72.5 29.5t29.5 72.5t-29.5 73t-72.5 30t-73 -30t-30 -73z" />
<glyph unicode="&#xc6;" horiz-adv-x="1630" d="M-225 0l1157 1415h840l-72 -192h-514l-82 -387h440l-43 -195h-436l-94 -438h579l-45 -203h-815l80 379h-416l-303 -379h-276zM508 573h303l119 549z" />
<glyph unicode="&#xc7;" d="M102 479q0 86 15.5 177.5t45.5 180.5t73 172t98 150q111 137 260 209t307 72q104 0 190.5 -30t139.5 -83l-135 -153q-47 43 -104.5 61t-125.5 18q-94 0 -177 -47t-146 -129q-43 -55 -78 -133t-58.5 -162t-36 -165.5t-12.5 -145.5q0 -154 74 -231.5t213 -77.5 q72 0 135.5 23.5t141.5 72.5l84 -156q-190 -127 -420 -127h-19l-26 -49q70 -10 92 -48t18 -87q-4 -37 -22.5 -72.5t-50 -63.5t-77.5 -44.5t-102 -16.5q-47 0 -91 16.5t-72 33.5l75 108q23 -14 49.5 -22.5t61.5 -8.5q27 0 48.5 16.5t25.5 41.5q4 23 -12.5 34t-43.5 11 q-23 0 -36 -2t-23 -6l-6 45l65 131q-162 39 -250 165t-88 322z" />
<glyph unicode="&#xc8;" horiz-adv-x="1013" d="M61 0l304 1415h790l-72 -192h-524l-80 -387h436l-41 -195h-436l-92 -438h572l-44 -203h-813zM426 1683l115 193l409 -270l-76 -127z" />
<glyph unicode="&#xc9;" horiz-adv-x="1013" d="M61 0l304 1415h790l-72 -192h-524l-80 -387h436l-41 -195h-436l-92 -438h572l-44 -203h-813zM543 1606l452 268l95 -191l-478 -206z" />
<glyph unicode="&#xca;" horiz-adv-x="1013" d="M61 0l304 1415h790l-72 -192h-524l-80 -387h436l-41 -195h-436l-92 -438h572l-44 -203h-813zM416 1593l415 277l310 -277l-97 -123l-247 166l-314 -166z" />
<glyph unicode="&#xcb;" horiz-adv-x="1013" d="M61 0l304 1415h790l-72 -192h-524l-80 -387h436l-41 -195h-436l-92 -438h572l-44 -203h-813zM403 1622q0 57 41 97t99 40q57 0 97 -40t40 -97q0 -59 -40 -99t-99 -40q-57 0 -97.5 40t-40.5 99zM831 1622q0 57 40 97t100 40q57 0 97 -40t40 -97q0 -59 -40 -99t-97 -40 q-59 0 -99.5 40t-40.5 99z" />
<glyph unicode="&#xcc;" horiz-adv-x="569" d="M61 0l304 1415h237l-301 -1415h-240zM164 1683l115 193l409 -270l-76 -127z" />
<glyph unicode="&#xcd;" horiz-adv-x="569" d="M61 0l304 1415h237l-301 -1415h-240zM295 1606l453 268l94 -191l-477 -206z" />
<glyph unicode="&#xce;" horiz-adv-x="569" d="M61 0l304 1415h237l-301 -1415h-240zM141 1593l416 277l309 -277l-96 -123l-248 166l-313 -166z" />
<glyph unicode="&#xcf;" horiz-adv-x="569" d="M61 0l304 1415h237l-301 -1415h-240zM152 1622q0 57 40.5 97t98.5 40q57 0 97 -40t40 -97q0 -59 -40 -99t-99 -40q-57 0 -97 40t-40 99zM580 1622q0 57 39.5 97t99.5 40q57 0 97 -40t40 -97q0 -59 -40 -99t-97 -40q-59 0 -99 40t-40 99z" />
<glyph unicode="&#xd0;" horiz-adv-x="1277" d="M37 637l33 162h163l132 616h315q84 0 150.5 -5t120 -19.5t96.5 -38t77 -62.5q59 -63 90 -151.5t31 -223.5q0 -90 -19.5 -190t-55 -197.5t-86 -184.5t-113.5 -148q-53 -53 -108.5 -90t-121 -61t-144.5 -34t-179 -10h-357l138 637h-162zM342 193h145q115 0 196 39.5 t130 107.5q49 70 84 151.5t55.5 160.5t29.5 147.5t9 109.5q0 68 -9 122t-36 95q-37 57 -92 80t-145 23h-148l-90 -430h264l-82 -162h-217z" />
<glyph unicode="&#xd1;" horiz-adv-x="1296" d="M61 0l304 1415h260l206 -713q16 -55 28.5 -109t22 -102.5t14.5 -87t7 -59.5q2 23 8.5 70t15.5 105.5t20 119.5t22 115l133 661h227l-301 -1415h-244l-188 682q-18 66 -34.5 131.5t-29 121.5t-20.5 99t-10 62q-4 -25 -10.5 -70t-15.5 -99.5t-20.5 -113.5t-21.5 -115 l-139 -698h-234zM487 1655q66 63 124.5 98t144.5 35q45 0 73.5 -12.5t55 -27.5t55.5 -27.5t74 -12.5q49 0 81.5 20.5t73.5 55.5l56 -123q-66 -63 -127.5 -98t-153.5 -35q-43 0 -71.5 12t-53 26.5t-52.5 27t-71 12.5q-49 0 -81.5 -21.5t-73.5 -56.5z" />
<glyph unicode="&#xd2;" horiz-adv-x="1400" d="M127 481q0 135 27.5 256t73.5 224.5t107.5 185.5t127.5 137q76 63 177 107.5t261 44.5q223 0 344 -130t121 -366q0 -129 -28.5 -261t-82 -249t-130 -211t-173.5 -149q-82 -47 -168 -71t-190 -24q-123 0 -211 37t-144.5 103.5t-84 160t-27.5 205.5zM383 438 q0 -152 64.5 -217t187.5 -65q150 0 254 112q49 55 89 142.5t67.5 186.5t43 200.5t15.5 183.5q0 123 -56.5 197.5t-189.5 74.5q-88 0 -161.5 -38.5t-123.5 -104.5q-43 -55 -77.5 -135t-60 -170t-39 -184.5t-13.5 -182.5zM578 1683l114 193l410 -270l-76 -127z" />
<glyph unicode="&#xd3;" horiz-adv-x="1400" d="M127 481q0 135 27.5 256t73.5 224.5t107.5 185.5t127.5 137q76 63 177 107.5t261 44.5q223 0 344 -130t121 -366q0 -129 -28.5 -261t-82 -249t-130 -211t-173.5 -149q-82 -47 -168 -71t-190 -24q-123 0 -211 37t-144.5 103.5t-84 160t-27.5 205.5zM383 438 q0 -152 64.5 -217t187.5 -65q150 0 254 112q49 55 89 142.5t67.5 186.5t43 200.5t15.5 183.5q0 123 -56.5 197.5t-189.5 74.5q-88 0 -161.5 -38.5t-123.5 -104.5q-43 -55 -77.5 -135t-60 -170t-39 -184.5t-13.5 -182.5zM690 1606l453 268l94 -191l-477 -206z" />
<glyph unicode="&#xd4;" horiz-adv-x="1400" d="M127 481q0 135 27.5 256t73.5 224.5t107.5 185.5t127.5 137q76 63 177 107.5t261 44.5q223 0 344 -130t121 -366q0 -129 -28.5 -261t-82 -249t-130 -211t-173.5 -149q-82 -47 -168 -71t-190 -24q-123 0 -211 37t-144.5 103.5t-84 160t-27.5 205.5zM383 438 q0 -152 64.5 -217t187.5 -65q150 0 254 112q49 55 89 142.5t67.5 186.5t43 200.5t15.5 183.5q0 123 -56.5 197.5t-189.5 74.5q-88 0 -161.5 -38.5t-123.5 -104.5q-43 -55 -77.5 -135t-60 -170t-39 -184.5t-13.5 -182.5zM545 1593l416 277l309 -277l-96 -123l-248 166 l-314 -166z" />
<glyph unicode="&#xd5;" horiz-adv-x="1400" d="M127 481q0 135 27.5 256t73.5 224.5t107.5 185.5t127.5 137q76 63 177 107.5t261 44.5q223 0 344 -130t121 -366q0 -129 -28.5 -261t-82 -249t-130 -211t-173.5 -149q-82 -47 -168 -71t-190 -24q-123 0 -211 37t-144.5 103.5t-84 160t-27.5 205.5zM383 438 q0 -152 64.5 -217t187.5 -65q150 0 254 112q49 55 89 142.5t67.5 186.5t43 200.5t15.5 183.5q0 123 -56.5 197.5t-189.5 74.5q-88 0 -161.5 -38.5t-123.5 -104.5q-43 -55 -77.5 -135t-60 -170t-39 -184.5t-13.5 -182.5zM528 1653q66 63 124.5 98t144.5 35q45 0 73.5 -12.5 t55 -27.5t55.5 -27.5t74 -12.5q49 0 81.5 20.5t73.5 55.5l56 -123q-66 -63 -127.5 -98t-153.5 -35q-43 0 -71.5 12t-53 26.5t-52.5 27t-71 12.5q-49 0 -81.5 -21.5t-73.5 -56.5z" />
<glyph unicode="&#xd6;" horiz-adv-x="1400" d="M127 481q0 135 27.5 256t73.5 224.5t107.5 185.5t127.5 137q76 63 177 107.5t261 44.5q223 0 344 -130t121 -366q0 -129 -28.5 -261t-82 -249t-130 -211t-173.5 -149q-82 -47 -168 -71t-190 -24q-123 0 -211 37t-144.5 103.5t-84 160t-27.5 205.5zM383 438 q0 -152 64.5 -217t187.5 -65q150 0 254 112q49 55 89 142.5t67.5 186.5t43 200.5t15.5 183.5q0 123 -56.5 197.5t-189.5 74.5q-88 0 -161.5 -38.5t-123.5 -104.5q-43 -55 -77.5 -135t-60 -170t-39 -184.5t-13.5 -182.5zM563 1624q0 57 41 97t98 40t97.5 -40t40.5 -97 q0 -59 -40 -99t-100 -40q-57 0 -97 40t-40 99zM991 1624q0 57 40 97t99 40q57 0 97.5 -40t40.5 -97q0 -59 -40 -99t-98 -40q-59 0 -99 40t-40 99z" />
<glyph unicode="&#xd7;" horiz-adv-x="1132" d="M72 295l350 289l-227 288l178 148l229 -289l348 289l121 -152l-350 -288l227 -289l-178 -148l-229 289l-348 -289z" />
<glyph unicode="&#xd8;" horiz-adv-x="1343" d="M-113 -94l203 250q-41 63 -60.5 145t-19.5 180q0 135 28 256t74 223.5t106.5 185.5t123.5 138q76 66 178.5 109t261.5 43q86 0 159 -20.5t128 -61.5l176 215l111 -84l-191 -232q82 -127 82 -313q0 -129 -28.5 -259t-82 -246t-130 -211t-172.5 -156q-80 -51 -167 -72 t-192 -21q-92 0 -163.5 20.5t-125.5 59.5l-192 -233zM262 438q0 -16 2 -32.5t4 -30.5l660 807q-31 35 -77 53t-112 18q-88 0 -161.5 -38.5t-122.5 -104.5q-43 -55 -79 -135t-60.5 -170t-39 -184.5t-14.5 -182.5zM324 225q35 -37 82 -53t110 -16q150 0 254 112 q49 53 89 139.5t67.5 184.5t44 198.5t16.5 184.5v27.5t-4 25.5z" />
<glyph unicode="&#xd9;" horiz-adv-x="1296" d="M131 279q0 33 4 77.5t15 89.5l206 969h238l-197 -919q-29 -139 -20 -191q10 -61 62.5 -95t144.5 -34q94 0 160.5 37t101.5 94q10 16 17 31.5t14.5 35t13.5 46t14 63.5l199 932h235l-204 -966q-16 -72 -30.5 -125.5t-34 -95.5t-47.5 -74.5t-69 -61.5q-29 -20 -64.5 -41.5 t-83.5 -38t-111.5 -28t-145.5 -11.5q-193 0 -305.5 79t-112.5 227zM514 1683l115 193l409 -270l-75 -127z" />
<glyph unicode="&#xda;" horiz-adv-x="1296" d="M131 279q0 33 4 77.5t15 89.5l206 969h238l-197 -919q-29 -139 -20 -191q10 -61 62.5 -95t144.5 -34q94 0 160.5 37t101.5 94q10 16 17 31.5t14.5 35t13.5 46t14 63.5l199 932h235l-204 -966q-16 -72 -30.5 -125.5t-34 -95.5t-47.5 -74.5t-69 -61.5q-29 -20 -64.5 -41.5 t-83.5 -38t-111.5 -28t-145.5 -11.5q-193 0 -305.5 79t-112.5 227zM629 1606l452 268l95 -191l-478 -206z" />
<glyph unicode="&#xdb;" horiz-adv-x="1296" d="M131 279q0 33 4 77.5t15 89.5l206 969h238l-197 -919q-29 -139 -20 -191q10 -61 62.5 -95t144.5 -34q94 0 160.5 37t101.5 94q10 16 17 31.5t14.5 35t13.5 46t14 63.5l199 932h235l-204 -966q-16 -72 -30.5 -125.5t-34 -95.5t-47.5 -74.5t-69 -61.5q-29 -20 -64.5 -41.5 t-83.5 -38t-111.5 -28t-145.5 -11.5q-193 0 -305.5 79t-112.5 227zM502 1593l416 277l309 -277l-97 -123l-247 166l-314 -166z" />
<glyph unicode="&#xdc;" horiz-adv-x="1296" d="M131 279q0 33 4 77.5t15 89.5l206 969h238l-197 -919q-29 -139 -20 -191q10 -61 62.5 -95t144.5 -34q94 0 160.5 37t101.5 94q10 16 17 31.5t14.5 35t13.5 46t14 63.5l199 932h235l-204 -966q-16 -72 -30.5 -125.5t-34 -95.5t-47.5 -74.5t-69 -61.5q-29 -20 -64.5 -41.5 t-83.5 -38t-111.5 -28t-145.5 -11.5q-193 0 -305.5 79t-112.5 227zM539 1622q0 57 41 97t98 40t97 -40t40 -97q0 -59 -40 -99t-99 -40q-57 0 -97 40t-40 99zM967 1622q0 57 40 97t99 40q57 0 97 -40t40 -97q0 -59 -40 -99t-97 -40q-59 0 -99 40t-40 99z" />
<glyph unicode="&#xdd;" horiz-adv-x="1105" d="M176 1415h275l120 -452q12 -47 21.5 -90.5t13.5 -81.5q23 33 50.5 77.5t62.5 92.5l319 454h285l-635 -846l-123 -569h-243l122 573zM514 1606l453 268l94 -191l-477 -206z" />
<glyph unicode="&#xde;" horiz-adv-x="1134" d="M61 0l304 1415h235l-47 -225h131q131 0 213 -19.5t135 -54.5q63 -43 96 -108.5t33 -143.5q0 -160 -65.5 -274.5t-169.5 -179.5q-90 -55 -173 -76t-196 -21h-192l-66 -313h-238zM406 506h184q86 0 135 18.5t84 53.5q47 47 72.5 110t25.5 129q0 88 -51 134t-168 46h-178z " />
<glyph unicode="&#xdf;" horiz-adv-x="1202" d="M-72 -328q45 53 86 137.5t62 184.5l182 883h-158l33 159h156l8 33q51 209 169 305t325 96q164 0 254 -78.5t90 -199.5q0 -76 -26 -129t-63.5 -90t-82.5 -60.5t-83 -40t-63.5 -31t-25.5 -32.5q0 -20 22.5 -36.5t56 -34t73.5 -40t74 -55.5t56.5 -81t22.5 -116 q0 -96 -40 -181t-111 -150.5t-167 -103.5t-211 -38q-100 0 -161 31l77 156q23 -10 44.5 -15.5t47.5 -5.5q57 0 108.5 18.5t89.5 53.5t59.5 84t21.5 111q0 55 -20.5 90.5t-50 61.5t-65.5 44.5t-65.5 41t-50 53t-20.5 77.5q0 51 22.5 84t56 56.5t72.5 44t73 48t56.5 66.5 t22.5 101q0 57 -35 89.5t-98 32.5q-94 0 -151.5 -61t-90.5 -221l-211 -1026q-29 -145 -88 -253t-131 -179z" />
<glyph unicode="&#xe0;" horiz-adv-x="1069" d="M63 305q0 174 59.5 328.5t160.5 259.5q166 168 411 168q90 0 175.5 -18.5t146.5 -59.5q-14 -43 -32.5 -112.5t-29.5 -125.5l-84 -409q-20 -94 -11 -143.5t48 -90.5l-184 -137q-41 35 -59.5 77t-18.5 93q-55 -76 -133 -118t-178 -42q-123 0 -197 82t-74 248zM295 311 q0 -86 27.5 -120.5t85.5 -34.5q35 0 71.5 16t69.5 44t59.5 63.5t44.5 74.5l111 508q-16 10 -43 15.5t-53 5.5q-70 0 -124.5 -21.5t-113.5 -93.5q-35 -41 -60.5 -97.5t-42 -117.5t-24.5 -123.5t-8 -118.5zM397 1352l115 192l410 -270l-76 -127z" />
<glyph unicode="&#xe1;" horiz-adv-x="1069" d="M63 305q0 174 59.5 328.5t160.5 259.5q166 168 411 168q90 0 175.5 -18.5t146.5 -59.5q-14 -43 -32.5 -112.5t-29.5 -125.5l-84 -409q-20 -94 -11 -143.5t48 -90.5l-184 -137q-41 35 -59.5 77t-18.5 93q-55 -76 -133 -118t-178 -42q-123 0 -197 82t-74 248zM295 311 q0 -86 27.5 -120.5t85.5 -34.5q35 0 71.5 16t69.5 44t59.5 63.5t44.5 74.5l111 508q-16 10 -43 15.5t-53 5.5q-70 0 -124.5 -21.5t-113.5 -93.5q-35 -41 -60.5 -97.5t-42 -117.5t-24.5 -123.5t-8 -118.5zM516 1274l453 268l94 -190l-477 -207z" />
<glyph unicode="&#xe2;" horiz-adv-x="1069" d="M63 305q0 174 59.5 328.5t160.5 259.5q166 168 411 168q90 0 175.5 -18.5t146.5 -59.5q-14 -43 -32.5 -112.5t-29.5 -125.5l-84 -409q-20 -94 -11 -143.5t48 -90.5l-184 -137q-41 35 -59.5 77t-18.5 93q-55 -76 -133 -118t-178 -42q-123 0 -197 82t-74 248zM295 311 q0 -86 27.5 -120.5t85.5 -34.5q35 0 71.5 16t69.5 44t59.5 63.5t44.5 74.5l111 508q-16 10 -43 15.5t-53 5.5q-70 0 -124.5 -21.5t-113.5 -93.5q-35 -41 -60.5 -97.5t-42 -117.5t-24.5 -123.5t-8 -118.5zM338 1262l416 276l309 -276l-96 -123l-248 166l-313 -166z" />
<glyph unicode="&#xe3;" horiz-adv-x="1069" d="M63 305q0 174 59.5 328.5t160.5 259.5q166 168 411 168q90 0 175.5 -18.5t146.5 -59.5q-14 -43 -32.5 -112.5t-29.5 -125.5l-84 -409q-20 -94 -11 -143.5t48 -90.5l-184 -137q-41 35 -59.5 77t-18.5 93q-55 -76 -133 -118t-178 -42q-123 0 -197 82t-74 248zM295 311 q0 -86 27.5 -120.5t85.5 -34.5q35 0 71.5 16t69.5 44t59.5 63.5t44.5 74.5l111 508q-16 10 -43 15.5t-53 5.5q-70 0 -124.5 -21.5t-113.5 -93.5q-35 -41 -60.5 -97.5t-42 -117.5t-24.5 -123.5t-8 -118.5zM319 1325q66 63 124.5 98t144.5 35q45 0 73.5 -12t55 -27.5t55.5 -28 t74 -12.5q49 0 82 20.5t73 55.5l56 -123q-66 -63 -127.5 -98t-153.5 -35q-43 0 -71.5 12.5t-53 26.5t-52.5 26.5t-71 12.5q-49 0 -81.5 -21.5t-73.5 -56.5z" />
<glyph unicode="&#xe4;" horiz-adv-x="1069" d="M63 305q0 174 59.5 328.5t160.5 259.5q166 168 411 168q90 0 175.5 -18.5t146.5 -59.5q-14 -43 -32.5 -112.5t-29.5 -125.5l-84 -409q-20 -94 -11 -143.5t48 -90.5l-184 -137q-41 35 -59.5 77t-18.5 93q-55 -76 -133 -118t-178 -42q-123 0 -197 82t-74 248zM295 311 q0 -86 27.5 -120.5t85.5 -34.5q35 0 71.5 16t69.5 44t59.5 63.5t44.5 74.5l111 508q-16 10 -43 15.5t-53 5.5q-70 0 -124.5 -21.5t-113.5 -93.5q-35 -41 -60.5 -97.5t-42 -117.5t-24.5 -123.5t-8 -118.5zM356 1288q0 57 41 97t99 40q57 0 97 -40t40 -97q0 -59 -40 -99 t-99 -40q-57 0 -97.5 40t-40.5 99zM784 1288q0 57 40 97t100 40q57 0 97 -40t40 -97q0 -59 -40 -99t-97 -40q-59 0 -99.5 40t-40.5 99z" />
<glyph unicode="&#xe5;" horiz-adv-x="1069" d="M63 305q0 174 59.5 328.5t160.5 259.5q166 168 411 168q90 0 175.5 -18.5t146.5 -59.5q-14 -43 -32.5 -112.5t-29.5 -125.5l-84 -409q-20 -94 -11 -143.5t48 -90.5l-184 -137q-41 35 -59.5 77t-18.5 93q-55 -76 -133 -118t-178 -42q-123 0 -197 82t-74 248zM295 311 q0 -86 27.5 -120.5t85.5 -34.5q35 0 71.5 16t69.5 44t59.5 63.5t44.5 74.5l111 508q-16 10 -43 15.5t-53 5.5q-70 0 -124.5 -21.5t-113.5 -93.5q-35 -41 -60.5 -97.5t-42 -117.5t-24.5 -123.5t-8 -118.5zM485 1350q0 92 62.5 154.5t154.5 62.5t155 -62.5t63 -154.5 t-62.5 -154.5t-155.5 -62.5q-92 0 -154.5 62t-62.5 155zM600 1350q0 -43 29.5 -73t72.5 -30t73 30t30 73t-30 72.5t-73 29.5t-72.5 -29.5t-29.5 -72.5z" />
<glyph unicode="&#xe6;" horiz-adv-x="1589" d="M63 227q0 92 45.5 169t130.5 130.5t205.5 79t274.5 17.5l18 71q8 29 10.5 52.5t2.5 41.5q0 88 -119 89q-70 0 -154 -28t-182 -89l-70 158q100 57 223 100t252 43q86 0 143.5 -32t90.5 -83q66 55 139.5 85t159.5 30q141 0 231 -67t90 -212q0 -66 -30.5 -123t-77.5 -102 q-129 -119 -424 -119q-43 0 -77 2t-50 4q-4 -16 -8 -49t-4 -57q0 -98 51 -144.5t137 -46.5q82 0 152.5 27t144.5 86l66 -139q-92 -76 -191.5 -112t-228.5 -36q-104 0 -179 39t-124 111q-72 -82 -163 -119t-188 -37q-76 0 -131 20.5t-92 55.5t-55.5 83t-18.5 101zM307 258 q0 -57 33 -92t88 -35q53 0 98 22.5t78 63.5q14 16 26.5 52t24 75t18.5 74t11 49q-190 12 -283.5 -42t-93.5 -167zM932 602q10 0 36.5 -1t53.5 -1q186 0 260 68q45 41 45 102q0 53 -29.5 88t-101.5 35q-86 0 -157.5 -71.5t-106.5 -219.5z" />
<glyph unicode="&#xe7;" horiz-adv-x="901" d="M86 330q0 92 21.5 183t57.5 172t84 147.5t101 111.5q72 59 151 90t177 31q74 0 142.5 -26.5t121.5 -82.5l-123 -151q-41 41 -86 58.5t-92 17.5q-96 0 -168 -84q-29 -35 -54.5 -89.5t-45 -119t-31.5 -132t-12 -126.5q0 -92 40 -138.5t113 -46.5q59 0 119 29t117 80 l82 -141q-84 -66 -167 -101t-183 -37l-27 -49q70 -10 91.5 -48t16.5 -85q-2 -37 -20 -72.5t-51 -63.5t-78 -45.5t-100 -17.5q-47 0 -92.5 16.5t-71.5 33.5l71 110q29 -14 52.5 -22t58.5 -8q27 0 49.5 15t26.5 40q4 23 -11.5 34t-41.5 11q-23 0 -35.5 -4t-22.5 -8l-8 49 l61 127q-117 29 -175 115.5t-58 226.5z" />
<glyph unicode="&#xe8;" horiz-adv-x="1034" d="M90 352q0 78 16.5 157t46 152.5t72.5 140t97 118.5q78 74 163.5 107.5t186.5 33.5q152 0 239.5 -69t87.5 -208q0 -127 -92 -215q-66 -63 -173 -97t-267 -34q-43 0 -77 4t-48 4q-4 -16 -8 -50t-4 -58q0 -98 51 -144.5t137 -46.5q82 0 151.5 28t141.5 85l70 -139 q-94 -76 -192.5 -112t-229.5 -36q-166 0 -267.5 96.5t-101.5 282.5zM354 1352l115 192l410 -270l-76 -127zM379 606q10 0 36.5 -3t53.5 -3q94 0 158.5 15.5t101.5 52.5q43 43 43 102q0 53 -28.5 88t-100.5 35q-88 0 -158.5 -69.5t-105.5 -217.5z" />
<glyph unicode="&#xe9;" horiz-adv-x="1034" d="M90 352q0 78 16.5 157t46 152.5t72.5 140t97 118.5q78 74 163.5 107.5t186.5 33.5q152 0 239.5 -69t87.5 -208q0 -127 -92 -215q-66 -63 -173 -97t-267 -34q-43 0 -77 4t-48 4q-4 -16 -8 -50t-4 -58q0 -98 51 -144.5t137 -46.5q82 0 151.5 28t141.5 85l70 -139 q-94 -76 -192.5 -112t-229.5 -36q-166 0 -267.5 96.5t-101.5 282.5zM379 606q10 0 36.5 -3t53.5 -3q94 0 158.5 15.5t101.5 52.5q43 43 43 102q0 53 -28.5 88t-100.5 35q-88 0 -158.5 -69.5t-105.5 -217.5zM485 1274l453 268l94 -190l-477 -207z" />
<glyph unicode="&#xea;" horiz-adv-x="1034" d="M90 352q0 78 16.5 157t46 152.5t72.5 140t97 118.5q78 74 163.5 107.5t186.5 33.5q152 0 239.5 -69t87.5 -208q0 -127 -92 -215q-66 -63 -173 -97t-267 -34q-43 0 -77 4t-48 4q-4 -16 -8 -50t-4 -58q0 -98 51 -144.5t137 -46.5q82 0 151.5 28t141.5 85l70 -139 q-94 -76 -192.5 -112t-229.5 -36q-166 0 -267.5 96.5t-101.5 282.5zM322 1262l415 276l310 -276l-97 -123l-248 166l-313 -166zM379 606q10 0 36.5 -3t53.5 -3q94 0 158.5 15.5t101.5 52.5q43 43 43 102q0 53 -28.5 88t-100.5 35q-88 0 -158.5 -69.5t-105.5 -217.5z" />
<glyph unicode="&#xeb;" horiz-adv-x="1034" d="M90 352q0 78 16.5 157t46 152.5t72.5 140t97 118.5q78 74 163.5 107.5t186.5 33.5q152 0 239.5 -69t87.5 -208q0 -127 -92 -215q-66 -63 -173 -97t-267 -34q-43 0 -77 4t-48 4q-4 -16 -8 -50t-4 -58q0 -98 51 -144.5t137 -46.5q82 0 151.5 28t141.5 85l70 -139 q-94 -76 -192.5 -112t-229.5 -36q-166 0 -267.5 96.5t-101.5 282.5zM346 1288q0 57 41 97t98 40t97.5 -40t40.5 -97q0 -59 -40 -99t-100 -40q-57 0 -97 40t-40 99zM379 606q10 0 36.5 -3t53.5 -3q94 0 158.5 15.5t101.5 52.5q43 43 43 102q0 53 -28.5 88t-100.5 35 q-88 0 -158.5 -69.5t-105.5 -217.5zM774 1288q0 57 40 97t99 40q57 0 97.5 -40t40.5 -97q0 -59 -40 -99t-98 -40q-59 0 -99 40t-40 99z" />
<glyph unicode="&#xec;" horiz-adv-x="550" d="M61 0l218 1024l237 35l-225 -1059h-230zM92 1352l115 192l409 -270l-75 -127z" />
<glyph unicode="&#xed;" horiz-adv-x="550" d="M61 0l218 1024l237 35l-225 -1059h-230zM236 1274l452 268l94 -190l-477 -207z" />
<glyph unicode="&#xee;" horiz-adv-x="550" d="M61 0l218 1024l237 35l-225 -1059h-230zM61 1262l416 276l309 -276l-96 -123l-248 166l-313 -166z" />
<glyph unicode="&#xef;" horiz-adv-x="550" d="M61 0l218 1024l237 35l-225 -1059h-230zM98 1288q0 57 41 97t99 40q57 0 97 -40t40 -97q0 -59 -40 -99t-99 -40q-57 0 -97.5 40t-40.5 99zM526 1288q0 57 40 97t100 40q57 0 97 -40t40 -97q0 -59 -40 -99t-97 -40q-59 0 -99.5 40t-40.5 99z" />
<glyph unicode="&#xf0;" horiz-adv-x="1044" d="M33 346q0 113 39 211t108.5 170t165.5 113t211 41q47 0 94 -8.5t76 -18.5q-20 72 -70.5 136.5t-105.5 113.5l-76 -72l-131 74l90 82q-59 35 -130 57.5t-152 32.5l172 166q66 -8 140.5 -30.5t145.5 -63.5l82 75l129 -73l-92 -84q63 -53 112.5 -121t82 -144.5t50 -161.5 t17.5 -171q0 -129 -34.5 -254t-106.5 -223.5t-179.5 -160t-250.5 -61.5q-180 0 -283.5 94.5t-103.5 280.5zM285 358q0 -86 43 -134t127 -48t138 48t86 121t44 155.5t12 150.5q-37 16 -86 26.5t-104 10.5q-66 0 -115 -26.5t-82 -70.5t-48 -104.5t-15 -128.5z" />
<glyph unicode="&#xf1;" horiz-adv-x="1116" d="M61 0l152 717q18 92 19 150.5t-15 115.5l209 86q16 -35 22.5 -88t-4.5 -107q74 90 169.5 137.5t203.5 47.5q98 0 152.5 -55.5t54.5 -149.5q0 -27 -2 -56.5t-8 -56.5l-158 -741h-223l145 686q14 63 15 100q0 45 -20.5 63.5t-61.5 18.5q-55 0 -129 -43t-156 -149l-143 -676 h-222zM330 1325q66 63 124 98t144 35q45 0 73.5 -12t55.5 -27.5t55.5 -28t73.5 -12.5q49 0 82 20.5t74 55.5l55 -123q-66 -63 -127 -98t-154 -35q-43 0 -71.5 12.5t-53 26.5t-52 26.5t-70.5 12.5q-49 0 -82 -21.5t-74 -56.5z" />
<glyph unicode="&#xf2;" horiz-adv-x="1107" d="M74 346q0 150 43 280t121.5 227t186 152.5t237.5 55.5q180 0 273 -96.5t93 -268.5q0 -141 -39 -272t-114.5 -230.5t-186 -159t-254.5 -59.5q-174 0 -267 95.5t-93 275.5zM315 326q0 -94 42 -137.5t118 -43.5t133.5 52.5t96 133.5t59 180.5t20.5 193.5q0 104 -44 144 t-113 40q-78 0 -135.5 -55.5t-97.5 -138.5t-59.5 -182t-19.5 -187zM344 1352l115 192l409 -270l-75 -127z" />
<glyph unicode="&#xf3;" horiz-adv-x="1107" d="M74 346q0 150 43 280t121.5 227t186 152.5t237.5 55.5q180 0 273 -96.5t93 -268.5q0 -141 -39 -272t-114.5 -230.5t-186 -159t-254.5 -59.5q-174 0 -267 95.5t-93 275.5zM315 326q0 -94 42 -137.5t118 -43.5t133.5 52.5t96 133.5t59 180.5t20.5 193.5q0 104 -44 144 t-113 40q-78 0 -135.5 -55.5t-97.5 -138.5t-59.5 -182t-19.5 -187zM479 1274l453 268l94 -190l-477 -207z" />
<glyph unicode="&#xf4;" horiz-adv-x="1107" d="M74 346q0 150 43 280t121.5 227t186 152.5t237.5 55.5q180 0 273 -96.5t93 -268.5q0 -141 -39 -272t-114.5 -230.5t-186 -159t-254.5 -59.5q-174 0 -267 95.5t-93 275.5zM315 326q0 -94 42 -137.5t118 -43.5t133.5 52.5t96 133.5t59 180.5t20.5 193.5q0 104 -44 144 t-113 40q-78 0 -135.5 -55.5t-97.5 -138.5t-59.5 -182t-19.5 -187zM322 1262l415 276l310 -276l-97 -123l-248 166l-313 -166z" />
<glyph unicode="&#xf5;" horiz-adv-x="1107" d="M74 346q0 150 43 280t121.5 227t186 152.5t237.5 55.5q180 0 273 -96.5t93 -268.5q0 -141 -39 -272t-114.5 -230.5t-186 -159t-254.5 -59.5q-174 0 -267 95.5t-93 275.5zM315 326q0 -94 42 -137.5t118 -43.5t133.5 52.5t96 133.5t59 180.5t20.5 193.5q0 104 -44 144 t-113 40q-78 0 -135.5 -55.5t-97.5 -138.5t-59.5 -182t-19.5 -187zM317 1325q66 63 124.5 98t144.5 35q45 0 73.5 -12t55 -27.5t55.5 -28t74 -12.5q49 0 81.5 20.5t73.5 55.5l56 -123q-66 -63 -127.5 -98t-153.5 -35q-43 0 -71.5 12.5t-53 26.5t-52.5 26.5t-71 12.5 q-49 0 -81.5 -21.5t-73.5 -56.5z" />
<glyph unicode="&#xf6;" horiz-adv-x="1107" d="M74 346q0 150 43 280t121.5 227t186 152.5t237.5 55.5q180 0 273 -96.5t93 -268.5q0 -141 -39 -272t-114.5 -230.5t-186 -159t-254.5 -59.5q-174 0 -267 95.5t-93 275.5zM315 326q0 -94 42 -137.5t118 -43.5t133.5 52.5t96 133.5t59 180.5t20.5 193.5q0 104 -44 144 t-113 40q-78 0 -135.5 -55.5t-97.5 -138.5t-59.5 -182t-19.5 -187zM348 1288q0 57 41 97t98 40t97.5 -40t40.5 -97q0 -59 -40 -99t-100 -40q-57 0 -97 40t-40 99zM776 1288q0 57 40 97t99 40q57 0 97.5 -40t40.5 -97q0 -59 -40 -99t-98 -40q-59 0 -99 40t-40 99z" />
<glyph unicode="&#xf7;" horiz-adv-x="1210" d="M82 451l41 190h1034l-41 -190h-1034zM367 129q0 68 46 117t113 47q66 0 111 -48t45 -116q0 -66 -47 -112t-113 -46t-110.5 46t-44.5 112zM547 963q0 68 46 114.5t112 48.5q33 0 61.5 -12t50 -33.5t33.5 -51t12 -62.5q0 -68 -47 -114t-113 -46t-110.5 45t-44.5 111z" />
<glyph unicode="&#xf8;" horiz-adv-x="1099" d="M-12 -84l155 188q-31 47 -48 107.5t-17 134.5q0 150 43 280t122 225t186.5 150.5t236.5 55.5q127 0 213 -51l153 190l96 -76l-159 -196q63 -92 63 -230q0 -143 -39 -274t-114.5 -230.5t-186 -159t-254.5 -59.5q-123 0 -207 54l-149 -185zM322 319l423 525q-41 43 -114 43 q-78 0 -135.5 -52.5t-96.5 -130t-58 -166.5t-19 -165v-54zM360 184q41 -43 119 -43q72 0 128.5 47.5t95 122t60 169t25.5 188.5q0 23 -2 32q-12 -16 -48 -60t-83 -101.5t-99 -120t-95 -114.5t-72 -86z" />
<glyph unicode="&#xf9;" d="M102 180q0 68 19 158l143 680l232 43l-144 -680q-10 -41 -15 -78t-5 -59q0 -98 82 -99q33 0 71.5 15.5t77.5 43t74 64.5t61 80l144 666l227 43l-164 -766q-16 -80 -10 -134.5t35 -97.5l-189 -98q-29 35 -46 78t-15 100q-74 -80 -160 -125t-180 -45q-113 0 -175.5 53.5 t-62.5 157.5zM410 1352l114 192l410 -270l-76 -127z" />
<glyph unicode="&#xfa;" d="M102 180q0 68 19 158l143 680l232 43l-144 -680q-10 -41 -15 -78t-5 -59q0 -98 82 -99q33 0 71.5 15.5t77.5 43t74 64.5t61 80l144 666l227 43l-164 -766q-16 -80 -10 -134.5t35 -97.5l-189 -98q-29 35 -46 78t-15 100q-74 -80 -160 -125t-180 -45q-113 0 -175.5 53.5 t-62.5 157.5zM477 1274l453 268l94 -190l-477 -207z" />
<glyph unicode="&#xfb;" d="M102 180q0 68 19 158l143 680l232 43l-144 -680q-10 -41 -15 -78t-5 -59q0 -98 82 -99q33 0 71.5 15.5t77.5 43t74 64.5t61 80l144 666l227 43l-164 -766q-16 -80 -10 -134.5t35 -97.5l-189 -98q-29 35 -46 78t-15 100q-74 -80 -160 -125t-180 -45q-113 0 -175.5 53.5 t-62.5 157.5zM328 1262l415 276l310 -276l-97 -123l-247 166l-314 -166z" />
<glyph unicode="&#xfc;" d="M102 180q0 68 19 158l143 680l232 43l-144 -680q-8 -41 -14 -78t-6 -59q0 -98 82 -99q33 0 71.5 15.5t77.5 43t74 64.5t61 80l144 666l227 43l-164 -766q-16 -80 -10 -134.5t35 -97.5l-189 -98q-29 35 -46 78t-15 100q-74 -80 -160 -125t-180 -45q-113 0 -175.5 53.5 t-62.5 157.5zM362 1288q0 57 41 97t99 40q57 0 97 -40t40 -97q0 -59 -40 -99t-99 -40q-57 0 -97.5 40t-40.5 99zM791 1288q0 57 39.5 97t99.5 40q57 0 97 -40t40 -97q0 -59 -40 -99t-97 -40q-59 0 -99 40t-40 99z" />
<glyph unicode="&#xfd;" horiz-adv-x="989" d="M-25 -291q47 8 97.5 30.5t85.5 47.5q51 35 84.5 82t74.5 131l-71 -4q0 27 -2 68.5t-5 87t-8.5 90.5t-9.5 80l-90 700l234 33l57 -629q2 -29 4 -63.5t3 -66.5t1 -59.5v-43.5h2q16 41 51 116.5t76 153.5l299 573h246l-547 -977q-45 -80 -82 -144.5t-71.5 -114.5t-68.5 -87 t-71 -61q-51 -35 -113.5 -59.5t-127.5 -34.5zM360 1274l453 268l94 -190l-477 -207z" />
<glyph unicode="&#xfe;" horiz-adv-x="1142" d="M-31 -440l334 1581q20 98 25.5 173t-9.5 128l234 78q14 -51 11 -135.5t-23 -176.5l-33 -153q-4 -14 -9 -37t-11.5 -46.5t-12.5 -45t-10 -33.5q53 72 140 120t186 48q143 0 210.5 -93t67.5 -259q0 -190 -74.5 -354.5t-201.5 -268.5q-72 -59 -151 -86t-163 -27 q-49 0 -100 7.5t-98 17.5l-82 -385zM328 201q27 -25 69.5 -39.5t102.5 -14.5q84 0 144.5 60.5t100 148.5t59 184.5t19.5 170.5q0 78 -29.5 119.5t-88.5 41.5q-72 0 -142.5 -52t-132.5 -140z" />
<glyph unicode="&#xff;" horiz-adv-x="989" d="M-25 -291q47 8 97.5 30.5t85.5 47.5q51 35 84.5 82t74.5 131l-71 -4q0 27 -2 68.5t-5 87t-8.5 90.5t-9.5 80l-90 700l234 33l57 -629q2 -29 4 -63.5t3 -66.5t1 -59.5v-43.5h2q16 41 51 116.5t76 153.5l299 573h246l-547 -977q-45 -80 -82 -144.5t-71.5 -114.5t-68.5 -87 t-71 -61q-51 -35 -113.5 -59.5t-127.5 -34.5zM270 1288q0 57 41 97t99 40q57 0 97 -40t40 -97q0 -59 -40 -99t-99 -40q-57 0 -97.5 40t-40.5 99zM698 1288q0 57 40 97t100 40q57 0 97 -40t40 -97q0 -59 -40 -99t-97 -40q-59 0 -99.5 40t-40.5 99z" />
<glyph unicode="&#x152;" horiz-adv-x="1730" d="M133.5 362.5q-18.5 145.5 22.5 344.5q35 164 100.5 287.5t157.5 215.5q78 78 165 124t179 63q43 8 99 13t134 5h881l-72 -192h-524l-82 -387h438l-41 -195h-438l-94 -438h579l-43 -203h-864q-104 0 -180 5t-132.5 18.5t-98 38t-78.5 63.5q-90 92 -108.5 237.5zM393 502 q-8 -92 13.5 -152.5t52.5 -91.5q37 -41 86 -57.5t106 -16.5q47 0 102.5 7.5t77.5 11.5l211 993q-20 4 -65 11t-96 7q-135 0 -233.5 -69.5t-162.5 -231.5q-41 -106 -62.5 -215.5t-29.5 -195.5z" />
<glyph unicode="&#x153;" horiz-adv-x="1673" d="M74 346q0 150 43 280t121.5 225t186 150.5t237.5 55.5q106 0 181 -37t118 -105q80 74 164.5 110t185.5 36q145 0 236 -65.5t91 -215.5q0 -66 -29.5 -123t-76.5 -102q-63 -59 -171 -88t-255 -29q-43 0 -77 4t-48 4q-4 -16 -8 -50t-4 -58q0 -98 51 -144.5t137 -46.5 q82 0 151.5 28t141.5 85l70 -139q-80 -68 -184.5 -108t-235.5 -40q-205 0 -303 146q-70 -68 -160 -108t-203 -40q-63 0 -127.5 16.5t-116 58.5t-84 114.5t-32.5 185.5zM313 322q0 -94 43 -137.5t117 -43.5q76 0 134.5 52.5t97 134.5t59 181t20.5 193q0 104 -44 144.5 t-115 40.5q-76 0 -134.5 -55.5t-97.5 -139.5t-59.5 -183t-20.5 -187zM1018 606q10 0 36.5 -3t53.5 -3q57 0 112.5 8t98.5 27.5t68.5 52.5t25.5 82q0 53 -29.5 88t-101.5 35q-88 0 -158.5 -69.5t-105.5 -217.5z" />
<glyph unicode="&#x178;" horiz-adv-x="1105" d="M176 1415h275l120 -452q12 -47 21.5 -90.5t13.5 -81.5q23 33 50.5 77.5t62.5 92.5l319 454h285l-635 -846l-123 -569h-243l122 573zM401 1622q0 57 41 97t99 40q57 0 97 -40t40 -97q0 -59 -40 -99t-99 -40q-57 0 -97.5 40t-40.5 99zM829 1622q0 57 40 97t100 40 q57 0 97 -40t40 -97q0 -59 -40 -99t-97 -40q-59 0 -99.5 40t-40.5 99z" />
<glyph unicode="&#x2c6;" horiz-adv-x="765" d="M182 1262l416 276l309 -276l-96 -123l-248 166l-313 -166z" />
<glyph unicode="&#x2dc;" horiz-adv-x="770" d="M197 1325q66 63 124 98t144 35q45 0 73.5 -12t55.5 -27.5t55.5 -28t73.5 -12.5q49 0 82 20.5t74 55.5l55 -123q-66 -63 -127.5 -98t-153.5 -35q-43 0 -71.5 12.5t-53 26.5t-52 26.5t-70.5 12.5q-49 0 -82 -21.5t-74 -56.5z" />
<glyph unicode="&#x2000;" horiz-adv-x="947" />
<glyph unicode="&#x2001;" horiz-adv-x="1894" />
<glyph unicode="&#x2002;" horiz-adv-x="947" />
<glyph unicode="&#x2003;" horiz-adv-x="1894" />
<glyph unicode="&#x2004;" horiz-adv-x="631" />
<glyph unicode="&#x2005;" horiz-adv-x="473" />
<glyph unicode="&#x2006;" horiz-adv-x="315" />
<glyph unicode="&#x2007;" horiz-adv-x="315" />
<glyph unicode="&#x2008;" horiz-adv-x="236" />
<glyph unicode="&#x2009;" horiz-adv-x="378" />
<glyph unicode="&#x200a;" horiz-adv-x="105" />
<glyph unicode="&#x2010;" horiz-adv-x="704" d="M121 457l43 196h448l-43 -196h-448z" />
<glyph unicode="&#x2011;" horiz-adv-x="704" d="M121 457l43 196h448l-43 -196h-448z" />
<glyph unicode="&#x2012;" horiz-adv-x="704" d="M121 457l43 196h448l-43 -196h-448z" />
<glyph unicode="&#x2013;" horiz-adv-x="1169" d="M88 481l37 172h995l-37 -172h-995z" />
<glyph unicode="&#x2014;" horiz-adv-x="1632" d="M88 481l37 172h1458l-37 -172h-1458z" />
<glyph unicode="&#x2018;" horiz-adv-x="538" d="M231 1065q0 74 37 144.5t97 127.5q49 47 105 78t108 47l67 -104q-68 -27 -118 -68t-50 -76q0 -10 10.5 -21t22.5 -19q29 -16 47 -51.5t18 -80.5q0 -74 -49 -122t-120 -48q-78 0 -126.5 50.5t-48.5 142.5z" />
<glyph unicode="&#x2019;" horiz-adv-x="538" d="M184 958q68 27 118 68t50 76q0 10 -10 21.5t-23 19.5q-29 16 -47 51t-18 80q0 74 49 122t121 48q78 0 126 -50.5t48 -142.5q0 -74 -37 -144.5t-96 -127.5q-49 -47 -105.5 -78t-107.5 -47z" />
<glyph unicode="&#x201a;" horiz-adv-x="536" d="M-68 -193q68 27 118 68t50 76q0 10 -10 21.5t-22 19.5q-29 16 -47.5 51t-18.5 80q0 74 49 122t121 48q78 0 126 -50.5t48 -142.5q0 -74 -37 -144.5t-96 -127.5q-49 -47 -105.5 -78t-107.5 -47z" />
<glyph unicode="&#x201c;" horiz-adv-x="974" d="M231 1065q0 74 37 144.5t97 127.5q49 47 105 78t108 47l67 -104q-68 -27 -118 -68t-50 -76q0 -10 10.5 -21t22.5 -19q29 -16 47 -51.5t18 -80.5q0 -74 -49 -122t-120 -48q-78 0 -126.5 50.5t-48.5 142.5zM670 1065q0 74 36.5 144.5t96.5 127.5q49 47 105.5 78t107.5 47 l67 -104q-68 -27 -118 -68t-50 -76q0 -10 10.5 -21t22.5 -19q29 -16 47.5 -51.5t18.5 -80.5q0 -74 -49.5 -122t-120.5 -48q-78 0 -126 50.5t-48 142.5z" />
<glyph unicode="&#x201d;" horiz-adv-x="976" d="M186 958q68 27 118 68t50 76q0 10 -10 21.5t-22 19.5q-29 16 -47.5 51t-18.5 80q0 74 49 122t121 48q78 0 126 -50.5t48 -142.5q0 -74 -37 -144.5t-96 -127.5q-49 -47 -105.5 -78t-107.5 -47zM625 958q68 27 118 68t50 76q0 10 -10.5 21.5t-22.5 19.5q-29 16 -47.5 51 t-18.5 80q0 74 49.5 122t120.5 48q78 0 126 -50.5t48 -142.5q0 -74 -36.5 -144.5t-96.5 -127.5q-49 -47 -105.5 -78t-107.5 -47z" />
<glyph unicode="&#x201e;" horiz-adv-x="974" d="M-66 -193q68 27 118 68t50 76q0 10 -10 21.5t-22 19.5q-29 16 -47.5 51t-18.5 80q0 74 49 122t121 48q78 0 126 -50.5t48 -142.5q0 -74 -37 -144.5t-96 -127.5q-49 -47 -105.5 -78t-107.5 -47zM373 -193q68 27 118 68t50 76q0 10 -10.5 21.5t-22.5 19.5q-29 16 -47.5 51 t-18.5 80q0 74 49.5 122t120.5 48q78 0 126 -50.5t48 -142.5q0 -74 -36.5 -144.5t-96.5 -127.5q-49 -47 -105 -78t-108 -47z" />
<glyph unicode="&#x2022;" horiz-adv-x="1026" d="M201 725q0 76 28.5 141.5t77.5 114.5t114.5 77.5t141.5 28.5t141.5 -28.5t114.5 -77.5t78 -114.5t29 -141.5t-29 -141.5t-78 -114.5t-114.5 -78t-141.5 -29t-141.5 29t-114.5 78t-77.5 114.5t-28.5 141.5z" />
<glyph unicode="&#x2026;" horiz-adv-x="1626" d="M68 135q0 66 47 112t112 46q68 0 116 -46t48 -112q0 -35 -13 -64.5t-34.5 -52t-51.5 -36t-63 -13.5q-68 0 -114.5 48.5t-46.5 117.5zM561 135q0 66 47 112t113 46q70 0 117 -46t47 -112q0 -35 -13.5 -64.5t-35 -52t-51 -36t-62.5 -13.5q-68 0 -115 48.5t-47 117.5z M1057 135q0 66 46 112t114 46t115.5 -46t47.5 -112q0 -70 -48 -118t-113 -48q-70 0 -116 48.5t-46 117.5z" />
<glyph unicode="&#x202f;" horiz-adv-x="378" />
<glyph unicode="&#x2039;" horiz-adv-x="669" d="M109 506l419 457l140 -109l-334 -365l168 -348l-170 -100z" />
<glyph unicode="&#x203a;" horiz-adv-x="669" d="M2 150l334 366l-168 350l172 97l221 -465l-418 -457z" />
<glyph unicode="&#x205f;" horiz-adv-x="473" />
<glyph unicode="&#x20ac;" horiz-adv-x="1292" d="M82 457l37 178h211q12 74 35 156h-213l38 178h244q39 104 103.5 192t148.5 150.5t186.5 97.5t219.5 35q111 0 180 -22.5t114 -53.5l-88 -190q-92 80 -223 79q-76 0 -137 -22.5t-110.5 -61t-86 -92t-61.5 -112.5h459l-39 -178h-486q-10 -41 -17 -78t-15 -78h485l-37 -178 h-459q0 -55 14.5 -108.5t47.5 -95.5t88 -66.5t135 -24.5q76 0 138.5 18.5t133.5 65.5l11 -191q-41 -20 -78 -34.5t-77 -23.5t-86 -14.5t-103 -5.5q-113 0 -201 38t-148.5 102.5t-92 151.5t-31.5 188h-240z" />
<glyph unicode="&#x2122;" horiz-adv-x="1937" d="M213 1280l29 150h661l-57 -150h-221l-150 -731h-186l151 731h-227zM848 549l268 881h225l41 -553l275 553h229l-102 -881h-178l71 561l-286 -561h-154l-47 565l-158 -565h-184z" />
<glyph unicode="&#x25fc;" horiz-adv-x="1054" d="M0 0v1055h1055v-1055h-1055z" />
</font>
</defs>
</svg>
